<?xml version="1.0" encoding="UTF-8"?>
<svg width="48px" height="48px" viewBox="0 0 48 48" version="1.1" xmlns="http://www.w3.org/2000/svg" xmlns:xlink="http://www.w3.org/1999/xlink">
    <!-- Generator: Sketch 50.2 (55047) - http://www.bohemiancoding.com/sketch -->
    <title>Icons/globe</title>
    <desc>Created with Sketch.</desc>
    <defs>
        <circle id="path-1" cx="15" cy="15" r="15"></circle>
    </defs>
    <g id="Icons/globe" stroke="none" stroke-width="1" fill="none" fill-rule="evenodd">
        <g id="Group-3" fill="#00A4DB">
            <rect id="Rectangle-2" x="0" y="0" width="48" height="48" rx="6"></rect>
        </g>
        <g id="Page-1" transform="translate(9.000000, 9.000000)">
            <mask id="mask-2" fill="white">
                <use xlink:href="#path-1"></use>
            </mask>
            <circle stroke="#FFFFFF" stroke-width="1.5" cx="15" cy="15" r="14.25"></circle>
            <g mask="url(#mask-2)" fill="#FFFFFF">
                <g transform="translate(-16.000000, 0.000000)">
                    <path d="M26.0158831,4.80871768 C26.0123466,4.78857921 25.9911278,4.78507686 25.9911278,4.7579337 C26.112252,4.58631887 26.5127577,4.57931418 26.3474275,4.20719018 C26.4234617,4.10124429 26.4959594,4.04258003 26.4234617,3.90598863 C26.4818135,3.83068825 26.5923283,3.80704743 26.6993067,3.77902868 C26.7788773,3.53999373 26.9026539,3.34473808 26.9274092,3.05404357 C26.8372291,2.92445686 26.5958648,2.94809768 26.6506802,2.67841722 C26.8443021,2.56546664 26.9689628,2.81150628 27.0547223,2.80099925 C27.1174947,2.75284202 27.1687736,2.6985557 27.1555118,2.57509809 C27.0927394,2.52781645 27.0308511,2.48316157 26.9026539,2.4997977 C26.8655209,2.33606314 26.7479332,2.25375807 26.5507748,2.25025572 C26.6064742,2.04536863 26.7718044,1.94992977 26.9026539,1.82647216 C26.9203363,1.73366005 26.8619845,1.72052626 26.8787827,1.62421182 C27.1378294,1.55941846 27.4561121,1.4639796 27.4587644,1.22406907 C27.7213476,1.14263958 28.0113384,1.08747767 28.0909091,0.823926318 C27.866343,0.656689414 27.2209365,0.683832576 27.0547223,0.875585885 C26.9512804,0.886092916 26.8929286,0.851945066 26.8275038,0.823926318 C26.6409548,0.964895645 26.3748352,1.16277806 26.1706038,1.20042825 C26.2881916,1.04982748 26.3951699,0.886092916 26.5269036,0.748625932 C26.4163888,0.674201132 26.2607839,0.64268004 26.1467326,0.574384341 C26.2086209,0.520098016 26.3403546,0.533231804 26.350964,0.423783568 C26.0503637,0.382631032 25.7807076,0.0858074167 25.4420902,0.0236408189 C25.0345116,-0.0481572237 24.626933,0.098941205 24.1778009,0 L24.0266166,0 C23.6703169,0.338851738 22.6447395,0.126084367 22.1540538,0.249541977 C22.185882,0.304703888 22.2513068,0.32134002 22.2548433,0.40014275 C22.1788091,0.448299973 22.1301826,0.3659949 22.1027749,0.451802317 C22.1301826,0.533231804 22.3025857,0.601527503 22.2787145,0.649684727 C22.0506119,0.547241178 21.7570846,0.382631032 21.4184672,0.475443136 C21.3742613,0.619039221 21.5776085,0.649684727 21.5466644,0.701344294 C21.3530425,0.745999174 21.2566735,0.554245865 21.0904593,0.527102703 C20.6899536,0.457931418 20.2514309,0.745999174 19.8509252,0.752128275 C19.8093717,0.786276125 19.8235176,0.875585885 19.774891,0.902729048 C19.5123079,1.03319134 19.177227,1.16978274 18.8669014,1.3028718 C18.7873307,1.33701965 18.6113912,1.31337883 18.6149276,1.45347257 C18.6423353,1.54978702 18.8359573,1.48411808 18.9429356,1.50513214 C18.9491244,1.60757569 19.0286951,1.63471885 19.042841,1.73103329 C18.61758,1.93241805 18.0243365,1.89126551 17.7272727,2.25726041 C17.8236416,2.41136353 18.1207054,2.36670865 18.2586279,2.48316157 C18.2135379,2.54445258 18.0862248,2.52781645 18.0826883,2.63376234 C18.4283787,3.2256584 19.543252,2.71869417 20.1064355,3.10920548 C20.1992679,3.17399883 20.662546,3.73524939 20.6864171,3.88497457 C20.7279707,4.1248851 20.6209924,4.17917143 20.610383,4.41207728 C20.7173613,4.5968259 21.0356439,4.49088 21.0904593,4.33677689 C21.2115835,4.42608665 21.2946906,4.55567336 21.4184672,4.63797843 C21.26021,4.72028351 21.0939958,4.80171299 20.9145197,4.68876241 C20.9003738,4.7579337 20.8075414,4.75092901 20.8146143,4.83936319 C20.8765026,4.94530908 20.9383909,4.90503213 20.8384855,5.01448036 C20.9454639,5.05213056 21.0082363,5.1300577 21.1426223,5.14056473 C21.26021,5.1239286 21.2637465,4.9934663 21.394596,4.98996396 C21.4255402,5.09240751 21.4396861,5.31830867 21.394596,5.41462311 C21.2805447,5.40411608 21.2045106,5.4277569 21.1187511,5.43826393 C20.8906485,5.69130825 21.028571,5.9242141 21.1187511,6.16324905 C21.2770083,6.58090351 21.7464752,7.06247575 21.9268353,7.46612084 C22.2716415,7.43547534 22.9311939,7.89778468 23.014301,7.41533686 C23.0381722,7.27524312 22.962138,7.24722437 22.9382668,7.11413532 C23.1106699,6.92588435 23.3564548,6.80943143 23.2936824,6.3891502 C23.5182485,6.11509182 23.9638442,6.24205178 24.2299639,6.06430784 C24.440384,5.92071176 24.4651394,5.65015572 24.6578772,5.51356432 C25.4562361,5.47591413 25.9672566,5.15807645 26.5021483,4.86387959 C26.3819081,4.75092901 26.1361232,4.87000869 26.0158831,4.80871768 L26.0158831,4.80871768 Z" id="Fill-1"></path>
                    <path d="M45.9636475,1.75031151 C45.9520105,1.8174963 45.9743147,1.86000097 45.9898307,1.90867567 C46.3234242,2.02110737 46.7171422,2.18975491 47.1263761,2.1815282 C47.0885559,2.00191171 47.1981375,1.83052193 47.1797122,1.73180141 C46.9896415,1.72083246 46.7249001,1.76402269 46.6531387,1.67284333 C46.7016262,1.5658961 46.7927825,1.54190153 46.7365371,1.39724855 C46.2439048,1.28481686 45.9103113,1.48294345 45.5466556,1.57412281 C45.5350186,1.67284333 45.610659,1.71054908 45.6562372,1.76950716 C45.7735768,1.7722494 45.8841281,1.77430608 45.9636475,1.75031151 L45.9636475,1.75031151 Z" id="Fill-3"></path>
                    <path d="M31.941212,2.07146553 C32.0777577,2.27110044 32.3541001,2.30731329 32.497148,2.49580578 C32.4776415,2.54316104 32.432939,2.56451733 32.4491945,2.65551371 C32.6621407,2.68429828 32.7255369,2.88764733 32.8685848,3 C33.0140709,2.66294199 33.1067269,2.26367217 33.4269591,2.12253493 C33.4716615,2.16524751 33.5350577,2.19496061 33.5415599,2.28224285 C33.5480621,2.39459553 33.4716615,2.41223768 33.4968574,2.54687518 C33.6683523,2.64808544 34.0560445,2.62672914 34.0999342,2.41595182 C33.9414437,2.30359915 33.7382507,2.24510148 33.7065526,1.99161157 C33.5480621,1.89040131 33.2432726,1.95168458 33.1953191,1.72697924 C33.452155,1.7446214 33.7000504,1.93682803 34.008091,1.88668717 C34.242982,1.84676019 34.4014726,1.57841373 34.6363636,1.59605588 C34.417728,1.40013511 34.0560445,1.42984821 33.7536934,1.38249295 C33.2904134,1.3137814 33.0368285,1.44377623 32.7060304,1.59605588 C32.6678301,1.65083942 32.7092815,1.79197666 32.6621407,1.83561778 C32.5475399,1.83561778 32.6873366,1.61834071 32.5922423,1.65083942 C32.4995863,1.5561289 32.4426923,1.72697924 32.3606023,1.73069338 C32.3606023,1.51620192 32.0842599,1.62205485 31.9192672,1.59605588 C31.8745647,1.76690622 31.994855,1.85697407 31.941212,2.07146553 L31.941212,2.07146553 Z" id="Fill-4"></path>
                    <path d="M13.0923824,1.90674301 C13.2590024,1.93674301 13.3799124,2.01324301 13.5126186,2.07774301 C13.835537,1.77774301 13.0525706,1.35024301 13.0923824,1.90674301 L13.0923824,1.90674301 Z" id="Fill-5"></path>
                    <path d="M12.1498217,2.24302574 C12.1332896,2.36577672 12.2221494,2.37478597 12.2386814,2.46713074 C12.7387758,2.39280446 12.988823,2.59438635 13.2998321,2.72727273 C13.4289887,2.57298939 13.3318629,2.45023841 13.2719343,2.27343195 C12.9082293,2.17658255 12.355439,1.70134481 12,2.01441612 C12.073361,2.12365323 12.2624462,2.11126552 12.355439,2.20811491 C12.2624462,2.19009642 12.2180164,2.22951187 12.1498217,2.24302574 L12.1498217,2.24302574 Z" id="Fill-6"></path>
                    <path d="M47.1818182,2.44009706 C47.4083706,2.49523858 47.8027902,2.38589013 48,2.22513857 C47.9256198,1.96999219 47.5714611,1.80550222 47.4165593,1.98401123 C47.5175525,2.18121227 47.1845477,2.21766175 47.1818182,2.44009706 L47.1818182,2.44009706 Z" id="Fill-7"></path>
                    <path d="M11.7215401,2.37859091 C11.7411644,2.14909091 11.7097654,1.99759091 11.6371552,1.90909091 C11.3575079,1.96759091 11.0052503,1.91509091 10.9090909,2.24959091 C11.1318276,2.37259091 11.5488456,2.19109091 11.7215401,2.37859091 L11.7215401,2.37859091 Z" id="Fill-8"></path>
                    <path d="M13.9090909,2.2138781 C13.8259377,1.98476606 13.5307057,1.83864869 13.3636364,1.94385319 C13.4025429,2.14023494 13.474253,2.28635232 13.5604577,2.40909091 C13.6588684,2.31791367 13.8854418,2.42311818 13.9090909,2.2138781 L13.9090909,2.2138781 Z" id="Fill-9"></path>
                    <path d="M10.558736,2.42013538 C10.6264623,2.8447613 10.9583213,2.66438923 11.1171019,2.49278524 C11.1313997,2.37128461 11.0373354,2.4339138 11.0320678,2.35124327 C11.0907639,2.32619159 11.1404299,2.29237183 11.1818182,2.24352106 C11.0433555,2.09696875 10.7905105,2.2485314 10.6437702,2.31742351 C10.5910941,2.21471163 10.3465268,2.10698942 10.3645872,2.39007337 C10.4293035,2.46898615 10.4496214,2.41011471 10.558736,2.42013538 L10.558736,2.42013538 Z" id="Fill-10"></path>
                    <path d="M14.1818182,2.53136055 C14.0890592,2.46086055 13.6736258,2.35436055 13.6363636,2.66036055 C13.7790698,2.71286055 14.1294926,2.79386055 14.1818182,2.53136055 L14.1818182,2.53136055 Z" id="Fill-11"></path>
                    <path d="M14.9349566,2.73470894 C15.070922,2.41220894 14.4545455,2.32970894 14.4545455,2.69270894 C14.6513716,2.65820894 14.7381304,2.75720894 14.9349566,2.73470894 L14.9349566,2.73470894 Z" id="Fill-12"></path>
                    <path d="M9.62417994,3.13086877 C9.64573571,3.19013685 9.66073102,3.25694815 9.70477976,3.287121 C9.91002812,3.17289523 10.1546392,3.37117392 10.3458294,3.19444726 C10.3270853,3.28281059 10.2174321,3.27418978 10.2389878,3.40888998 C10.3308341,3.59854786 10.6232427,3.51880534 10.8284911,3.50156372 C10.7703843,3.6233327 10.8434864,3.71169603 10.8837863,3.80868018 C11.4029991,3.8884227 11.6710403,3.43367482 12.1433927,3.65350555 C12.2746017,3.56837502 12.4245548,3.50587412 12.5454545,3.40457957 C12.5313964,3.28281059 12.5313964,3.31190584 12.5454545,3.19013685 C12.4067479,3.10177352 12.230553,3.21061128 12.0627929,3.19013685 C11.9925023,3.10608393 11.9522024,2.92504686 12.0074977,2.79034666 C11.8350515,2.76879463 11.7478913,2.84099393 11.579194,2.8194419 C11.5576382,2.89487401 11.5173383,2.9541421 11.5238988,3.06836787 C11.6157451,3.10608393 11.732896,3.11793755 11.79194,3.19013685 C11.7366448,3.28281059 11.5941893,3.26987937 11.4985942,3.31190584 C11.1949391,2.79465706 10.4695408,2.97138373 10.0524836,3.09746312 C10.0346767,2.94552129 10.1255858,2.91211564 10.1846298,2.84853714 C10.2427366,2.91642605 10.3158388,2.96707332 10.4517338,2.94121088 C10.5538894,2.8873308 10.6382381,2.64271524 10.5576382,2.47891979 C10.5323336,2.51232544 10.3345829,2.36900443 10.3158388,2.54142069 C9.77413308,2.44120374 9.75632615,2.94552129 9.29803187,2.94121088 C9.31677601,3.03388462 9.27272727,3.05543665 9.27272727,3.12655836 C9.34957826,3.19013685 9.5398313,3.16427442 9.62417994,3.13086877 L9.62417994,3.13086877 Z" id="Fill-13"></path>
                    <path d="M39.3246404,4.3798305 L39.3246404,4.55769092 C39.4904033,4.5950416 39.7842923,4.69997925 39.943649,4.58170207 C39.8595663,4.41807049 39.702612,4.42162769 39.6681781,4.25177099 C39.5840955,3.83468831 40.0405443,3.56345117 40.2191198,3.36246889 C40.425723,3.32778611 40.5098057,3.16059732 40.6755686,3.08411734 C40.8413316,3.00763736 41.0663529,3.00141224 41.2697529,2.93115738 C41.4074883,2.88313506 41.7237993,2.76841509 41.7270024,2.62612676 C41.7422174,2.24728406 41.1103962,2.61189792 41.016704,2.62612676 C40.8821718,2.6465807 40.7540458,2.60834071 40.6475411,2.62612676 C40.2943939,2.6883779 40.1126151,2.99429782 39.7562647,3.00763736 C39.64976,3.22640567 39.5216341,3.42472004 39.3214372,3.54299722 C39.4936065,3.86937109 38.964286,3.91828271 39.0019231,4.33180818 C39.0868065,4.37271608 39.24296,4.33180818 39.3246404,4.3798305 L39.3246404,4.3798305 Z" id="Fill-14"></path>
                    <path d="M14.0792029,3.50502156 C14.1394344,3.43043044 14.2005263,3.35583933 14.1764337,3.19210273 C14.025855,3.06111345 13.5887464,3.22485005 13.4373072,3.08931253 C13.4476326,2.98288375 13.4140751,2.92284699 13.3865407,2.85462341 C13.2049857,2.82642433 13.0741973,2.71999555 12.9193163,2.75183322 C12.7954115,2.77639371 12.7782025,2.90101545 12.6740881,2.90829263 C12.4925331,2.9192084 12.4959749,2.73091132 12.2808624,2.72727273 C12.2275145,2.90465404 12.452092,2.99016093 12.5028585,3.14298175 C12.4727428,3.17118083 12.4589756,3.21757287 12.3789537,3.19574132 C12.469301,3.48409966 12.6706463,3.13206598 12.9193163,3.19574132 C12.9872919,3.25668772 12.8857588,3.32764025 12.9434089,3.37767087 C13.2557523,3.55505219 13.3667503,3.19574132 13.6326294,3.27397103 C13.622304,3.39131559 13.5921882,3.45499093 13.6558615,3.53322064 C13.7866499,3.59416704 13.9148569,3.40223136 14.0792029,3.50502156 L14.0792029,3.50502156 Z" id="Fill-15"></path>
                    <path d="M54.7641378,3.68014991 C54.8019496,3.61096493 54.8256919,3.52970004 54.8160191,3.39682096 C54.6023385,3.28590536 54.3482081,3.47039863 54.1872881,3.27272727 C53.9806422,3.53848543 53.3967578,2.97622024 53.4591912,3.74494218 C53.8672068,3.94151537 54.317431,3.68014991 54.7641378,3.68014991 L54.7641378,3.68014991 Z" id="Fill-16"></path>
                    <path d="M9.00183038,4.90909091 C9.15558267,4.88423336 9.24069555,4.7827317 9.39444783,4.76305281 C9.53813301,4.30215241 9.99206833,4.19650782 10.3636364,3.99454024 C10.3169616,3.82053739 10.123856,3.69521391 9.97010372,3.67035636 C9.88133008,3.65896332 9.7733374,3.73975035 9.68456376,3.7314645 C9.62324588,3.72317865 9.5738255,3.64239162 9.50244051,3.61442688 C9.29469189,3.53260411 8.86912752,3.54088996 8.69066504,3.55331873 C8.90482001,3.94171794 8.67968273,4.31354545 8.45454545,4.53208474 C8.75838926,4.51240585 8.81604637,4.7827317 9.00183038,4.90909091 L9.00183038,4.90909091 Z" id="Fill-18"></path>
                    <path d="M12.6092926,4.10660554 C12.5746686,4.15292779 12.5703406,4.22199005 12.5454545,4.27420786 C12.7694286,4.42917684 13.1924907,4.42917684 13.3482988,4.63636364 C13.5257468,4.61699251 13.5895848,4.54119247 13.7843449,4.5866725 C13.8730689,4.51171467 13.957465,4.36011458 13.8763149,4.22535894 C13.8222149,4.16893002 13.6566689,4.20177671 13.6274549,4.13018777 C13.6447669,4.04764995 13.8135589,4.08049663 13.7800169,3.96174323 C13.6783089,3.72170975 12.8916946,3.81351203 12.7910686,4.01143437 C12.8624806,4.06702107 13.0529127,4.03080549 13.0399287,4.15629668 C12.8873666,4.23209673 12.7607726,4.10660554 12.6092926,4.10660554 L12.6092926,4.10660554 Z" id="Fill-19"></path>
                    <path d="M54,4.13445082 C54.1929674,4.23495082 54.6373438,4.28745082 54.8181818,4.13445082 C54.787307,3.73095082 54.0253614,3.69495082 54,4.13445082 L54,4.13445082 Z" id="Fill-20"></path>
                    <path d="M27.4802744,6.03584336 C27.2024014,5.90088006 27.0317324,6.1969558 26.6457976,6.10838614 C26.5720412,6.13453528 26.5720412,6.22985311 26.448542,6.20370397 C26.4116638,6.00632014 25.9596913,5.95655242 25.9090909,6.18092891 C25.9356775,6.18430299 25.9356775,6.22057438 25.932247,6.25347169 C25.9794168,6.29564772 26.093482,6.26949858 26.1766724,6.27624675 C26.1303602,6.38168683 25.9965695,6.40446188 25.932247,6.49387507 C26.0866209,6.50990196 26.2204117,6.54617335 26.348199,6.5891929 C26.2907376,6.66173568 26.1801029,6.68198018 26.0531732,6.68451074 C26.6732419,7.02107548 27.3430532,6.64233471 27.8181818,6.4213323 C27.6878216,6.31251813 27.5506003,6.20370397 27.4802744,6.03584336 L27.4802744,6.03584336 Z" id="Fill-22"></path>
                    <path d="M29.7723707,9.43124734 C29.6755912,9.53618754 29.4682065,9.53247284 29.3753772,9.64577111 C29.5837494,9.8992992 29.3635266,10.1639714 29.2637845,10.3636364 C29.7921216,10.356207 30.0883854,10.1314678 30.5900587,10.0989642 C30.532781,9.9355175 30.5940089,9.7581407 30.8181818,9.77950021 C30.7480661,9.58726463 30.4745158,9.58726463 30.3668733,9.43496204 C30.3323092,9.16657516 29.9076645,9.08299447 29.8306359,8.77095989 C29.8997641,8.65116091 30.069622,8.622372 30.0577714,8.42642172 C29.9649421,8.37534463 29.7763208,8.47749881 29.660778,8.40134751 C29.6755912,8.34655573 29.7180556,8.31405212 29.7457069,8.27040443 C29.4751193,8.02709176 29.3289625,8.35398512 29.1818182,8.43013642 C29.232183,8.662305 29.2479838,8.77467459 29.2667471,9.01427257 C29.5175838,9.06813568 29.715093,9.18793467 29.7723707,9.43124734 L29.7723707,9.43124734 Z" id="Fill-23"></path>
                    <path d="M28.8690007,9.26323952 C28.7521511,9.0188436 28.9650166,8.97781363 28.8943634,8.75482466 C28.5791412,8.63976235 28.4441753,8.92162041 28.1688088,8.93232388 C28.2530492,9.18296349 28.0945323,9.26323952 28.0909091,9.49336414 C28.4160952,9.62180579 28.7421871,9.50049978 28.8690007,9.26323952 L28.8690007,9.26323952 Z" id="Fill-24"></path>
                    <path d="M54.3016657,11.1818182 C54.3680794,11.054687 54.5043128,11.1250149 54.5945674,11.1818182 C54.6507636,10.9383756 54.4115038,10.6570641 54.643952,10.4839493 C54.7171774,10.5019821 54.7444241,10.649851 54.8142437,10.5867362 C54.8474505,10.3469002 54.6609812,10.1214903 54.6175568,9.83927722 C54.5911616,9.65985099 54.6379918,9.46599854 54.5443313,9.30099854 C54.5145303,9.29739198 54.5111245,9.26944116 54.4711059,9.27304772 C54.2752705,9.58952312 54.4149097,10.2621461 54.3748911,10.7409165 C54.3280609,10.8536215 54.2216286,11.0303428 54.3016657,11.1818182 L54.3016657,11.1818182 Z" id="Fill-25"></path>
                    <path d="M53.6417181,12.6158574 C53.5866057,12.8119797 53.5183714,12.9921775 53.3407871,13.0709616 C52.8858915,13.0416271 52.5237246,13.2704364 52.3636364,13.5981449 C52.4283715,13.7029111 52.4423683,13.8571269 52.5648402,13.9090909 C52.7564212,13.8956808 52.8517743,13.5327709 52.7153057,13.4313572 C52.8727695,13.3819076 53.1010921,13.2737889 53.2655544,13.313181 C53.1255865,13.3785551 52.8998883,13.3626306 52.8421516,13.5067888 C52.9681226,13.8143823 53.1562045,13.3852601 53.3679059,13.4833212 C53.5043746,13.2997709 53.8464211,13.1983573 54.1167341,13.2218249 C54.1543504,12.9041739 54.5296393,12.5865229 54.5165173,12.2621668 C54.5095189,12.081969 54.3555543,12.0073755 54.3144387,11.8070626 C54.3520551,11.8003576 54.3555543,11.7676706 54.3896714,11.7584511 C54.478901,11.7810806 54.5436361,11.8330446 54.6389892,11.8531597 C54.7387163,11.7743756 54.8611882,11.6662569 55.0387725,11.731631 C55.0317741,11.6369224 55.097384,11.6109404 55.0903856,11.5162318 C54.7789571,11.4801922 54.6906024,11.2279153 54.3896714,11.1818182 C54.4474082,11.5355087 54.2120872,11.6042353 54.1132349,11.8037101 C54.2155864,12.0987316 54.0310037,12.2915014 54.0380021,12.5697603 C53.955771,12.665307 53.7545672,12.7407387 53.6417181,12.6158574 L53.6417181,12.6158574 Z" id="Fill-26"></path>
                    <path d="M51.2272727,14.7685373 C50.7808859,14.5325487 50.5500368,15.3784173 50.8904215,15.5454545 C50.9787566,15.2647932 51.2037167,15.097756 51.2272727,14.7685373 L51.2272727,14.7685373 Z" id="Fill-27"></path>
                    <path d="M50.1818182,17.9904384 C50.641027,18.0981286 50.6064629,17.2566201 51.0577714,17.4472222 C51.0656718,17.5101209 51.1041861,17.5472884 51.0844352,17.6368714 C51.189115,17.6816629 51.2888572,17.7293134 51.3658858,17.8007892 C51.3816865,17.8970433 51.2661436,17.8675 51.2819444,17.9647071 C51.5712953,17.8894192 51.6977012,17.6587906 51.8181818,17.4167259 C51.7984309,17.2794923 51.5357437,17.2975995 51.6206726,17.1451178 C51.4745158,17.1451178 51.4123004,17.1003263 51.2819444,17.1451178 C50.9925934,16.9478446 51.1041861,16.4417958 51.2819444,16.192107 C50.9382784,15.9090628 50.6143633,16.2702539 50.6331267,16.6543172 C50.6874417,16.7581954 50.8187853,16.7839267 50.8306359,16.9259253 C50.8029846,16.9811999 50.7723707,17.0336155 50.7457069,17.0898432 C50.791134,17.1270106 50.8572996,17.1451178 50.8572996,17.2270767 C50.7457069,17.2385129 50.6528776,17.2642442 50.575849,17.3090357 C50.6143633,17.6997701 50.2943984,17.7407496 50.1818182,17.9904384 L50.1818182,17.9904384 Z" id="Fill-31"></path>
                    <path d="M51.6613191,17.7272727 C51.644385,17.9669252 51.4385027,18.0299916 51.1773619,18.0392413 C51.1042781,18.1149211 51.0659537,18.2233953 51,18.3058021 C51.184492,18.357937 51.2468806,18.1939643 51.3306595,18.2334859 C51.4073084,18.328506 51.4278075,18.4798655 51.5356506,18.5454545 C51.6301248,18.4504345 51.644385,18.2763711 51.8181818,18.2561899 C51.8074866,18.0358778 51.828877,17.7928618 51.6613191,17.7272727 L51.6613191,17.7272727 Z" id="Fill-32"></path>
                    <path d="M43.6595385,17.7272727 C43.6494526,17.9240941 43.5851551,18.1270184 43.7276183,18.2727273 C43.8410846,18.2612842 43.9646369,18.2551812 44.0528885,18.2284806 C44.2546064,18.0080102 44.0781032,17.7547362 43.6595385,17.7272727 L43.6595385,17.7272727 Z" id="Fill-33"></path>
                    <path d="M49.3190297,18.9009179 C49.2557909,18.996457 49.2708927,19.1613254 49.1566853,19.2145905 C49.097222,19.1545616 49.083064,19.0556406 48.9679128,19.0454948 C48.6073572,19.4022868 49.0056673,19.5477092 49.049085,19.8681456 C49.4030335,19.9442387 49.7201713,20.0566873 50.0231512,20.1818182 C50.3176363,19.9704485 50.2109799,19.3989049 50.6423251,19.3101296 C50.6055144,19.1021419 50.4176858,19.0294307 50.4544964,18.7554956 C50.5167914,18.6954666 50.6461005,18.7022305 50.7272727,18.659111 C50.6791357,18.4840969 50.4799807,18.4443594 50.4280683,18.2727273 C49.996723,18.3327563 49.8711893,18.8738626 49.3190297,18.9009179 L49.3190297,18.9009179 Z" id="Fill-34"></path>
                    <path d="M48.0217718,19.5024114 C47.8154703,18.9386303 47.1144024,18.8500121 46.8214721,18.3680974 C46.6187429,18.4010128 46.5803405,18.2727273 46.4133345,18.2727273 C46.2382908,18.5039788 46.5705166,18.5335182 46.7169818,18.6584278 C46.7652081,18.698095 46.8321891,18.7900892 46.8696985,18.853388 C47.1733457,19.3479624 47.5466532,20.0729443 48.146803,20.1818182 C48.2128909,20.0104895 48.2414695,19.8062455 48.2727273,19.6011575 C48.2271802,19.5353267 48.1084005,19.5319508 48.0217718,19.5024114 L48.0217718,19.5024114 Z" id="Fill-35"></path>
                    <path d="M51.2440514,19.7903111 C51.2440514,19.7403313 51.2862279,19.726158 51.2682805,19.6620048 C51.065474,19.6038194 50.9568918,19.6500693 50.8339516,19.7462991 C50.7711354,19.7142225 50.7289588,19.6620048 50.6275556,19.6620048 C50.280272,19.8395449 50.571021,20.1043631 50.525255,20.3870846 C50.5889685,20.4281127 50.6517847,20.4661571 50.7819039,20.4512377 C50.9039467,20.3057742 50.6688348,20.0029116 50.8339516,19.9618835 C50.7881855,20.1021252 51.0026578,20.197609 50.9111257,20.3669435 C51.0304764,20.3669435 51.0861136,20.422145 51.2198223,20.4109555 C51.3418651,20.1923872 51.0618845,20.0058955 50.9640708,19.8335772 C51.0268869,19.792549 51.1318796,19.7873272 51.2440514,19.7903111 L51.2440514,19.7903111 Z" id="Fill-36"></path>
                    <path d="M54.4905549,20.2102498 C54.3772137,20.1506306 54.2488194,20.0919578 54.1106848,20.0209826 C53.9858323,19.9585244 53.837072,19.8108961 53.757379,19.8033254 C53.4917355,19.788184 53.3872491,20.1582013 53.1251476,20.1544159 C53.0516529,20.0181436 53.0348288,19.8184668 52.9728453,19.6661067 C52.7576741,19.6225753 52.3636364,19.5885072 52.3636364,19.8553739 C52.4920307,19.9367587 52.6956907,19.9329734 52.8205431,20.0181436 C52.7231405,20.0209826 52.7027745,20.1061528 52.6443329,20.1544159 C52.9170602,20.439263 53.5643447,20.3247564 53.7095632,20.7496611 C53.6953955,20.8717384 53.5643447,20.8679531 53.5811688,21.0193668 C53.65732,21.1083224 53.8299882,21.1196784 53.9619244,21.0752006 C54.0858914,21.2152583 54.3108028,21.2417557 54.4427391,21.3742427 C54.5605077,21.3004285 54.6224911,21.1707805 54.6951004,21.0487032 C55.2688902,21.0345082 55.2724321,21.6221827 55.9090909,21.5370125 C55.7638725,21.2673068 55.3007674,21.2266143 55.4043684,20.7789975 C55.2901417,20.4799554 54.892562,20.4203363 54.4905549,20.2102498 L54.4905549,20.2102498 Z" id="Fill-37"></path>
                    <path d="M49.4816857,20.7373104 C49.5719709,20.7237159 49.5984766,20.7835315 49.6953883,20.7617804 C49.7053279,20.6629939 49.6498315,20.6385239 49.6241541,20.5814271 C48.9996123,20.6457743 48.7146755,20.5923027 48.2748457,20.4545455 C48.264906,20.5714579 48.2914118,20.6421491 48.3237156,20.7164655 C48.9449442,20.7092151 49.2779227,21.0173564 49.9090909,20.9992304 C49.876787,20.7907819 49.5819105,20.8687235 49.4816857,20.7373104 L49.4816857,20.7373104 Z" id="Fill-39"></path>
                    <path d="M50.1818182,20.8861544 C50.2727893,21.2146544 50.7477434,21.2446544 50.7265873,20.7571544 C50.544645,20.6641544 50.334142,20.8111544 50.1818182,20.8861544 L50.1818182,20.8861544 Z" id="Fill-40"></path>
                    <path d="M51.2737174,21.2727273 C51.5525841,21.1431098 51.8202144,20.9905512 52.0909091,20.8471691 C51.8437086,20.5558165 51.2451157,20.8334044 51.2737174,21.2727273 L51.2737174,21.2727273 Z" id="Fill-41"></path>
                    <path d="M50.4547056,20.9029105 C50.5837056,20.9734105 50.6827056,21.0724105 50.9227056,21.0319105 C50.9407056,20.8684105 50.8402056,20.8324105 50.7937056,20.7334105 C50.6122056,20.7154105 50.4487056,20.7274105 50.4547056,20.9029105 L50.4547056,20.9029105 Z" id="Fill-42"></path>
                    <path d="M55.9451632,23.2658162 C55.878088,23.2278656 55.7611596,23.2419867 55.7122128,23.189915 C55.6659853,22.8351215 55.3043232,22.7936406 55.1665471,22.587119 C55.0106426,22.3523551 54.9789178,21.9075393 54.6988336,21.780449 C54.6707345,21.5421548 54.5791859,21.1661796 54.3380778,21.3012129 C54.2392778,21.618056 54.4269071,22.2111437 54.2066467,22.4106048 C53.7570616,22.4106048 53.6791093,22.0522809 53.2757517,22.0072698 C53.3219792,21.811339 53.4951058,21.7319076 53.5096085,21.5042043 C53.3854287,21.3700535 53.244027,21.5112649 53.0953739,21.4803749 C52.9929482,21.4556629 52.9675684,21.3594626 52.8615171,21.3524021 C52.695642,21.3426938 52.5750879,21.500674 52.3693302,21.4803749 C52.2388055,21.5977568 52.2034551,21.8042785 52.1608532,22.0108001 C51.9478442,21.9799101 51.8526699,21.786627 51.6686663,21.8351684 C51.5200132,21.873119 51.56896,22.0937618 51.4103362,22.189962 C51.2825308,22.2658631 51.2290519,22.1767235 51.048674,22.2385034 C50.9426227,22.3797148 50.938997,22.6215393 50.8682961,22.7936406 C50.4042083,23.0072228 49.668194,22.9525034 49.4162088,23.3726073 C49.4551849,23.5835417 49.4733134,23.9109756 49.3636364,24.0557173 C49.5331372,24.4625825 49.7207665,24.8517964 49.8304435,25.3169113 C49.7669939,25.3619225 49.6355628,25.3451536 49.6219665,25.4448841 C49.6718197,25.6893563 49.9509975,25.710538 50.2446781,25.7202463 C50.407834,25.517255 50.8755475,25.5031338 51.2045785,25.5446147 C51.5907141,24.9797692 53.1551977,24.7829558 53.3038508,25.6964169 C53.4951058,25.6655269 53.463381,25.4139942 53.665513,25.3928125 C53.7679386,25.4175244 53.7434653,25.5693267 53.7434653,25.6964169 C54.0017954,26.0070819 54.2211494,26.3583452 54.7024592,26.4545455 C54.8338904,26.4377766 54.8302647,26.2930349 54.9616958,26.2753835 C55.1883012,26.6963699 55.4076552,26.0962216 55.7647853,26.3000955 C55.878088,26.231255 55.8001357,26.0997519 55.8427375,25.9479497 C55.9134384,25.6964169 56.1400438,25.5552055 56.2569722,25.3169113 C56.4165024,24.996538 56.490829,24.4934725 56.4373501,24.0795467 C56.392029,23.741522 56.0231154,23.6620906 55.9451632,23.2658162 L55.9451632,23.2658162 Z" id="Fill-43"></path>
                    <path d="M38.4477192,21.5454545 C38.3116071,21.6658487 38.166745,21.7870564 38.1132724,21.9871711 C37.9353545,22.0790937 37.6203524,22.0571299 37.419101,22.1270887 C37.4229899,22.371131 37.555213,22.5077946 37.6125745,22.7079093 C37.2178496,22.9690346 37.266461,23.8646698 37.9470213,23.7092962 C38.4360524,23.5945963 38.1171614,22.6224945 38.5313309,22.3841465 C38.5128585,22.2824623 38.5809146,22.2539907 38.5585533,22.1523064 C38.5993869,22.1108192 38.7481379,22.1588142 38.7248044,22.0603838 C38.6829986,21.8439996 38.6382761,21.6308693 38.4477192,21.5454545 L38.4477192,21.5454545 Z" id="Fill-44"></path>
                    <path d="M54.8520366,26.4843176 C54.8350528,26.5581965 54.8063925,26.6265621 54.8233764,26.7390346 C54.9634932,26.8856898 55.0505354,27.0874786 55.1588075,27.2727273 C55.3244001,27.2561872 55.4071964,27.2561872 55.5239604,27.2429552 C55.5282063,26.9716981 55.6937989,26.7136731 55.6152486,26.4545455 C55.4071964,26.5670179 54.984723,26.5670179 54.8520366,26.4843176 L54.8520366,26.4843176 Z" id="Fill-47"></path>
                    <path d="M61.6971455,5.83211001 C61.6111371,5.86036218 61.6629177,6.0148662 61.5979726,6.05989309 C61.5189854,6.001623 61.6286899,5.92569531 61.6251793,5.86036218 C60.9669522,5.37036369 60.0480672,5.00485131 59.0159672,4.97748202 C58.9238154,5.11521133 59.1291822,5.14258061 59.1160177,5.28030992 C58.886077,5.41539058 58.7930476,5.22910287 58.714938,5.07724748 C58.3200017,5.02515755 57.7407619,5.29796752 57.5862979,4.95276138 C57.5116988,5.00838283 57.6960024,5.0940222 57.6380784,5.12933741 C57.3396822,5.30856208 57.364256,5.02162603 57.1343153,4.85299592 C57.048307,4.79119431 56.8771679,4.71879814 56.7569318,4.70114054 C56.5269911,4.66670821 56.3146032,4.77706823 56.0539453,4.75323046 C55.8555995,4.73557286 55.7081566,4.56341123 55.5019121,4.54928515 C55.4641738,4.27735806 55.1289168,4.30472735 54.8507061,4.27382654 C54.7339805,4.27382654 54.8884445,4.20143037 54.8507061,4.12197115 C54.6655249,4.38065504 54.0590784,4.10431355 53.7466399,4.24645726 C53.695737,4.32150207 53.7501505,4.50160962 53.695737,4.57400579 C53.2604295,4.47688898 52.7426242,4.75676198 52.5916708,4.37006048 C52.4889874,4.34622271 52.5126835,4.51838434 52.4407174,4.44598817 C52.3792828,4.30472735 52.3485656,4.13609724 52.289764,3.99042201 C52.2142872,4.25263742 52.5161941,4.42921345 52.4170212,4.72232966 C52.3582196,4.75676198 52.1765489,4.79825735 52.1388105,4.77353671 C51.8474354,4.69054597 52.019452,4.13609724 51.8649881,3.9153772 C51.590288,3.88712503 51.3506933,3.82532342 51.0628287,3.81472886 C50.9803309,4.04604346 50.784618,4.16346652 50.5625761,4.1422774 C50.3870489,4.1290342 50.2738338,3.93568344 50.0614459,3.89065655 C49.6744083,3.80766582 49.2768392,3.89065655 48.9099873,3.81472886 C48.9029662,3.73880117 48.9889745,3.71849492 48.9336834,3.66287347 C48.7757089,3.92508888 48.3579542,3.92508888 48.0797435,4.0663497 C48.2306969,3.79442262 48.8546962,3.6840626 49.1838097,3.48718032 C49.2864932,3.42537871 49.4277926,3.3282619 49.433936,3.21172172 C49.4620204,2.7632186 48.7037428,2.74202947 48.2552707,2.88417318 C48.1455662,2.83561477 48.1420557,2.67669634 47.9770601,2.68022786 C48.0288406,2.60783169 48.0218195,2.57693089 48.0016339,2.47716543 C47.692706,2.39770621 47.3978202,2.54249856 47.2231707,2.68022786 C47.2161496,2.75968708 47.2398457,2.86651558 47.1994745,2.90801094 C46.9967405,2.87711014 46.8256015,3.04220873 46.5956608,3.08370409 C46.4411969,3.11107338 46.2595262,3.06692937 46.0954082,3.08370409 C45.8479149,3.10754186 45.529333,3.239091 45.2932488,3.25939724 C45.2142616,3.26646029 45.1212322,3.24262252 45.0668187,3.25939724 C44.8509202,3.3282619 44.6824141,3.6081349 44.6411652,3.7908911 C44.1856721,3.70436884 43.5581622,3.78735958 43.6371495,4.19436733 C43.6748878,4.36652896 43.8706007,4.36652896 44.0654359,4.42215041 C43.8012674,4.6181498 43.4344155,4.33562815 43.2632765,4.19436733 C43.1807787,4.20496189 43.1158336,4.23233117 43.1368969,4.34622271 C42.9955975,4.31532191 42.9754119,4.40096128 42.9613697,4.4980781 C42.9719013,4.62874436 43.1711247,4.57400579 43.2395803,4.64993349 C43.0816058,4.75676198 42.9209984,4.65258213 42.7867201,4.59784356 C42.8349901,4.42568193 43.0166607,4.17670972 42.7867201,4.0663497 C42.7287961,4.09460187 42.7761885,4.22526813 42.7630239,4.29413278 C42.444442,4.31532191 42.502366,4.66317669 42.6392772,4.8494644 C42.6296232,4.99425675 42.4848133,5.05605836 42.5128976,5.17701294 C42.5848638,5.49749843 43.3966772,5.07724748 43.1913103,5.58048917 C43.105302,5.44629138 42.9754119,5.35976913 42.7147539,5.40479602 C42.663851,5.8771369 42.4751593,6.20821696 41.860814,6.11198302 C42.0907546,5.98749692 42.4505855,5.92922683 42.4883238,5.60874133 C42.4988554,5.51515604 42.4339104,5.48072371 42.4128471,5.38095825 C42.3689653,5.13551757 42.4883238,4.73557286 42.2627713,4.62168132 C42.3031426,4.47688898 42.4374209,4.42568193 42.4883238,4.29413278 C42.4102142,4.10431355 42.1179614,4.1290342 41.8888983,4.09460187 C41.75462,4.35681728 41.5220464,4.51485282 41.3368652,4.72586118 C41.3500298,4.88036521 41.4807975,4.91832905 41.4360381,5.12933741 C41.4843081,5.30149904 41.7274133,5.27412975 41.6896749,5.53281364 C41.4807975,5.49484979 41.3333547,5.25647215 41.0867389,5.18054446 C40.884005,5.11874285 40.6575749,5.12227437 40.4592291,5.05605836 C40.2740479,4.99072523 40.1230945,4.83886984 39.9589765,4.93245514 C39.9177276,5.09755372 40.2055923,5.13198605 40.3082757,5.23616591 C40.2942335,5.3253368 40.2977441,5.42510226 40.2564952,5.48778675 C40.1055418,5.51162452 40.1406472,5.35270609 40.0309427,5.33593137 C39.6842764,5.35623761 39.4306396,5.47366067 39.1770027,5.58755221 C39.15945,5.48072371 39.25599,5.48425523 39.2524794,5.38448977 C38.8513997,5.35976913 38.556514,5.65994838 38.1484132,5.71203831 C38.0729365,5.79149753 38.1896621,5.83917305 38.1721094,5.93893851 C37.9904387,5.99102844 37.7956035,6.00868604 37.7473335,5.81533529 C37.8535275,5.83211001 37.9430464,5.7394076 37.9491898,5.58755221 C37.7920929,5.51162452 37.5103718,5.45335443 37.3734605,5.43569682 C37.4287516,5.66701142 37.5691734,5.81180377 37.5481101,6.11904606 C37.1882793,5.95659611 37.1128026,6.25324385 36.7705245,6.24264928 C36.7775456,6.38744163 36.8767185,6.43953156 36.8969041,6.57019782 C36.6573095,6.64612551 36.5300522,6.42187395 36.2939681,6.41834243 C36.1667109,6.60463015 36.4615966,6.69821544 36.4449215,6.77061162 C36.238677,6.7847377 36.1289725,6.70174696 35.9920613,6.64612551 C36.0842131,6.20821696 35.7384244,6.19497376 35.5909816,5.93893851 C36.0640274,6.08726238 36.7529718,6.4598378 37.0715537,5.93893851 C37.0136297,5.79767769 36.8732079,5.57342613 36.6950478,5.48425523 C36.6301027,5.44982291 36.4958244,5.47012915 36.393141,5.4321653 C36.2079598,5.36683217 36.0570063,5.18407598 35.741935,5.30856208 C35.6392516,5.18407598 35.3917582,5.10108524 35.2416824,5.10461677 C35.1723491,5.03575211 35.2653786,4.98101354 35.2653786,4.90508585 C35.0661552,4.80443751 34.7581049,4.66317669 34.5386959,4.80443751 C34.4360124,4.81503207 34.497447,4.65964517 34.3877425,4.68083429 C34.181498,4.67730277 34.1095318,4.87683369 33.911186,4.80443751 C33.7602326,4.8185636 33.7189837,4.97748202 33.585583,5.03222059 C33.4758785,5.07724748 33.3389673,5.03928363 33.2318957,5.08431052 C33.1195583,5.12933741 33.0607566,5.24940911 32.9580732,5.28737296 C32.8825965,5.3120936 32.8106304,5.28737296 32.7316431,5.3120936 C32.5368079,5.37742673 32.3683018,5.49484979 32.2068167,5.56371445 C32.2621078,5.65288534 32.3919979,5.6634799 32.5332973,5.6634799 C32.4402679,5.81886681 32.2893145,5.87007386 32.2068167,6.01839772 C32.1760994,6.07401917 32.1901416,6.17025311 32.1559138,6.22234304 C32.0567409,6.37772995 31.8373319,6.41834243 31.805737,6.62581927 C31.4362522,6.96749389 30.6367257,7.08756559 30.9281009,7.93601342 C30.9526747,8.03666176 30.8877296,8.04990496 30.8535018,8.0878688 C31.0246409,8.52224584 31.6381085,8.28121956 31.805737,8.01194111 C32.025146,8.26003043 32.0532304,8.70500203 32.2585972,8.97074896 C32.4815168,8.95044272 32.5429513,8.76768652 32.7869342,8.76768652 C32.934377,8.5019396 32.8931281,8.17439106 33.2389168,8.08433728 C33.2766551,7.80534716 33.1537861,7.68439257 32.9378876,7.65702329 C32.9852799,7.19086257 33.2906973,6.98780013 33.6163003,6.7979809 C33.6399965,6.61875623 33.7330259,6.51192773 33.7909499,6.37066691 C33.9655995,6.3530093 34.0928567,6.28414465 34.2920801,6.29473921 C34.2508312,6.67437768 33.8286882,6.71852169 33.691777,7.02576398 C33.7672537,7.26325874 33.6812454,7.65702329 33.8155237,7.83271644 C34.1850085,7.87774333 34.3535146,7.7188249 34.5931093,7.62965401 C34.6791176,7.68086105 34.7545944,7.7364825 34.8678094,7.75325723 C34.9704928,7.72941946 34.9740034,7.60846488 35.0187628,7.52547415 C35.2513364,7.76385179 34.8265605,7.85037404 34.7405522,8.00487807 C34.5659026,7.88833789 34.1788651,7.92277022 33.9901733,8.00487807 C33.9796417,8.19822882 34.1068989,8.25738179 34.1648229,8.38451654 C34.1095318,8.47103879 34.1446372,8.65026346 34.0138695,8.66085802 C33.9419033,8.58757897 33.9278611,8.46044423 33.9383928,8.30858884 C33.6610597,8.43307495 33.5610092,8.73590284 33.4864102,9.0669829 C33.3319462,9.21883828 33.0712883,9.1022981 32.8589003,9.14291059 C32.6974153,9.17469427 32.618428,9.31242358 32.4815168,9.31948662 C32.2419221,9.07051442 31.9470364,9.44308984 31.7548341,9.21883828 C31.7715092,9.00871281 32.025146,9.03961361 32.0804371,8.86745198 C31.960201,8.71206507 31.7679986,8.62554282 31.7548341,8.36421029 C31.5556107,8.38098502 31.4941762,8.53637192 31.3537544,8.61583114 C31.3432228,8.87804654 31.4529273,9.02283889 31.5556107,9.17116275 C31.5047078,9.4227836 31.2712566,9.29476598 31.1036281,9.3468559 C30.9974341,9.38128823 30.9149363,9.54373818 30.8017213,9.65056668 C30.5682701,9.87128672 30.2874265,9.92249376 30.2496882,10.2571053 C30.1434942,10.3471591 29.9890302,10.32597 29.8486085,10.3815914 C29.6599167,10.4575191 29.5537227,10.6155547 29.2456724,10.4813569 C29.1386008,10.7709416 29.4545498,10.8398062 29.6704483,10.8848331 C29.8108701,11.0569948 29.8345663,11.4710656 29.6704483,11.6158579 C29.2044236,11.6953171 28.7656055,11.4225071 28.4672092,11.6405785 C28.4803738,11.8780733 28.6006099,12.0502349 28.5663821,12.2471172 C28.5461965,12.3610087 28.4119181,12.4095672 28.3917325,12.5234587 C28.3645258,12.6779627 28.4672092,12.7265211 28.4672092,12.9022143 C28.5698926,12.9295836 28.713825,12.9746105 28.8165084,12.9269349 C28.9025167,13.0196373 28.9569302,13.1370604 29.0429385,13.2297628 C28.8542467,13.3268796 28.7480528,13.5061043 28.665555,13.7091667 C28.404897,13.7683197 28.2951925,13.9749137 28.2135724,14.2132913 C28.2135724,14.3130568 28.2372686,14.392516 28.2890491,14.4401915 C28.1451168,14.6097045 27.9529144,14.723596 27.7124422,14.7959922 C27.5649993,14.9063522 27.5105858,15.1615046 27.3596324,15.4025309 C27.1884934,15.6788724 26.7944348,15.9825831 27.1332023,16.2377355 C27.1577761,16.454924 27.2332528,16.7409772 27.1095061,16.8928326 C26.9998016,17.4305066 27.3254046,17.5443981 27.5377926,17.8516404 C27.7914294,18.2206843 28.1688129,18.834286 28.4400025,18.886376 C29.0841874,19.0135107 29.9758657,18.8448806 30.4208272,18.5826652 C30.6814851,18.6170975 30.8122529,18.7760159 30.9491641,18.9340515 C31.1720837,18.9552406 31.42221,18.9481776 31.576674,19.0346998 C31.6618047,19.3860861 31.4257206,19.5238154 31.4257206,19.7657246 C31.4257206,20.1762639 31.9566904,20.2963356 31.9259731,20.7245324 C32.2445551,20.8313609 32.0663949,21.4414311 32.2515761,21.6833403 C32.0804371,21.9420242 31.8575175,22.3861129 31.9259731,22.7931206 C31.9707326,23.0765252 32.2550867,23.321083 32.3270529,23.6283253 C32.3577701,23.7589915 32.3235423,23.9037839 32.3516267,24.0318015 C32.4674746,24.5968448 32.879086,24.949114 32.9782589,25.3455272 C33.0537356,25.6421749 32.9887905,25.8487689 33.2292628,25.9008588 C33.3968913,25.9352911 33.846241,25.8523004 34.0586289,25.8249311 C34.8774634,25.7251656 35.2478258,25.1318702 35.6392516,24.5147369 C35.6699688,24.3628816 35.5602643,24.35935 35.5637748,24.2383955 C35.9095635,24.2110262 36.1395041,23.5868299 35.864804,23.3316775 C36.1052763,22.8558051 36.7871996,22.7931206 36.8933936,22.2210143 C36.9416636,21.9552674 36.8144063,21.7654481 36.767014,21.4899895 C36.7152334,21.1756842 36.8047523,20.8446041 36.6915373,20.5311817 C36.9249885,20.3033986 37.0338153,19.9926248 37.2435704,19.748067 C37.3567854,19.6138692 37.5384561,19.5547162 37.6683463,19.4443562 C38.1896621,19.0170422 38.4915689,18.4617106 38.6486658,17.6512266 C38.3028772,17.6441636 37.6446501,18.0202705 37.2944733,17.7033166 C37.2672666,17.2963088 36.8082629,17.2239126 36.6160606,16.9202019 C36.5818327,16.8619318 36.5818327,16.7542204 36.5405838,16.668581 C36.5028455,16.5926533 36.4106937,16.5237887 36.3896304,16.4646357 C36.3246854,16.3066002 36.3387275,16.175051 36.2667614,16.0373217 C36.2079598,15.9304932 36.1017658,15.8342593 36.0403313,15.7097732 C35.8928884,15.4095939 35.8683146,15.0440815 35.6629477,14.7748031 C35.693665,14.7959922 35.7314033,14.8092354 35.790205,14.7995237 C36.0947447,14.3059937 35.6629477,14.0993998 35.213598,14.1161745 C35.0565012,14.1232375 34.8985267,14.2441921 34.7888222,14.2441921 C34.7098349,14.2406606 34.6378687,14.1576699 34.5141221,14.1161745 C34.391253,14.0782106 34.2402996,14.0993998 34.1376162,14.0649674 C33.9182071,13.9961028 33.7295154,13.7683197 33.3863596,13.9404813 C33.3319462,14.0402468 33.3933807,14.119706 33.3863596,14.2441921 C33.3108829,14.2953992 33.2187311,14.3298315 33.1845033,14.4198853 C33.0124867,14.3474891 32.9686049,14.1470753 32.7079469,14.1682644 C32.6807402,13.692392 31.9847748,14.002283 31.7785303,13.7400675 C31.854007,13.4575459 31.6828679,13.2924473 31.7030536,13.0576012 C31.2852988,13.0161058 30.8535018,13.0196373 30.3734349,13.081439 C29.8863468,13.1441234 29.6467522,13.6473651 29.1184152,13.3339427 C29.1289468,13.1750243 29.2246092,13.1026281 29.2930648,13.0055113 C29.6871234,13.095565 29.9240852,12.8642504 30.0952242,12.654125 C30.1092664,12.5402334 30.0820597,12.4643057 30.071528,12.3777835 C30.1847431,12.0881988 30.6165401,12.1190996 30.5989873,11.6953171 C30.9184469,11.6644163 31.2782777,11.8021456 31.5047078,11.4922547 C31.7337708,11.5125609 31.8882348,11.6123264 31.9057875,11.843641 C32.1383611,12.0467034 32.4744957,12.1473518 32.6833731,12.3751348 C32.6737191,12.4952065 32.7009258,12.5746657 32.7588498,12.6267557 C32.6254491,12.7812597 32.1901416,12.5022696 32.1559138,12.7786111 C32.2550867,12.9295836 32.5192552,12.9163404 32.5806897,13.1061596 C32.6526559,12.7503589 32.9510521,12.7750795 32.9062927,12.2992071 C33.0098538,12.3230449 33.1704612,12.3919096 33.2836762,12.3230449 C32.8483687,12.0502349 32.2138378,11.8542355 32.2550867,11.1885439 C32.6807402,11.3262732 32.821162,11.747407 33.25998,11.8710103 C33.1599295,12.4749003 33.6812454,12.654125 33.8120132,13.1096911 C34.2060718,12.978142 33.8839793,12.5367019 33.9866627,12.2506487 C34.1990507,12.278018 34.3192868,12.2162164 34.4632192,12.174721 C34.4456664,12.7300527 34.7308982,12.9816735 35.1416319,13.1096911 C35.5084838,13.0717273 35.8340868,13.0125743 36.1939176,13.0337634 C36.2009387,13.1264658 36.1324831,13.361312 36.2184914,13.4884467 C35.9200951,13.6367706 36.238677,14.3368945 35.9920613,14.5752722 C36.115808,14.9134153 36.3755883,15.1888739 36.5440944,15.53408 C36.6845162,15.8166017 36.6678411,16.0955918 36.9688703,16.1891771 C37.0548786,16.4134287 37.2023215,16.5749957 37.3190471,16.7683465 C37.3427433,16.9749404 37.2777982,17.1788857 37.3190471,17.3236781 C37.7060846,17.6026682 38.8206825,17.0720572 39.0743193,16.7683465 C39.1840238,16.7860041 39.2147411,16.7268511 39.3244456,16.7445087 C39.5675508,16.5855903 39.704462,16.3163118 40.0028583,16.2130149 C39.9861832,15.9163671 40.1538117,15.8130702 40.2529846,15.6338455 C40.126605,15.4510893 39.8694576,15.3954678 39.7018291,15.254207 C39.694808,15.1685676 39.7220148,15.0511446 39.6772553,15.0025862 C39.427129,15.2268377 38.940041,15.6718093 38.6767502,15.2303692 C38.6591974,15.1341353 38.6556869,15.1270723 38.7004463,15.0546761 C38.6390118,14.923127 38.5187757,14.8471993 38.3748433,14.8030553 C38.3160417,14.6582629 38.2958561,14.4781554 38.1001432,14.4746238 C38.1896621,14.1373636 38.6425223,14.3024622 38.7522269,14.4993445 C38.7618809,14.9575593 39.3481418,15.0582076 39.704462,14.8789829 C39.7737953,14.9513791 39.7834493,15.0820454 39.8554155,15.1544416 C40.3907735,15.1650361 40.7918532,15.2824592 41.2850847,15.1544416 C41.4395486,15.2197747 41.4255065,15.4510893 41.535211,15.5579178 C41.6449155,15.5852871 41.8169322,15.5411431 41.9362907,15.6100077 C41.9880712,15.6921156 41.860814,15.7751063 41.8371178,15.8616286 C41.9608645,16.0788171 42.2557502,15.8819348 42.4409315,15.8616286 C42.2311764,16.7683465 42.8112939,17.4958397 43.0684413,18.186252 C43.5072593,18.0652974 43.8767441,17.6097313 43.6678667,17.0755888 C43.8907863,16.6924188 44.4533511,16.3922395 44.7956292,16.064691 C44.9088442,15.961394 44.991342,15.7821693 45.1212322,15.7618631 C45.5188013,15.6991786 45.7522525,16.057628 46.0234421,16.2651048 C45.9927248,16.565284 46.0673239,16.7577519 46.1463111,16.9440396 C46.3622096,16.9820035 46.3525556,16.6924188 46.4719141,16.6924188 C46.6509519,16.6924188 46.8080488,17.2477504 46.8975677,17.3996058 C46.8765044,17.5029028 46.7088759,17.9478744 46.7229181,18.1067928 C46.7360826,18.2586482 46.9177533,18.296612 47.0002511,18.4855484 C47.0309683,18.5552959 47.0072722,18.6409353 47.0239473,18.6894937 C47.1512045,19.0311683 47.4768075,19.4169869 47.7787143,19.3445908 C47.8024105,19.0965014 47.4908497,18.9684838 47.6549676,18.7380521 C47.4873391,18.5861967 47.3398963,18.4166837 47.0757278,18.3584136 C46.9423271,18.0202705 47.0002511,17.6026682 47.0002511,17.2715882 C47.4873391,17.3819482 47.692706,17.7721812 47.8778872,18.1827205 C48.0455157,18.0652974 48.189448,17.9823067 48.3307474,17.8551719 C48.5431354,17.6582897 48.7449917,17.3545789 48.6080804,16.9722918 C48.5255827,16.7374457 48.1008068,16.6032479 48.0797435,16.3922395 C48.0595579,16.1856456 48.3202158,16.0028894 48.3579542,15.8616286 C48.8450422,15.8819348 49.1943414,15.7892324 49.5611933,15.6576832 C49.8042985,15.5720439 50.0166864,15.5720439 50.1641293,15.4060624 C50.2676903,15.2886393 50.4212767,14.937253 50.565209,14.7748031 C50.6582384,14.6715061 50.7784746,14.6097045 50.7916391,14.5231822 C50.8056813,14.4163537 50.6924662,14.282156 50.66877,14.1717959 C50.6029473,13.8954545 50.6064579,13.5166989 50.3905594,13.3648435 C50.449361,13.1785558 50.66877,13.1538351 50.8162129,13.0611327 C50.8600947,12.7538904 51.052297,12.5923233 51.2172926,12.4060356 C51.3612249,12.4952065 51.1892083,12.668251 51.2409888,12.7847912 C51.3024233,12.867782 51.4779505,12.8298181 51.5665918,12.8854396 C51.5560602,13.0646642 51.4568873,13.3162851 51.5665918,13.4646089 C51.5937985,13.4610774 51.6113512,13.471672 51.6183723,13.4884467 C51.8614775,13.4990413 51.9887348,13.3922128 52.0949287,13.2606636 C52.1563633,12.8024488 51.8790303,12.6885573 51.7930219,12.3777835 C51.8992159,12.3504142 51.9746926,12.2921441 52.0949287,12.278018 C52.2046333,12.2056218 52.1563633,12.0608295 52.2177978,11.9743072 C52.3415445,11.8162717 52.509173,11.8674787 52.7698309,11.7986141 C52.9857294,11.740344 53.2332228,11.4887232 53.4210369,11.2194447 C53.5860325,10.9810671 53.8256272,10.6605816 53.8975933,10.4645822 C53.9660489,10.2809431 53.9423528,10.1158445 53.97307,9.98517826 C54.0037873,9.86422367 54.1134918,9.70177373 54.1003273,9.58170203 C54.0731205,9.32301814 53.7466399,9.19500052 53.4456107,9.3291983 C53.3323957,9.27799125 53.26394,9.17469427 53.1200077,9.15350515 C53.2428768,8.93984815 53.4622858,8.84626286 53.6720408,8.65026346 C53.8256272,8.5019396 53.9836017,8.20529187 54.1722934,8.11876961 C54.404867,8.01194111 54.7032633,8.08433728 55.0499295,8.04284192 C55.0736257,8.16732802 54.9814739,8.17792258 54.9744528,8.270625 C55.0981995,8.26356196 55.0701152,8.09846337 55.1254062,8.01900415 C55.4957687,7.78768955 55.9003589,8.24678723 56.3286454,8.01900415 C56.4006115,7.58462712 56.7060289,7.38774484 57.1825853,7.36390708 C57.2571844,7.44336629 57.1413364,7.47073558 57.1580115,7.56696951 C57.4186694,7.69145562 57.5696228,7.44954645 57.6617746,7.41511413 C57.5046778,7.63936569 57.144847,8.07109408 57.5116988,7.69145562 C57.5898085,7.6119964 57.6582641,7.57050103 57.6863484,7.4875103 C57.7372513,7.37715028 57.6723063,7.15643024 57.8882047,7.21205169 C57.9847447,7.49810486 57.7100446,7.60140184 57.5116988,7.79122107 C57.3431927,7.95367102 57.2440198,8.14967042 57.1106191,8.21941795 C57.0316319,8.26003043 56.9315814,8.25031875 56.8596152,8.29446276 C56.3769153,8.60170505 56.4348393,9.37422519 56.558586,10.0602231 C56.9833619,9.97458369 57.1922393,9.67440444 57.3124754,9.27799125 C57.3984838,9.2223698 57.5283739,9.20559508 57.6143823,9.14997363 C57.593319,8.78446125 58.0189725,8.46750727 57.6143823,8.29181412 C57.7995635,7.98104031 57.9294536,7.90511261 58.3164912,7.8124102 C58.3752928,7.79828411 58.4402379,7.74001402 58.4920184,7.7364825 C58.6701785,7.7188249 58.8070898,7.84684252 58.9685748,7.83624796 C59.1502455,7.8256534 59.3047094,7.57403256 59.4960341,7.4566095 C59.7979409,7.27032178 60.0691305,7.16349328 60.4254508,7.25707858 C60.6518809,7.05666479 60.4631891,6.64259399 60.1990206,6.62581927 C60.3464635,6.53929702 60.5965898,6.55695462 60.7747499,6.49780165 C60.8502266,6.41216227 60.6720665,6.26030689 60.723847,6.19497376 C60.9221928,6.28061313 61.0696357,6.41834243 61.3513569,6.42187395 C61.4435086,6.58079238 61.6111371,6.66378312 61.7761327,6.74942249 C61.9507823,6.72205321 61.9472718,6.51899077 62.026259,6.39450467 C62.1666808,6.35654082 62.3106131,6.32564002 62.4545455,6.29473921 L62.4545455,6.21881152 C62.2351364,6.04664989 61.9920312,5.91156923 61.6971455,5.83211001 L61.6971455,5.83211001 Z" id="Fill-48"></path>
                    <path d="M24.1205799,20.3815897 C23.7708,20.4496939 23.6671944,20.0506731 23.4112795,19.9825689 C23.220893,19.9310542 23.0065974,20.0305911 22.8303792,19.8839051 C22.6886963,19.87692 22.6886963,20.0096359 22.5496698,20.0096359 C22.5532119,19.9450243 22.650619,19.9720913 22.650619,19.9074796 C22.5496698,19.7782563 22.2698459,19.6071226 22.0688332,19.6350628 C21.9032412,19.6551448 21.9032412,19.8219128 21.7403058,19.8358829 C21.8067197,19.7503161 21.9448606,19.7372191 21.9687696,19.6106151 C21.9032412,19.5259214 21.7615582,19.5154438 21.6641512,19.4604366 C21.7057706,19.2456464 21.609249,19.1644452 21.487933,19.1129305 C21.464024,19.0142667 21.5437207,18.9662445 21.487933,18.9112372 C21.3639604,18.7208947 21.1974829,18.5331716 20.9309418,18.4886419 C20.6511179,18.4441122 20.3739505,18.5331716 20.1977323,18.3384634 C20.2703448,18.1481208 20.0321403,18.0791435 19.8931139,18.0145318 C19.8169593,18.0145318 19.7655992,18.0381063 19.7416902,18.089621 C19.6823605,18.0381063 19.8382118,17.9839722 19.8169593,17.8888009 C19.7859662,17.8032341 19.6168321,17.8512563 19.5406775,17.8137117 C19.5229671,17.7386224 19.5645865,17.7211598 19.5645865,17.6635332 C19.3742,17.5849514 19.2121501,17.7045703 19.1085444,17.7857715 C18.969518,17.6836152 18.8145522,17.7587044 18.6516168,17.7115554 C18.4408633,17.6495631 18.28147,17.3666686 18.0184709,17.6364661 C17.9254915,17.7656895 18.0946255,17.8818159 17.9945619,17.9603977 C17.7802664,17.8643533 17.998104,17.5133546 18.1220766,17.4347729 C17.9706529,17.3256315 17.8493369,17.5238322 17.6934856,17.5849514 C17.5721696,17.6329736 17.4340286,17.5884439 17.3375071,17.6600406 C17.1984807,17.7656895 17.2161911,17.9839722 17.0851343,18.082636 C16.9044885,17.8888009 16.4900658,17.8748308 16.2748847,18.0319944 C15.8356675,17.8922935 15.8427516,17.4382654 15.9463573,16.9335957 C15.7736812,16.7319025 15.3070129,16.8515214 15.0333876,16.8104842 C15.0820911,16.715313 15.1334512,16.6262536 15.1095422,16.4594856 C15.2583093,16.3127996 15.2760197,16.0395096 15.361915,15.835197 C15.1892389,15.7120855 14.8607115,15.835197 14.7048602,15.8867117 C14.6428739,15.981883 14.6632408,16.1591286 14.5800021,16.2342178 C14.3205451,16.3363741 14.0168122,16.3913814 13.770638,16.2577924 C13.5634267,15.9783905 13.3349629,15.4056166 13.5944198,15.0336628 C13.5837936,14.9210289 13.5492584,14.8293502 13.5430597,14.7097312 C13.7502711,14.6110674 13.8432506,14.4093742 14.0991654,14.3587326 C14.4560295,14.2906284 14.8571694,14.5936048 15.0130207,14.2356211 C15.4212448,14.1404499 15.5629278,14.4338219 15.8498358,14.3107104 C16.0747575,14.5525677 16.0782996,15.0196927 16.3545814,15.2109084 C16.8221353,14.907932 16.2058143,14.4739859 16.3032213,13.9867788 C16.5901294,13.6968994 16.9602762,13.4856017 17.2648946,13.2123117 C17.2091069,12.9433874 17.0116363,12.8682981 17.0877909,12.6395378 C17.1984807,12.5443665 17.1223261,12.7897163 17.2161911,12.7897163 C17.5721696,12.6019932 17.5208095,12.0082641 18.1539553,12.0903385 C18.2265678,11.967227 18.1327029,11.8179216 18.1539553,11.6677431 C18.2991804,11.5341541 18.5896305,11.5446316 18.7623066,11.4424753 C18.8180943,11.2407821 18.5896305,11.0294844 18.662243,10.8181867 C18.8836227,10.7361124 19.1634465,10.7125379 19.2431432,10.4942551 C18.780017,10.3301065 18.3850757,10.6610231 18.1539553,10.893276 C18.1743222,10.4567105 18.6932361,10.5108446 18.8384612,10.1938981 C19.2670522,10.1292864 19.5822969,10.2759724 19.9001981,10.2174726 C20.159655,10.1703235 20.3429574,9.8498845 20.7370132,9.86996651 C20.7024779,9.68922841 20.6644006,9.6211242 20.6617441,9.44737114 C20.6165826,9.34434169 20.4988087,9.46046811 20.4332803,9.39585642 C20.4084858,9.27274496 20.2915973,9.31727464 20.3810347,9.19503631 C20.2597186,9.15399915 20.1773654,9.07890989 20.0002617,9.09549938 C19.9276491,8.966276 19.754973,8.93920894 19.6717342,8.82308253 C19.7275219,8.46509885 19.3467489,8.1813313 19.1908976,7.87486235 C18.9766021,7.89843688 18.9526931,8.10362265 18.8623702,8.25030864 C18.7516804,8.25642056 18.6551588,8.28086823 18.5586373,8.30095024 C18.4922234,8.1813313 18.3779915,8.11322709 18.305379,8.0005932 C18.2885541,7.87486235 18.3195473,7.79977309 18.3576246,7.72817635 C18.1504132,7.67666163 17.904239,7.37979711 17.6244152,7.30208846 C17.5278936,7.27764079 17.3437057,7.31867795 17.1949386,7.30208846 C17.0328887,7.28462584 16.8912057,7.18945457 16.8150511,7.37717772 C16.953192,7.69063172 16.9602762,8.0005932 16.7149875,8.20228644 C16.9390237,8.39699464 17.2232752,8.62138929 16.9912693,9.00032811 C16.9080306,9.09200686 16.6866509,9.04835031 16.5865873,9.12343957 C16.6866509,9.40284147 16.9009464,9.94854829 16.4865237,9.92148124 C16.2128984,9.90401862 16.0747575,9.45348306 16.1819053,9.12343957 C16.026054,8.96976853 15.7843074,9.05446223 15.6010051,9.02390264 C15.2618514,8.96278348 15.0572966,8.69997107 14.81555,8.57424022 C14.6251635,8.53320306 14.4870226,8.65893392 14.386959,8.62488181 C14.3657066,8.35595749 14.1930304,8.23284603 14.006186,8.12719718 C13.9751928,7.55791582 14.3205451,7.35622258 14.6906919,7.178977 C14.7119443,7.0803132 14.6526146,6.99474637 14.6906919,6.95370922 C14.8987888,6.90568702 15.220232,6.8515529 15.3238377,6.62977765 C15.3654571,6.50404679 15.2060637,6.50404679 15.2724776,6.43245006 C15.3893661,6.38093533 15.503598,6.32942061 15.5248505,6.18273461 C15.8772869,6.12860049 16.1615384,6.27179397 16.3342145,6.00898156 C16.3377566,5.85531052 16.2306088,5.81165397 16.2058143,5.68504998 C16.4413622,5.57940114 16.0818417,5.32008126 16.2580599,5.13585063 C16.3962008,5.1969698 16.54851,5.21093989 16.6388329,5.25896209 C16.690193,5.23451443 16.6937351,5.16291769 16.690193,5.08520904 C16.831876,5.13585063 16.8531284,5.30611116 17.094875,5.25896209 C17.1223261,5.36810346 17.0089797,5.3410364 17.0187204,5.43271515 C17.1161275,5.4877224 17.2710932,5.48422987 17.3233388,5.58289367 C17.2958877,5.64750535 17.18874,5.63091587 17.094875,5.63353526 C17.0435149,5.71560957 16.9983535,5.80466892 16.9948114,5.9338923 C16.9948114,6.01596661 17.1364944,5.96095936 17.1710296,6.00898156 C17.333965,5.88936262 17.2923457,5.59337124 17.5757116,5.66147545 C17.852879,5.72957966 17.7625561,6.2613164 17.3472478,6.2106748 C17.330423,6.33989818 17.5721696,6.30584607 17.475648,6.43506945 C17.3029719,6.57913605 16.811509,6.41149491 16.8185932,6.73542649 C17.0151783,6.90568702 17.3162547,6.74939658 17.5518026,6.81051575 C17.7970913,6.87163491 17.9077811,7.15889499 18.0839993,7.26105131 C18.4576882,7.24358869 18.6657851,7.51687867 18.969518,7.48631908 C18.8623702,7.26803635 18.6206236,7.18246952 18.5409269,6.93711973 C18.686152,6.95370922 18.7968418,7.21652163 19.0217636,7.23660364 C19.1120865,7.22350668 19.0740092,7.08729825 19.1979818,7.11436531 C19.2050659,6.62977765 18.6277078,6.59921806 18.6170815,6.21416733 C19.0013966,6.08756334 19.0527567,6.50055427 19.3015875,6.58874049 C19.4645229,6.43245006 19.6203742,6.27179397 19.7824241,6.1146304 C19.6336569,5.84570607 19.1182851,5.93738482 18.949151,5.69203503 C18.7383976,5.69902008 18.5754622,5.66496797 18.4922234,5.49034179 C18.5931725,5.38120042 18.7968418,5.37508851 18.8455454,5.21443242 C18.7419397,5.098306 18.5373849,4.97868707 18.3399142,5.04067936 C18.28147,4.92455295 18.2159416,4.81191906 18.1362449,4.71674779 C17.8041754,4.63467348 17.4269445,4.60062138 17.2994298,4.31772696 L17.1223261,4.31772696 C17.1435785,4.20858559 17.0674239,4.14659329 17.1471206,4.11603371 C16.7353544,3.98331781 15.9428153,3.8671914 15.6284561,4.14048138 C15.6665334,4.38233864 15.6559072,4.43647276 15.5762105,4.638166 C15.2512252,4.40591318 15.4380696,4.06539212 15.7533143,3.96236267 C15.5726685,3.90473603 15.2857604,3.88727341 15.0953739,3.98681033 C14.8226342,4.13000381 14.5667193,4.91058285 15.1201684,4.81191906 C15.1272526,4.90709033 14.9607751,4.83898612 14.9156136,4.88700832 C15.0227614,5.1122761 15.4726049,5.00662726 15.5726685,5.23800695 C15.5354767,5.54884156 15.4239013,6.00199651 15.1166264,5.88674323 C15.098916,5.74616915 15.1715285,5.69203503 15.21669,5.60996073 C15.1299091,5.35064084 14.8297183,5.39866304 14.7119443,5.58638619 C14.7154864,5.38120042 14.6251635,5.27205906 14.4595715,5.23451443 C14.5144737,4.82239663 14.2656429,4.70976274 14.1027075,4.51156202 C14.1443269,4.43298024 14.1788621,4.35177906 14.2275656,4.28629424 C14.5011909,4.34828654 14.6844933,4.14659329 14.7845569,3.96236267 C14.5357261,3.73796802 13.8370519,3.77202013 13.72282,4.08896665 C13.770638,4.31423443 13.9539404,4.38233864 13.8990382,4.56307675 C13.8503347,4.72635223 13.5430597,4.77088191 13.5705108,5.03718684 C13.6670323,5.20744737 13.9503983,5.1943504 14.1027075,5.30960369 C14.1824042,5.51828198 14.030095,5.58987871 13.8990382,5.66147545 C13.8609609,5.76013924 13.8990382,5.92690725 13.770638,5.9338923 C13.7051097,5.83173598 13.7192779,5.64750535 13.6705744,5.58638619 C13.7954326,5.56892357 13.888412,5.51828198 13.9229472,5.41263314 C13.7741801,5.33405135 13.6156723,5.26594714 13.4943562,5.16291769 C13.4075754,5.32008126 13.1658288,5.32357378 13.0896742,5.4877224 C13.1445764,5.5724161 13.3075118,5.55582661 13.4182016,5.58638619 C13.3836664,5.67806494 13.3349629,5.7531542 13.2658924,5.81165397 C12.7673454,5.8011764 12.414909,5.83872103 12.15191,5.53836399 C12.2803102,5.49034179 12.5875851,5.67806494 12.7328102,5.53836399 C12.7646889,5.41263314 12.6256624,5.36461094 12.6814501,5.28952168 C12.7611468,5.25197705 12.9196546,5.28952168 12.9338229,5.19085788 C12.9267388,4.98217959 12.6469149,5.04067936 12.4768953,4.99265716 C12.3183875,4.84247864 12.3422965,4.5080695 12.1731624,4.36836855 C12.4007407,4.19810802 12.3281282,3.89425846 11.9446986,3.94577318 C11.8579178,3.9999073 11.9792338,4.06189959 11.9686076,4.11952624 C11.8269246,4.10555614 11.8092142,4.10555614 11.6639892,4.11952624 C11.609087,4.23216012 11.7401438,4.48798749 11.7401438,4.5421216 C11.581636,4.43996528 11.5603835,4.20509307 11.3354618,4.16754844 C11.322179,4.29327929 11.2531085,4.36836855 11.1592436,4.41639075 C11.1557015,4.13698885 10.7926388,4.21207811 10.6544979,4.31772696 C10.6713228,4.2426377 10.7510195,4.2286676 10.7306525,4.11603371 C10.395041,4.10555614 9.40237458,4.50195758 10.0213521,4.71674779 C10.0833384,4.784852 9.94165543,4.80493401 9.96910651,4.91407538 C10.1772034,5.12886559 10.6713228,4.90709033 10.9591163,5.04067936 C10.6925752,5.14982073 10.1524089,4.92804547 10.1214157,5.19085788 C10.0868805,5.50431188 10.7616457,5.20395484 10.7306525,5.58987871 C11.1937788,5.66496797 11.629454,5.53836399 11.9446986,5.38818547 C12.0305939,5.39167799 12.0412201,5.47724482 12.1209168,5.4877224 C11.9960587,5.49383431 11.7056086,5.51828198 11.6161712,5.63702778 C11.7233189,5.79768387 11.629454,5.87277313 11.7684804,6.01247408 C11.6400802,6.05351124 11.605545,5.79069883 11.463862,5.76363177 C11.2079471,5.84221355 10.8200899,5.79419135 10.5260977,5.83872103 C10.516357,5.73656471 10.6713228,5.8011764 10.6784069,5.71560957 C10.6854911,5.60297568 10.6367876,5.54185651 10.6022523,5.46676725 C10.2462738,5.45017777 9.9071202,5.46676725 9.61312801,5.34365579 C9.35012898,5.23189503 9.2606916,5.01972422 9.03222779,5.32008126 C8.90736966,5.32706631 8.95607318,5.16291769 8.85600958,5.1463282 C8.71344108,5.1463282 8.76922875,5.34365579 8.62754577,5.34714832 C8.47877864,5.26943966 8.42653304,5.09481348 8.32292736,4.97257515 C8.18832852,4.97257515 8.25739898,5.17339526 8.14670915,5.1969698 C7.98023164,5.22141746 7.89079426,5.16990274 7.78984513,5.12275367 C7.52773162,5.16291769 7.40287349,5.40215556 7.1327903,5.29650672 C6.96719832,5.30960369 6.91495272,5.49034179 6.75290281,5.49732684 C6.64841161,5.50081936 6.5341797,5.35762589 6.37212979,5.29650672 C6.08167968,5.19085788 5.8735828,5.24848452 5.68673836,5.09481348 C5.58313268,5.05377633 5.51052016,5.16990274 5.41045655,5.16990274 C5.30330879,5.16990274 5.23069626,5.07123894 5.10583814,5.04766441 C5.01285868,5.02670927 4.89154263,5.06076137 4.77731072,5.04766441 C4.52139583,4.99614968 4.40716393,4.88700832 4.17161597,4.97868707 C4.05118544,4.99964221 4.10608759,4.84597117 4.02019228,4.82938168 C3.77047603,4.9175679 3.58097504,4.77437443 3.38704646,4.75429242 C2.98236444,4.71325526 2.77780963,5.00313473 2.39792214,5.05377633 C2.25269708,5.33754388 1.90645929,5.41874505 1.5885581,5.52788642 C1.77186046,5.76363177 2.11367065,5.84221355 2.29697301,6.07708577 C2.43599944,6.08407082 2.57414034,6.08756334 2.65383702,6.15217503 C2.57414034,6.24821943 2.38729591,6.24123438 2.249155,6.27877901 C2.02423327,5.9679444 1.6363761,6.2953685 1.36363636,6.37744281 C1.47432619,6.79392626 2.24207085,6.77297112 2.57768242,6.67779985 C2.62195835,6.72494892 2.59450727,6.84107533 2.60159142,6.92664216 C2.37666969,6.94061226 2.31468338,7.12396975 2.0685092,7.04975362 C1.94099452,7.2130291 1.69216378,7.25755878 1.6886217,7.54743825 C1.76831838,7.59196793 1.93036829,7.55791582 1.96490352,7.64610204 C1.94453659,7.7351614 1.82676261,7.72468383 1.76477631,7.7692135 C1.83384676,8.05210792 2.21461978,7.88533992 2.39792214,7.89145183 C2.43599944,8.04163035 2.30051508,8.24681612 2.52543682,8.29047267 C2.64675287,8.28436075 2.6671198,8.17871191 2.72999163,8.11671961 C2.85750631,8.25642056 3.01689966,8.27388318 3.23473725,8.21538341 C3.32771671,8.2433236 3.06825975,8.3253979 3.15858265,8.51574045 C2.97173821,8.61527737 2.80526071,8.73402318 2.67774603,8.89118674 C2.20399355,8.98985054 1.87900821,9.23258094 1.53985457,9.46396063 C1.66382718,9.54254241 1.94807867,9.37577441 2.0446002,9.26314052 C2.83359731,9.09200686 3.34896915,8.65194887 3.89179208,8.23983107 C3.89887623,8.16823434 3.88470793,8.11322709 3.83954648,8.08965255 C4.04410129,7.9158995 4.14062282,7.63562447 4.47269231,7.59196793 C4.32746725,7.66705719 4.21677742,7.77270603 4.14416489,7.9158995 C4.16541734,7.99448128 4.19641049,8.0625855 4.24511402,8.11322709 C4.44524123,8.01107077 4.55238899,7.93598151 4.82601425,7.93947403 C4.88800055,7.85739973 4.80830387,7.75524341 4.80121972,7.66705719 C5.14037336,7.63562447 5.3272178,7.93947403 5.63892036,7.93947403 C5.73898396,7.93947403 5.81513857,7.87486235 5.89129317,7.86438477 C5.92228632,7.86089225 5.94619533,7.9158995 5.99135678,7.9158995 C6.07105345,7.91240698 6.03651823,7.85128781 6.09142038,7.86438477 C6.39958087,7.94995161 6.55897422,8.46160633 7.00527562,8.28785327 C7.10533923,8.43104675 7.27801536,8.49915096 7.30900851,8.71044864 C7.56226684,8.8335601 7.71369053,9.16709612 7.81463966,9.50849031 C7.90407704,9.51896788 7.95986471,9.56262443 8.06701247,9.56000503 C8.09800562,9.68922841 8.11837255,9.82543683 8.31938528,9.78439968 C8.22286375,9.89004852 8.36454673,10.0507046 8.47169449,10.1083313 C8.43715926,10.179928 8.27068176,10.0437196 8.21932168,10.1327789 C8.21932168,10.306532 8.40262403,10.2995469 8.49560349,10.3816212 C8.63728647,10.4357554 8.67536377,10.5859339 8.87637651,10.5824413 C8.83121506,10.8077091 9.06322094,11.4800199 8.82413091,11.7559293 C8.88346066,11.8825333 8.94190489,12.0667639 8.84892543,12.2064649 C8.88346066,12.3566434 9.00743326,12.4177626 9.00123463,12.6054857 C9.06676301,12.6666049 9.09067202,12.7687612 9.20490392,12.7792388 C9.24298122,13.0350661 9.49889611,13.1922297 9.45727673,13.3799528 C10.1630351,13.5231463 10.2046545,14.201569 10.6235048,14.6521046 C10.564175,14.6451195 10.5260977,14.6555971 10.4986467,14.6756791 C10.5438081,14.8799918 10.8200899,14.8564172 10.9272377,14.9996107 C10.9033287,15.3680719 11.2389402,15.375057 11.3841653,15.5723846 C11.5364745,15.5077729 11.4390675,15.2790126 11.2841017,15.2999677 C11.180496,14.7202088 10.6367876,14.5735228 10.5508923,13.9763013 C10.6093365,14.0173384 10.7129422,14.0173384 10.7784705,14.0513905 C10.8927024,14.4303293 11.1211663,14.6922686 11.4364109,14.8764992 L11.4364109,15.0266778 C11.6985244,15.248453 11.9234461,15.5112654 12.1448258,15.7740778 C12.15191,15.855279 12.0792974,15.8963162 12.0934657,16.0499872 C12.249317,16.3093071 12.4529863,16.3433592 12.7505206,16.4734557 C13.0303444,16.5922015 13.3491312,16.8008798 13.6360392,16.8209618 C13.7538132,16.8314394 13.912321,16.7493651 14.0407212,16.7694471 C14.2550167,16.8034992 14.3621645,17.0567072 14.4976488,17.1448934 C14.81555,17.1038562 14.8952467,17.3020569 15.2060637,17.2680048 C15.3034708,17.455728 15.4726049,17.5709813 15.5106822,17.8172042 C15.7249777,17.8888009 15.8772869,18.0215168 15.9915188,18.1917774 C16.1332018,18.0931136 16.2580599,18.236307 16.4723554,18.2668666 C16.5591362,18.2537697 16.4865237,18.082636 16.54851,18.0415988 C16.973559,18.0485839 16.9912693,18.6283428 16.9044885,18.989819 C16.8425022,19.0378412 16.7628055,19.0684008 16.7008192,19.116423 C16.6556578,19.3792354 16.4519885,19.4883768 16.3200462,19.6656224 L16.3200462,19.9415317 C16.4271939,20.023606 16.5414259,19.849853 16.5972135,19.8908901 C16.5210589,20.0646432 16.289053,20.0847252 16.2403495,20.289911 C16.524601,20.8417297 16.929283,21.2756758 17.1019592,21.9366359 C17.4136617,22.2369929 17.852879,22.410746 18.163696,22.711103 C18.2504768,22.9529603 18.1468711,23.151161 18.1123359,23.3589662 C18.0707165,23.6252711 18.1707802,23.9116581 18.0875414,24.1814555 C18.045922,24.3211565 17.9254915,24.6005584 17.9113232,24.8293187 C17.904239,24.958542 17.9494005,25.078161 17.9352322,25.204765 C17.8971549,25.5793381 17.7041118,25.8901727 17.5827958,26.1765597 C17.6376979,26.6401922 17.5172674,26.9335642 17.4543956,27.3971967 C17.7041118,27.4277563 17.5650854,27.0732651 17.7076539,26.9981759 C17.735105,27.2810703 17.6483242,27.5168156 17.6067048,27.8241577 C17.5305502,27.8241577 17.451739,27.8267771 17.4543956,27.7490685 C17.3685003,27.8066951 17.2648946,27.8477323 17.2268173,27.9498886 C17.236558,28.0826045 17.306514,28.1542012 17.4791901,28.1236416 C17.5030991,28.225798 17.4030355,28.2973947 17.5305502,28.2973947 C17.5066412,28.3759765 17.354332,28.3218424 17.3029719,28.372484 C17.3029719,28.679826 17.617331,28.9391459 17.4791901,29.1469511 C17.5066412,29.2185478 17.5898799,29.2360104 17.5553447,29.3722189 C17.6695766,29.4673901 17.8077175,29.5389869 17.9600267,29.5974866 C18.1017097,29.6481282 18.0361813,29.4097635 18.1362449,29.4988228 C18.2159416,29.6044717 18.1539553,29.6446357 18.0839993,29.7232175 C18.1982312,29.8192619 18.3160052,29.9109406 18.4408633,30 L18.5170179,30 C18.6755258,29.9144332 18.97306,29.9694404 19.0740092,29.8253738 C18.8729964,29.7371876 18.6374485,29.6891654 18.5409269,29.5014422 C18.5267586,29.3076072 18.4789406,29.1504436 18.3647087,29.0517798 C18.3815336,28.8946162 18.4541461,28.7924599 18.6170815,28.7784898 C18.5896305,28.4205062 18.969518,28.4580508 18.97306,28.1306267 C18.9181579,28.0284704 18.6967782,28.086097 18.6693271,27.9568736 C18.6551588,27.8782919 18.7136031,27.8678143 18.6932361,27.7831206 C18.803926,27.7316059 18.9349827,27.7045388 19.0217636,27.6329421 C19.0288477,27.472286 19.0943761,27.3701297 19.1218272,27.2339212 C19.2192342,27.2374138 19.3228399,27.2470182 19.326382,27.158832 C19.3228399,27.0531831 19.1908976,27.0767577 19.0979182,27.0601682 C19.114743,26.9606312 19.0740092,26.9161016 19.0740092,26.8349004 C19.232517,26.9161016 19.3299241,26.9370567 19.5300513,26.8820495 C19.5548458,26.7423485 19.5406775,26.5956625 19.5822969,26.4594541 C19.9524437,26.4699317 20.4403644,26.432387 20.4952666,26.1355225 C20.5227177,25.9923291 20.4465631,25.6814944 20.2668028,25.6098977 C20.3881188,25.5592561 20.5785053,25.7094346 20.7476394,25.684987 C21.1045034,25.6343454 21.228476,25.1357876 21.4046942,24.8869453 C21.6960299,24.8738483 21.6854036,24.5665063 21.9103254,24.4879245 C21.9306923,24.2940894 21.8722481,24.177963 21.8855308,23.9867473 C21.9758537,23.8330763 22.1901493,23.8060092 22.2663039,23.6392412 C22.3424585,23.6217786 22.3601688,23.6628157 22.4186131,23.6628157 C22.5709223,23.6051891 22.6196258,23.444533 22.8755407,23.4890627 C23.4422726,23.2227578 23.5600466,22.5163948 23.5839556,21.7148606 C23.6601102,21.7323233 23.6778206,21.6912861 23.7362648,21.6912861 C23.8088773,21.2721833 24.4145721,21.1560569 24.2418959,20.5422458 C24.2241856,20.4741416 24.1790241,20.4671566 24.1205799,20.3815897 L24.1205799,20.3815897 Z" id="Fill-49"></path>
                    <path d="M14.0383601,1.87248228 C14.0721718,1.81527728 14.2308267,1.75373856 14.3088537,1.82134448 C14.2308267,1.82481145 14.1597354,1.83867933 14.1597354,1.92015312 L14.1597354,2.04149706 C14.3496011,2.0891679 14.5056551,2.24518155 14.7050574,2.26511662 C15.0197663,2.29545261 15.1420086,2.03542987 15.3760896,1.92015312 C15.3552824,2.048431 15.2130999,2.05536494 15.2269713,2.21831253 C15.33881,2.2789845 15.5278088,2.24864852 15.6231751,2.26858359 C15.6058358,2.49567012 15.1792882,2.16024078 15.1281371,2.4176633 C15.1420086,2.50260406 15.2841911,2.46186716 15.3015305,2.54247421 C15.0605138,2.61441384 14.8845195,2.69502089 14.6070902,2.71582271 C14.2039507,2.74615869 13.8519623,2.5156052 13.6386885,2.61701407 C13.6048768,2.93944227 13.9464616,2.88830446 14.2342946,2.88830446 C14.3868807,3.00011424 14.4883158,3.12145818 14.4345638,3.38234767 C14.6235626,3.44648661 14.8680472,3.55482942 15.0778531,3.45688752 C15.260783,3.61983511 15.7280781,3.49762442 15.9448197,3.45688752 C16.015911,3.62330207 16.2291848,3.49762442 16.4389907,3.53142737 C16.4797381,3.41615062 16.5369579,3.31474176 16.5135498,3.13532606 C15.9682278,2.86143544 15.1558801,3.41961759 14.8030247,2.91170651 C15.2165677,2.83369968 15.703803,2.9931803 16.1684971,2.83716665 C16.3817709,2.9931803 16.7675711,2.8545015 16.8620704,2.6646849 C16.7849104,2.63781589 16.6930119,2.62048104 16.63926,2.566743 C16.6964798,2.54247421 16.7875113,2.54940815 16.8386623,2.5156052 C16.8794097,2.42459724 16.7233558,2.40379542 16.7875113,2.36652549 C16.9981842,2.40379542 17.0692754,2.30238655 17.183715,2.24171458 C17.1975865,2.15330684 17.0658076,2.16024078 17.133431,2.09263487 C17.3536405,2.10650275 17.4351354,1.98082509 17.4550756,1.79447546 C17.183715,1.78147432 17.0484682,1.76413947 16.9097536,1.89241736 C17.1299631,1.5708559 17.7940595,1.82827842 18.0506817,1.5708559 C18.0610853,1.46944703 17.8816232,1.55785477 17.8781553,1.472914 L18.1495159,1.472914 C18.407005,1.21549149 18.8942402,1.19208944 19.1413257,0.927732989 C18.9618636,0.941600869 18.5925358,1.06641178 18.4711605,0.904330943 C18.8638964,0.904330943 19.4430301,0.886996093 19.6363636,0.606171533 C19.3450628,0.437156751 19.0260191,0.295010985 18.5960037,0.433689781 C18.6029394,0.375618035 18.7147781,0.419821901 18.6948379,0.335747882 C18.3255101,0.386018945 17.7429085,0.135530371 17.5296347,0.386018945 C17.3631771,0.23347227 17.0519361,0.24040621 16.9097536,0.410287734 C16.4155826,0.210070223 16.1815016,0.687645325 15.5954322,0.558500697 C15.3726217,0.82979109 14.6200947,0.575835546 14.4545041,0.907797913 C14.8272997,0.971936855 14.9079276,1.35157006 15.3960298,1.22935937 C15.4497818,1.25622839 15.4636532,1.32730127 15.52174,1.35417029 C15.8295132,1.29349831 16.0323833,1.30043225 16.2898724,1.35417029 C16.0427869,1.49978302 15.7211423,1.36110422 15.3960298,1.45297893 C15.314535,1.53098575 15.5078685,1.59165772 15.4194379,1.67573174 C15.2911269,1.62199371 15.2165677,1.51711787 15.1489443,1.40530809 C14.742337,1.46598006 14.5663428,0.989271705 14.2074186,1.03260883 C13.9603331,1.06294481 13.8450265,1.33076824 13.7132476,1.5543878 C13.8112148,1.66966454 13.8484944,1.84561327 14.0383601,1.87248228 L14.0383601,1.87248228 Z" id="Fill-50"></path>
                </g>
            </g>
        </g>
    </g>
</svg>