<?xml version="1.0" encoding="UTF-8"?>
<svg width="48px" height="48px" viewBox="0 0 48 48" version="1.1" xmlns="http://www.w3.org/2000/svg" xmlns:xlink="http://www.w3.org/1999/xlink">
    <!-- Generator: Sketch 50.2 (55047) - http://www.bohemiancoding.com/sketch -->
    <title>Icons/money</title>
    <desc>Created with Sketch.</desc>
    <defs></defs>
    <g id="Icons/money" stroke="none" stroke-width="1" fill="none" fill-rule="evenodd">
        <g id="Group-3" fill="#00A4DB">
            <rect id="Rectangle-2" x="0" y="0" width="48" height="48" rx="6"></rect>
        </g>
        <g id="Group-16" transform="translate(9.000000, 12.000000)" fill="#FFFFFF">
            <path d="M12.4940045,3.99786035 C13.0260938,4.16875853 13.56704,4.31070962 14.1144685,4.42309048 C15.0643289,4.61899272 16.0255843,4.75480882 16.9925196,4.82973132 C17.7571742,4.89188927 18.5746638,4.93022969 19.4589228,4.93022969 C20.3431818,4.93022969 21.1606713,4.89188927 21.925326,4.82973132 C22.8922592,4.75478892 23.8535132,4.618973 24.803377,4.42309048 C25.3507596,4.31051288 25.8916953,4.16856455 26.4238411,3.99786035 C27.975794,3.48897838 28.7880582,2.87959804 28.7880582,2.46482439 L28.7880582,2.46482439 C28.7880582,1.6283061 25.4948757,0 19.4589228,0 C13.4229699,0 10.130368,1.62772518 10.130368,2.46482439 L10.130368,2.46482439 C10.130368,2.87959804 10.9432128,3.48897838 12.4940045,3.99786035 Z" id="Shape"></path>
            <path d="M28.6446491,4.76408787 C28.6069099,4.78558174 28.562784,4.80475195 28.5238836,4.82566491 C28.3804746,4.90350758 28.2364849,4.98135026 28.079722,5.05338378 C28.0054048,5.08765779 27.93341,5.1219318 27.8561897,5.15504399 C27.7789694,5.18815617 27.6820087,5.22068743 27.5960794,5.25496145 C27.2268156,5.40135215 26.8312312,5.53476907 26.409326,5.65521222 C21.8450802,6.78800364 17.073346,6.78800364 12.5091002,5.65521222 C12.0879692,5.5343818 11.6923847,5.40077123 11.3223468,5.25438053 C11.2369981,5.22068743 11.1441016,5.19047983 11.0622365,5.15446307 C10.9803714,5.11844631 10.913602,5.08707687 10.8398654,5.05338378 C10.6825219,4.98076934 10.5385322,4.90350758 10.3951232,4.82566491 C10.3562228,4.80475195 10.3120969,4.78500082 10.2737771,4.76350695 C10.2354573,4.74201308 10.1739133,4.71354822 10.130368,4.6903116 L10.130368,7.19347641 C10.130368,7.60825007 10.9432128,8.21821132 12.4951657,8.72709328 C13.0273133,8.89779103 13.5682487,9.03973927 14.1156297,9.15232342 C15.0664668,9.34822954 16.0286881,9.48404513 16.9965838,9.55896425 C17.7600773,9.62112221 18.575825,9.65888172 19.4583422,9.65888172 C20.3408594,9.65888172 21.1566071,9.62112221 21.9201006,9.55896425 C22.8881891,9.48405254 23.8506041,9.34823699 24.8016352,9.15232342 C25.3490152,9.0397349 25.8899504,8.89778672 26.4220993,8.72709328 C27.9752134,8.21821132 28.7874775,7.60825007 28.7874775,7.19347641 L28.7874775,4.6903116 C28.7439323,4.7164528 28.6893556,4.73794667 28.6446491,4.76408787 Z" id="Shape"></path>
            <path d="M28.6446491,14.2219728 C28.6237474,14.2335911 28.599362,14.2440476 28.5778797,14.2562468 C28.4187944,14.3439651 28.2556448,14.4305215 28.079722,14.5118497 L28.076819,14.5118497 C28.0042436,14.5449618 27.93341,14.5786549 27.8585121,14.6111862 L27.8585121,14.6111862 C27.5641462,14.7378258 27.2395889,14.8511043 26.9069032,14.9597355 L26.8906463,14.9655446 L26.8860014,14.9655446 L26.8860014,14.9655446 C26.8244575,14.9858767 26.7698807,15.0102751 26.7118204,15.0300263 C26.6282135,15.0561675 26.5329946,15.0759186 26.4470653,15.1008979 C26.2728842,15.1508567 26.0928972,15.1984918 25.9111683,15.2438032 C25.8072403,15.2705253 25.690539,15.2885336 25.5848692,15.313513 C25.2608925,15.389032 24.9357546,15.4639701 24.592618,15.5261281 C23.9191181,15.6545104 23.2241358,15.7648843 22.4919949,15.8369179 C21.7598541,15.9089514 20.9975218,15.953101 20.2363507,15.9711093 C20.2513145,16.0478482 20.2613985,16.1254594 20.2665421,16.2034755 L20.2665421,19.0987583 C25.788661,18.9616622 28.7950254,17.4460537 28.7950254,16.646714 L28.7950254,14.1487775 C28.7526413,14.1743378 28.6998064,14.1952507 28.6556806,14.2202301 L28.6446491,14.2219728 Z" id="Shape"></path>
            <path d="M28.529109,9.55896425 C28.3862806,9.63622601 28.2359043,9.71058319 28.0791414,9.78319763 C28.0048242,9.81747164 27.9328293,9.85174566 27.8556091,9.88485784 C27.7783888,9.91797002 27.6930401,9.95631044 27.6076914,9.99000354 C27.2401695,10.1363942 26.841295,10.268843 26.4220993,10.3902543 C24.1507936,10.9938515 21.8082627,11.2869718 19.4583422,11.2616275 C17.1086142,11.2869479 14.7662783,10.9938275 12.4951657,10.3902543 C12.07597,10.268843 11.6770955,10.1363942 11.3095735,9.99000354 C11.2242248,9.95572953 11.143521,9.92029368 11.0610753,9.88427692 C10.9786296,9.84826016 10.9124408,9.81689073 10.8387042,9.78319763 C10.6819413,9.71058319 10.531565,9.63680693 10.3881559,9.55896425 C10.3480943,9.53747038 10.3109357,9.51481468 10.2720353,9.49273989 C10.2331348,9.4706651 10.1727521,9.44568573 10.1292068,9.41954454 L10.1292068,11.9227093 L10.1292068,11.9227093 C10.1362063,12.0058904 10.1643909,12.0858897 10.2110719,12.1550755 C13.9269336,12.2584785 17.5220299,13.0148305 19.227262,14.3823055 C19.3050629,14.3823055 19.3782189,14.3863719 19.4595034,14.3863719 C20.4955652,14.3886877 21.5310374,14.3367214 22.5616673,14.2306866 C26.6131178,13.8037137 28.7868969,12.6041232 28.7880582,11.9221284 L28.7880582,11.9221284 L28.7880582,9.41896362 C28.7445129,9.44510482 28.6899362,9.46659869 28.6452297,9.49273989 C28.6005233,9.51888108 28.5685901,9.53514672 28.529109,9.55896425 Z" id="Shape"></path>
            <path d="M18.5613099,15.95252 C18.2573464,15.5840683 17.8650398,15.2986737 17.4210049,15.1229727 L17.4210049,15.1229727 C15.4394128,14.3042175 13.3244677,13.8562705 11.1812602,13.80139 L11.1812602,13.80139 C10.6656844,13.7706015 10.1263038,13.7520122 9.56137671,13.7479458 L9.56137671,13.7479458 C9.48357586,13.7479458 9.41041983,13.7438794 9.32913536,13.7438794 L9.32913536,13.7438794 C9.05450995,13.7438794 8.79207722,13.7508504 8.52906388,13.7572404 C3.00752559,13.8943365 0.000580603395,15.409945 0.000580603395,16.2092847 C0.000580603395,17.045803 3.29376306,18.6741091 9.32971596,18.6741091 C9.49692974,18.6741091 9.65369265,18.6682999 9.8162616,18.6659763 C10.3521585,18.6584244 10.8700568,18.6398351 11.3595054,18.6078847 C12.0428756,18.5631542 12.68212,18.4975108 13.2754966,18.4144399 C16.7852442,17.9212426 18.6594319,16.8407398 18.6594319,16.206961 C18.6524836,16.123769 18.6242945,16.0437571 18.5775668,15.9745948 C18.5717608,15.9676238 18.5665354,15.9600719 18.5613099,15.95252 Z" id="Shape"></path>
            <path d="M17.949354,18.798425 C17.8756173,18.832699 17.8036225,18.866973 17.7269829,18.8995043 C17.6056368,18.9517867 17.4709368,18.9982599 17.3426234,19.0470568 C16.6950714,19.2903765 16.0311427,19.4876045 15.3557986,19.6372669 C14.6590745,19.7958569 13.9199664,19.9277247 13.1460221,20.0229948 C9.54638349,20.4878475 5.89165792,20.2766535 2.36944246,19.4002534 C2.23551661,19.3615257 2.10371964,19.322798 1.97405154,19.2840703 C1.8631563,19.2480536 1.75226105,19.2126177 1.64543002,19.1748582 C1.39751237,19.0883018 1.15656196,19.0005836 0.931287846,18.9024089 C0.854067595,18.8692967 0.782072774,18.8350227 0.707755539,18.8007487 C0.508027971,18.7078022 0.320493074,18.6119511 0.142828435,18.5102909 C0.0981219738,18.4847306 0.0435452547,18.4632368 0,18.4365146 L0,20.9385176 C0,21.7750359 3.29318246,23.403342 9.32913536,23.403342 C15.3650883,23.403342 18.6571095,21.7767787 18.6571095,20.9385176 L18.6571095,18.4353528 C18.6135643,18.4609131 18.5595681,18.4829879 18.5142811,18.5085482 C18.3373906,18.6092402 18.1490815,18.7058658 17.949354,18.798425 Z" id="Shape"></path>
        </g>
    </g>
</svg>