<?xml version="1.0" encoding="UTF-8"?>
<svg width="391px" height="72px" viewBox="0 0 391 72" version="1.1" xmlns="http://www.w3.org/2000/svg" xmlns:xlink="http://www.w3.org/1999/xlink">
    <!-- Generator: Sketch 49.3 (51167) - http://www.bohemiancoding.com/sketch -->
    <title>Apple Pay</title>
    <desc>Created with Sketch.</desc>
    <defs></defs>
    <g id="Page-1" stroke="none" stroke-width="1" fill="none" fill-rule="evenodd">
        <g id="Assorted-Social-3" transform="translate(-104.000000, -40.000000)">
            <g id="Apple-Pay" transform="translate(104.000000, 40.000000)">
                <g id="Logo/Light-BG" transform="translate(0.000000, 16.200000)">
                    <g id="monzo_hrz_drkbg">
                        <path d="M48.2575937,30.975039 C48.2579487,31.5540042 48.022999,32.1094051 47.6044098,32.5191098 L37.5976315,42.2984612 C37.341888,42.5470777 36.9582869,42.6210813 36.6250561,42.4860886 C36.2918254,42.3510959 36.0742958,42.0335726 36.0735356,41.6810457 L36.0735356,19.7679362 L48.1211509,8.05973748 L48.2601339,8.05973748 L48.2575937,30.975039 Z" id="Shape" fill="#E34B5F" fill-rule="nonzero"></path>
                        <path d="M40.272057,0.25569018 C39.9230254,-0.0853681314 39.3571776,-0.0853681314 39.008146,0.25569018 L24.130067,14.7956311 L23.9235882,14.7956311 L23.9235882,31.207678 L24.130067,31.6389114 L36.0702697,19.9697222 L48.2572309,8.05973748 L40.272057,0.25569018 Z" id="Shape" fill="#E7CE9C" fill-rule="nonzero"></path>
                        <path d="M3.46857451e-16,30.975039 C-0.000547441847,31.5542499 0.234416876,32.1099406 0.653183959,32.519819 L10.6599622,42.2991705 C10.9157057,42.547787 11.2993068,42.6217906 11.6325376,42.4867979 C11.9657684,42.3518051 12.1832979,42.0342818 12.1840581,41.681755 L12.1840581,19.7679362 L0.138983031,8.05973748 L-9.54468493e-07,8.05973748 L3.46857451e-16,30.975039 Z" id="Shape" fill="#1E7889" fill-rule="nonzero"></path>
                        <path d="M9.24944773,0.25569018 C8.90041615,-0.0853681314 8.33456836,-0.0853681314 7.98553677,0.25569018 L0,8.05973748 L12.1869611,19.9697222 L24.1286154,31.6403299 L24.1286154,14.7970496 L9.24944773,0.25569018 Z" id="Shape" fill="#97BAA6" fill-rule="nonzero"></path>
                        <path d="M63.2340133,30.975039 L63.2340133,9.11157808 L69.1914139,9.11157808 L69.1914139,12.042972 C70.5663661,9.80382112 72.5661976,8.70445974 75.274008,8.70445974 C77.9818184,8.70445974 80.0233812,9.84460389 81.4814329,12.2057484 C83.8143883,9.80346649 85.6059267,8.70445974 88.3971995,8.70445974 C93.4383282,8.70445974 96.271695,11.4730773 96.271695,16.5624112 L96.271695,30.975039 L89.855977,30.975039 L89.855977,19.1271149 C89.855977,16.0733727 89.1893665,14.6892413 86.7312175,14.6892413 C84.2317003,14.6892413 82.8984792,16.195721 82.8984792,19.1271149 L82.8984792,30.975039 L76.4392156,30.975039 L76.4392156,19.1271149 C76.4392156,16.0733727 75.7726051,14.6892413 73.3144562,14.6892413 C70.814576,14.6892413 69.4817178,16.195721 69.4817178,19.1271149 L69.4817178,30.975039 L63.2340133,30.975039 Z M104.190462,11.9614065 C107.534686,8.65737993 112.580439,7.63586351 116.992554,9.36961343 C121.404668,11.1033633 124.322333,15.2541214 124.395256,19.9009235 C124.395256,23.1990076 123.270328,25.9264878 121.020472,28.1252106 C118.790327,30.3604563 115.715529,31.597782 112.52146,31.5452884 C109.105308,31.5452884 106.355767,30.4051442 104.06418,28.0439997 C101.924723,25.8845384 100.742194,22.988143 100.772858,19.982489 C100.761944,16.9684361 101.993855,14.0771516 104.190462,11.9614065 Z M112.56428,25.4374493 C115.480747,25.4374493 117.855433,23.0351673 117.855433,20.0629906 C117.855433,17.0486127 115.480747,14.6481039 112.56428,14.6481039 C109.647814,14.6481039 107.27349,17.0503858 107.27349,20.0629906 C107.27349,23.0358766 109.689908,25.4378039 112.565369,25.4378039 L112.56428,25.4374493 Z M128.899322,30.975039 L128.899322,9.11157808 L135.148478,9.11157808 L135.065016,12.042972 C136.439968,9.84424925 138.522899,8.70445974 141.480734,8.70445974 C146.105276,8.70445974 149.104842,11.5542882 149.104842,16.5624112 L149.104842,30.975039 L142.5222,30.975039 L142.5222,19.1271149 C142.5222,16.0733727 141.855589,14.6892413 139.314341,14.6892413 C136.731361,14.6892413 135.356409,16.195721 135.356409,19.1271149 L135.356409,30.975039 L128.899322,30.975039 Z M154.054525,30.975039 L154.054525,26.414817 L163.261516,14.7704522 L154.054525,14.7704522 L154.054525,9.11157808 L170.677331,9.11157808 L170.677331,14.2821229 L162.553537,25.3158103 L170.843893,25.3158103 L170.843893,30.975039 L154.054525,30.975039 Z M177.307874,11.9614065 C180.651996,8.65662839 185.698246,7.63463135 190.110834,9.36847382 C194.523422,11.1023163 197.441263,15.2536513 197.513757,19.9009235 C197.513757,23.1990076 196.388829,25.9264878 194.138973,28.1252106 C191.908803,30.3604206 188.834022,31.5977397 185.639961,31.5452884 C182.223809,31.5452884 179.473905,30.4051442 177.182681,28.0439997 C175.043258,25.8845172 173.860735,22.9881358 173.891359,19.982489 C173.880157,16.968591 175.111667,14.0773287 177.307874,11.9614065 Z M185.681693,25.4374493 C188.597796,25.4374493 190.972845,23.0351673 190.972845,20.0629906 C190.972845,17.0486127 188.598159,14.6481039 185.681693,14.6481039 C182.765226,14.6481039 180.39054,17.0503858 180.39054,20.0629906 C180.390902,23.0358766 182.80732,25.4378039 185.682055,25.4378039 L185.681693,25.4374493 Z" id="Combined-Shape" fill="#14233C" fill-rule="nonzero"></path>
                    </g>
                </g>
                <rect id="Rectangle" fill="#C8C7CC" x="227" y="0" width="1" height="72"></rect>
                <g id="Apple_Pay_logo" transform="translate(257.902703, 12.600000)" fill="#000000" fill-rule="nonzero">
                    <path d="M24.237973,6.93554502 C22.6842568,8.75260664 20.1983108,10.185782 17.7123649,9.98104265 C17.4016216,7.52417062 18.6186993,4.91374408 20.0429392,3.3014218 C21.5966554,1.43317536 24.3156588,0.102369668 26.5167568,0 C26.7757095,2.55924171 25.7657939,5.06729858 24.237973,6.93554502 Z M26.4908615,10.4672986 C22.8914189,10.2625592 19.8098818,12.4890995 18.1007939,12.4890995 C16.3658108,12.4890995 13.7503885,10.5696682 10.9019088,10.6208531 C7.19888513,10.6720379 3.75481419,12.7450237 1.86445946,16.0464455 C-2.01983108,22.6492891 0.854543918,32.4255924 4.60935811,37.8 C6.4479223,40.4616114 8.64902027,43.3791469 11.5492905,43.2767773 C14.2941892,43.1744076 15.3817905,41.5109005 18.6963851,41.5109005 C22.036875,41.5109005 22.995,43.2767773 25.8952703,43.2255924 C28.8991216,43.1744076 30.7894764,40.563981 32.6280405,37.9023697 C34.7255574,34.8824645 35.5801014,31.9393365 35.6318919,31.785782 C35.5801014,31.7345972 29.8313514,29.5592417 29.7795608,23.0075829 C29.7277703,17.5308057 34.3112331,14.9203791 34.5183953,14.7668246 C31.9288682,10.9791469 27.8892061,10.5696682 26.4908615,10.4672986 Z M47.2847635,3.04549763 L47.2847635,42.9440758 L53.5514189,42.9440758 L53.5514189,29.3033175 L62.2263345,29.3033175 C70.1502872,29.3033175 75.7177703,23.92891 75.7177703,16.1488152 C75.7177703,8.36872038 70.2538682,3.04549763 62.4334966,3.04549763 L47.2847635,3.04549763 Z M53.5514189,8.26635071 L60.7761993,8.26635071 C66.2142061,8.26635071 69.3216385,11.1327014 69.3216385,16.1744076 C69.3216385,21.2161137 66.2142061,24.1080569 60.7503041,24.1080569 L53.5514189,24.1080569 L53.5514189,8.26635071 Z M87.1634797,43.2511848 C91.0995608,43.2511848 94.7507939,41.2805687 96.4080912,38.1582938 L96.5375676,38.1582938 L96.5375676,42.9440758 L102.338108,42.9440758 L102.338108,23.0843602 C102.338108,17.3260664 97.6769595,13.6151659 90.5039696,13.6151659 C83.8488851,13.6151659 78.9287838,17.3772512 78.7475169,22.5469194 L84.3926858,22.5469194 C84.8588007,20.0900474 87.1634797,18.4777251 90.3227027,18.4777251 C94.1552027,18.4777251 96.3045101,20.2436019 96.3045101,23.4938389 L96.3045101,25.6947867 L88.4841385,26.1554502 C81.2075676,26.5905213 77.2714865,29.5336493 77.2714865,34.6521327 C77.2714865,39.8218009 81.3370439,43.2511848 87.1634797,43.2511848 Z M88.8466723,38.5165877 C85.5061824,38.5165877 83.3827703,36.9298578 83.3827703,34.4985782 C83.3827703,31.9905213 85.4284966,30.5317536 89.3386824,30.3014218 L96.3045101,29.8663507 L96.3045101,32.1184834 C96.3045101,35.8549763 93.0934966,38.5165877 88.8466723,38.5165877 Z M110.080794,53.7952607 C116.192078,53.7952607 119.066453,51.4919431 121.578294,44.5052133 L132.583784,13.9990521 L126.213547,13.9990521 L118.833395,37.5696682 L118.703919,37.5696682 L111.323767,13.9990521 L104.772264,13.9990521 L115.389324,43.0464455 L114.819628,44.8123223 C113.861503,47.8066351 112.307787,48.9582938 109.536993,48.9582938 C109.044983,48.9582938 108.086858,48.907109 107.698429,48.8559242 L107.698429,53.6417062 C108.060963,53.7440758 109.614679,53.7952607 110.080794,53.7952607 Z" id="XMLID_34_"></path>
                </g>
            </g>
        </g>
    </g>
</svg>