<svg width="105" height="19" viewBox="0 0 105 19" xmlns="http://www.w3.org/2000/svg"><title>pr-guardian</title><g fill="#14233D" fill-rule="evenodd" opacity=".6"><path d="M86.46 5.33l-.634 1.967h-1.65V4.822c.889-.254 2.157-.698 3.807-.698 2.537 0 3.869 1.015 3.869 3.11v5.138l1.142.445v.824c-.317.19-1.205.381-1.967.381-1.015 0-1.776-.317-1.903-1.332h-.063c-.444.824-1.522 1.332-2.728 1.332-1.649 0-2.727-1.079-2.727-2.665 0-1.967 1.268-2.347 3.362-2.791l1.84-.318V7.106c0-1.205-.381-1.84-1.587-1.84-.253 0-.57 0-.76.064m2.22 6.598V9.263l-.762.064c-.698.063-1.332.57-1.332 1.46 0 1.014.571 1.522 1.205 1.522.38 0 .698-.19.888-.38M52.333 5.33l-.698 1.967h-1.65V4.822c.889-.254 2.158-.698 3.807-.698 2.537 0 3.87 1.015 3.87 3.11v5.138l1.141.445v.824c-.317.19-1.205.381-1.966.381-1.015 0-1.777-.317-1.903-1.332h-.064c-.444.824-1.522 1.332-2.727 1.332-1.65 0-2.728-1.079-2.728-2.665 0-1.967 1.269-2.347 3.362-2.791l1.776-.318V7.106c0-1.205-.38-1.84-1.586-1.84-.127 0-.444 0-.634.064m2.22 6.598V9.263l-.761.064c-.698.063-1.332.57-1.332 1.46 0 1.014.57 1.522 1.205 1.522.38 0 .761-.19.888-.38M1.522 11.103V5.837H.063V4.441l1.46-.19V2.474L4.63 2.03v2.221h2.093v1.65H4.631v4.949c0 .951.253 1.396 1.205 1.396.317 0 .761-.064 1.015-.064v1.206c-.508.317-1.586.57-2.538.57-1.903 0-2.79-.824-2.79-2.855M21.821 9.263h5.646c0-3.997-1.396-5.266-4.187-5.266-2.79 0-4.694 1.84-4.694 4.95 0 3.235 1.65 5.012 4.948 5.012 1.776 0 3.172-.762 3.616-1.396v-.952c-.635.19-1.332.317-2.538.317-1.776.064-2.664-.825-2.79-2.665m1.395-4.06c.761 0 1.205.317 1.205 2.791l-2.6.127c-.064-2.22.38-2.918 1.395-2.918M34.571 11.738H31.4c-.508 0-.762-.317-.762-.635 0-.253.064-.634.318-.824.507.127 1.078.253 1.712.253 2.41 0 4.124-1.078 4.124-3.109 0-.951-.318-1.459-.952-1.966l.063-.064 1.65.508V4.124h-.19l-2.348.444h-.126c-.571-.19-1.396-.38-2.157-.38-2.41 0-4.123 1.142-4.123 3.235 0 1.27.507 2.158 1.585 2.729v.127c-.888.634-1.585 1.522-1.585 2.284 0 .761.507 1.586 1.522 1.84v.127c-.888.317-2.093.634-2.093 1.65 0 1.268 1.586 2.157 4.567 2.157 3.68 0 5.328-1.523 5.328-3.744-.063-2.094-1.268-2.855-3.362-2.855m-1.903-6.535c.698 0 1.142.507 1.142 2.094 0 1.586-.444 1.966-1.142 1.966-.697 0-1.141-.38-1.141-1.966 0-1.587.444-2.094 1.141-2.094m-.063 11.674c-1.713 0-2.474-.444-2.474-1.078 0-.445.127-.889.444-1.142h3.68c.76 0 1.395.126 1.395.824 0 .952-.952 1.396-3.045 1.396M77.77 4.632v.951l1.142.508v6.218l-1.142.444v1.015h5.392v-1.015l-1.142-.444V3.997h-.19l-4.06.635M59.247 4.632v.951l1.142.508v6.218l-1.142.444v1.015h5.773v-1.015l-1.523-.444v-5.14c.508-.253 1.269-.317 2.093-.317.254 0 .635.064.825.064V4.124c-.127-.063-.317-.063-.444-.063-1.015 0-1.903.698-2.41 1.967h-.127v-2.03h-.254l-3.933.634M80.497.127c.952 0 1.65.761 1.65 1.65 0 .951-.762 1.65-1.65 1.65-.951 0-1.649-.762-1.649-1.65 0-.889.761-1.65 1.65-1.65M73.012 12.119V5.647c-.254-.19-.507-.317-1.078-.317-1.015 0-1.713.888-1.713 3.553 0 2.347.571 3.363 1.84 3.363.444 0 .76-.064.951-.127m0-9.898l-1.268-.508V.761L75.93.127h.254v11.865l1.142.57v.952l-3.87.445h-.253v-1.016h-.127c-.38.508-1.206 1.016-2.41 1.016-1.714 0-3.807-1.079-3.807-4.759 0-3.807 2.093-5.203 4.63-5.203.508 0 1.143.127 1.523.38V2.222M39.139 6.091l-1.142-.508v-.951l4.06-.635h.253v6.662c0 1.079.508 1.27 1.332 1.27.571 0 .825-.128 1.142-.255V6.028l-1.142-.508v-.952l4.06-.634h.254v8.121l1.142.571v.825l-3.933.444h-.254v-1.269h-.127a3.62 3.62 0 0 1-2.854 1.333c-1.903 0-2.728-1.333-2.728-2.982V6.09M7.422 12.753l1.142-.444V2.221l-1.142-.508V.761l3.996-.634h.254v5.14h.127a4.823 4.823 0 0 1 3.298-1.27c1.586 0 2.41.825 2.41 2.538v5.774l1.143.444v1.015h-5.265v-1.015l1.014-.444V7.36c0-.952-.444-1.332-1.268-1.332-.444 0-.888.063-1.269.253v6.028l1.015.444v1.015H7.612v-1.015M93.501 12.753l1.142-.444V6.091l-1.142-.508v-.951l3.997-.635h.253v1.27h.127a4.823 4.823 0 0 1 3.299-1.27c1.586 0 2.41.825 2.41 2.538v5.774l1.142.444v1.015h-5.265v-1.015l1.015-.444V7.36c0-.952-.444-1.332-1.269-1.332-.444 0-.888.063-1.268.253v6.028l1.015.444v1.015h-5.265v-1.015"/></g></svg>