<svg width="1000" height="409" viewBox="0 0 1000 409" xmlns="http://www.w3.org/2000/svg"><title>pr-standard</title><g fill="#727B8B" fill-rule="nonzero"><path d="M804.623 168.43c-8.558 0-11.338-5.55-11.338-32.615s2.32-31.924 11.338-31.924c8.329 0 11.338 4.859 11.338 32.614 0 26.835-2.32 31.924-11.338 31.924m-.93 94.789c-20.816 0-27.295-8.132-27.295-20.86 0-9.018 1.62-15.18 4.158-17.949h40.265c14.807 0 21.757 4.39 21.757 15.957 0 14.337-12.728 22.852-38.885 22.852m-5.32 6.709c41.184 0 71.5-19.383 71.5-51.767 0-24.975-17.817-32.154-40.494-32.154h-47.203c-7.639 0-9.948-2.54-9.948-6.238 0-4.4 2.08-7.87 3.47-9.719 6.949 2.78 18.276 4.86 28.925 4.86 30.075 0 52.522-14.579 52.522-40.484 0-11.327-7.87-20.356-16.887-26.365v-.46c5.549-3.94 12.028-5.789 14.578 1.39 2.068 5.78 3.929 9.019 11.557 9.019 9.029 0 12.28-6.25 12.28-12.958 0-9.719-6.72-14.119-15.509-14.119-10.638 0-19.897 6.49-27.076 13.43-7.858-3.94-19.196-6.94-31.465-6.94-30.086 0-52.522 14.797-52.522 40.484 0 13.866 6.939 23.355 18.967 29.604v.448c-8.559 5.09-18.737 15.278-18.737 29.156 0 12.717 6.709 21.276 23.136 25.445v.46c-20.126 2.31-30.534 11.94-30.534 23.049 0 16.186 17.117 23.858 53.44 23.858"/><path d="M602.022 222.09h71.258v-3.93l-3.47-.92c-7.857-2.09-8.328-2.308-8.328-14.117v-80.496c3.94-.92 8.789-1.379 15.268-1.379 8.569 0 13.658 3.459 13.658 15.957v65.918c0 11.568-.23 12.028-8.34 14.118l-3.469.92v3.928h71.51v-3.929l-4.18-1.16c-9.248-2.539-9.938-2.999-9.938-13.877v-74.706c0-20.586-12.257-30.995-29.856-30.995-18.266 0-32.384 9.248-44.883 18.967h-.69V98.801l-1.849-1.379-57.622 6.009v2.31l7.398 5.318c7.18 5.1 7.41 6.02 7.41 16.198v75.866c0 10.649-.46 11.338-9.719 13.877l-4.159 1.16v3.93zM560.554 89.893c13.363 0 23.574-8.263 23.574-21.615 0-13.123-10.211-21.615-23.574-21.615-13.112 0-23.563 8.493-23.563 21.615 0 13.352 10.451 21.615 23.563 21.615M524.273 222.09h73.35v-3.93l-4.16-1.16c-9.259-2.539-9.718-3.228-9.718-13.877v-74.706c0-10.178.23-18.277.92-29.616l-1.85-1.379-59.932 6.009v2.08l7.41 5.318c7.168 5.09 7.858 6.02 7.858 16.187v76.107c0 10.649-.46 11.338-9.719 13.877l-4.159 1.16v3.93zM372.027 222.09h71.27v-3.93l-3.47-.92c-7.869-2.09-8.329-2.308-8.329-14.117v-80.496c3.93-.92 8.789-1.379 15.268-1.379 8.558 0 13.658 3.459 13.658 15.957v65.918c0 11.568-.24 12.028-8.328 14.118l-3.48.92v3.928h71.498v-3.929l-4.17-1.16c-9.258-2.539-9.948-2.999-9.948-13.877v-74.706c0-20.586-12.257-30.995-29.845-30.995-18.277 0-32.395 9.248-44.883 18.967h-.7V98.801l-1.85-1.379-57.621 6.009v2.31l7.409 5.318c7.168 5.1 7.41 6.02 7.41 16.198v75.866c0 10.649-.47 11.338-9.72 13.877l-4.17 1.16v3.93z"/><path d="M316.966 103.89c11.098 0 14.107 8.57 14.107 41.414l-31.005 2.31c.24-35.395 7.41-43.723 16.898-43.723m.92 120.978c26.375 0 44.652-14.578 52.521-25.675v-4.4c-6.457 4.783-17.664 8.099-30.162 8.099-24.757 0-39.477-8.788-40.177-49.03h75.198c-1.149-40.254-22.446-56.44-56.45-56.44-30.546 0-63.63 19.787-63.63 63.498 0 40.254 21.045 63.948 62.7 63.948"/><path d="M194.795 222.09h21.516l36.554-94.144c6.25-16.186 9.489-19.886 16.198-22.436l3.01-1.149v-3.94h-40.724v3.94l5.089 1.62c5.778 1.85 9.029 4.4 9.029 9.007 0 3.94-1.62 10.19-4.17 17.358l-16.427 48.111h-.7l-19.197-51.12c-2.08-5.32-3.25-9.249-3.25-13.648 0-5.78 2.79-7.858 9.028-9.708l5.32-1.62v-3.94h-80.518v3.94l3.47 1.15c6.019 2.09 8.098 4.629 14.577 19.896l41.195 96.682zM.5 222.09h135.13l3.24-61.53h-4.63c-6.71 17.117-11.569 27.066-18.277 38.174-7.64 12.258-10.88 15.497-28.467 15.497-16.427 0-17.817-3.01-17.817-15.497v-55.98h6.02c15.278 0 17.817 1.85 20.597 7.168 3.469 6.94 6.008 15.038 7.628 22.206h4.17V107.13h-4.17c-1.85 7.64-4.389 15.038-7.628 21.287-2.55 4.86-4.86 6.938-20.368 6.938H69.68V71.047c2.55-.69 6.567-1.38 15.826-1.38 13.417 0 19.437 2.77 26.375 13.867 5.09 8.099 9.49 16.657 15.497 30.776h4.4l-2.08-52.511H.5v3.929l6.25 1.62c8.558 2.32 10.177 2.78 10.177 18.736v111.73c0 15.958-1.62 16.417-10.178 18.726L.5 218.16v3.93zM928.37 387.775c-16.898 0-25.139-11.798-25.139-47.892 0-40.45 9.26-52.237 22.207-52.237 7.868 0 11.567 3.929 14.818 9.937v87.423c-2.78 1.16-7.256 2.77-11.885 2.77m-24.91 20.597c15.968 0 27.306-7.858 36.565-16.658h.692v14.578l3.01 2.08 55.772-8.1v-3.009l-5.56-2.08c-7.639-2.78-7.87-4.158-7.87-16.427V259.891c0-15.497.92-27.985.92-27.985l-1.849-1.39-61.78 5.32v3.239l9.247 5.089c6.72 3.7 7.65 4.618 7.65 15.957v23.136c-4.388-1.39-8.098-2.31-15.048-2.31-37.014 0-68.49 19.646-68.49 70.515 0 38.634 20.138 56.91 46.744 56.91M750.624 405.593h74.279v-4.16l-5.09-.918c-8.569-1.62-9.718-2.32-9.718-13.889V307.98c2.31-2.068 6.25-3.228 9.489-3.228 2.769 0 3.929 1.16 5.549 4.63 3.24 7.157 7.409 12.235 18.507 12.235 11.338 0 19.437-7.628 19.437-21.024 0-12.947-7.87-19.426-18.967-19.426-15.048 0-27.536 11.327-34.245 19.656h-.7v-18.496l-1.85-1.38-57.61 5.998v2.32l7.398 5.308c7.18 5.09 7.41 6.02 7.41 15.957v76.096c0 10.638-.471 11.338-9.72 13.889l-4.17 1.149v3.929zM555.027 387.775c-16.898 0-25.14-11.798-25.14-47.892 0-40.45 9.26-52.237 22.218-52.237 7.858 0 11.568 3.929 14.807 9.937v87.423c-2.78 1.16-7.267 2.77-11.885 2.77m-24.91 20.597c15.968 0 27.307-7.858 36.555-16.658h.71v14.578l3 2.08 55.76-8.1v-3.009l-5.548-2.08c-7.64-2.78-7.87-4.158-7.87-16.427V259.891c0-15.497.92-27.985.92-27.985l-1.838-1.39-61.792 5.32v3.239l9.259 5.089c6.709 3.7 7.639 4.618 7.639 15.957v23.136c-4.4-1.39-8.099-2.31-15.038-2.31-37.024 0-68.5 19.646-68.5 70.515 0 38.634 20.137 56.91 46.743 56.91M336.392 405.593h71.27v-3.93l-3.47-.93c-7.88-2.079-8.328-2.309-8.328-14.107v-80.495c3.929-.92 8.788-1.38 15.267-1.38 8.558 0 13.647 3.47 13.647 15.947v65.928c0 11.568-.23 12.028-8.328 14.107l-3.47.93v3.93h71.5v-3.93l-4.17-1.149c-9.248-2.55-9.948-3.01-9.948-13.888V311.92c0-20.575-12.258-30.972-29.846-30.972-18.277 0-32.395 9.237-44.893 18.944h-.69v-17.565l-1.849-1.38-57.61 5.998v2.32l7.398 5.308c7.168 5.09 7.409 6.02 7.409 16.187v75.866c0 10.638-.47 11.338-9.719 13.889l-4.17 1.149v3.929z"/><path d="M268.132 391.026c-6.249 0-11.338-4.86-11.338-20.827 0-16.187 4.17-20.816 14.578-21.517l5.33-.46v38.634c-1.62 2.78-4.63 4.17-8.57 4.17m-22.206 17.347c17.347 0 26.146-7.64 32.396-15.038h.919c3.47 9.719 12.728 15.038 27.306 15.038 16.657 0 26.354-5.834 31.235-10.792v-3.458c-2.08 0-7.398-.712-10.408-2.32-4.4-2.31-5.089-5.56-5.089-15.738v-62.076c0-24.494-19.207-33.041-48.834-33.041-39.563 0-56.45 10.627-56.45 26.343 0 9.707 6.249 15.026 18.747 15.026 13.878 0 18.737-5.089 19.897-24.964.46-8.317 3.47-9.477 9.248-9.477 9.489 0 11.809 7.398 11.809 28.663v22.195l-26.387 7.168c-19.667 5.33-37.944 11.339-37.944 33.545 0 18.058 12.958 28.926 33.555 28.926M682.364 391.026c-6.25 0-11.327-4.86-11.327-20.827 0-16.187 4.158-20.816 14.577-21.517l5.32-.46v38.634c-1.631 2.78-4.63 4.17-8.57 4.17m-22.206 17.347c17.358 0 26.146-7.64 32.395-15.038h.92c3.469 9.719 12.728 15.038 27.306 15.038 16.657 0 26.354-5.834 31.235-10.792v-3.458c-2.08 0-7.399-.712-10.408-2.32-4.4-2.31-5.09-5.56-5.09-15.738v-62.076c0-24.494-19.207-33.041-48.822-33.041-39.564 0-56.462 10.627-56.462 26.343 0 9.707 6.25 15.026 18.748 15.026 13.877 0 18.736-5.089 19.897-24.964.46-8.317 3.469-9.477 9.248-9.477 9.488 0 11.808 7.398 11.808 28.663v22.195l-26.386 7.168c-19.656 5.33-37.944 11.339-37.944 33.545 0 18.058 12.958 28.926 33.555 28.926M170.958 408.373c21.746 0 32.855-9.949 39.104-17.347v-3.94c-3.47.93-9.719 1.85-15.049 1.85-12.487 0-15.037-3.47-15.037-17.118v-75.395h27.766l1.85-12.476h-29.616v-32.385h-11.568c-7.64 17.117-25.96 32.089-46.087 39.487v5.374h12.072v75.166c0 25.916 10.649 36.784 36.565 36.784M57.016 408.373c40.724 0 65.447-25.818 65.447-56.353 0-25.216-15.99-40.57-52.784-53.277-24.756-8.788-31.235-15.957-31.235-28.214 0-13.188 9.215-21.276 23.092-21.276 9.03 0 16.23 2.08 24.79 11.327 8.328 9.03 12.936 21.046 18.484 33.074h4.86l-2.31-43.941c-8.328-3.93-22.906-7.169-42.113-7.169-36.795 0-62.668 21.363-62.668 51.887 0 25.654 10.65 41.063 44.894 52.631 24.756 8.33 38.261 12.39 38.261 33.195 0 14.337-11.36 21.407-26.167 21.407-12.729 0-23.202-4.86-31.76-15.498-7.18-9.029-13.2-19.896-20.368-34.474h-4.86l3.01 49.512c11.043 3.557 28.291 7.169 51.427 7.169M445.803 76.825h31.06v-2.364l-1.51-.404c-3.426-.909-3.634-1.007-3.634-6.15V33.474c1.718-.404 3.83-.613 6.654-.613 3.732 0 5.954 1.51 5.954 6.96v28.084c0 5.034-.1 5.242-3.634 6.15l-1.521.405v2.364h31.18v-2.364l-1.817-.503c-4.038-1.116-4.334-1.313-4.334-6.052V35.992c0-8.974-5.351-13.516-13.012-13.516-7.979 0-14.13 4.038-19.569 8.274h-.306v-7.661l-.8-.613-25.117 2.626v1.664l3.229 2.32c3.119 2.21 3.228 2.616 3.228 7.06v31.76c0 4.64-.208 4.936-4.235 6.052l-1.817.503v2.364z"/><path d="M417.38 74.461c-5.844 0-8.372-2.178-8.372-25.358 0-20.269 3.13-23.048 7.869-23.048 5.045 0 8.47 1.871 8.47 24.854 0 21.878-2.714 23.552-7.967 23.552m-.197 3.568c14.414 0 28.74-7.562 28.74-27.919 0-18.857-13.921-27.634-28.74-27.634-14.129 0-28.75 7.562-28.75 28.028 0 18.759 13.822 27.525 28.75 27.525M356.683 69.066c-7.355 0-10.375-5.144-10.375-20.871 0-17.653 4.027-22.14 9.674-22.14 3.426 0 5.046 1.718 6.458 4.334V67.85c-1.215.503-3.732 1.215-5.757 1.215m-10.277 8.963c6.95 0 11.897-3.425 15.935-7.256h.295v6.359l1.314.897 24.307-3.524v-1.959l-2.419-.908c-3.327-1.204-3.425-1.817-3.425-7.158V13.304c0-6.752.394-12.203.394-12.203l-.8-.601-26.934 2.32v2.058l4.039 2.221c2.922 1.62 3.327 2.014 3.327 6.961v9.423c-1.916-.59-3.535-1.007-6.556-1.007-16.132 0-29.856 8.57-29.856 30.754 0 16.843 8.777 24.8 20.378 24.8M261.095 76.825h31.071v-2.364l-1.51-.404c-3.437-.909-3.634-1.007-3.634-6.15V33.474c1.719-.404 3.83-.613 6.654-.613 3.732 0 5.954 1.51 5.954 6.96v28.084c0 5.034-.11 5.242-3.633 6.15l-1.51.405v2.364h31.158v-2.364l-1.806-.503c-4.038-1.116-4.345-1.313-4.345-6.052V35.992c0-8.974-5.34-13.516-13.013-13.516-7.956 0-14.118 4.038-19.557 8.274h-.307v-7.661l-.81-.613-25.117 2.626v1.664l3.24 2.32c3.119 2.21 3.217 2.616 3.217 7.06v31.76c0 4.64-.197 4.936-4.235 6.052l-1.817.503v2.364z"/><path d="M232.377 74.461c-5.844 0-8.372-2.178-8.372-25.358 0-20.269 3.13-23.048 7.869-23.048 5.045 0 8.47 1.871 8.47 24.854 0 21.878-2.724 23.552-7.967 23.552m-.197 3.568c14.425 0 28.74-7.562 28.74-27.919 0-18.857-13.921-27.634-28.74-27.634-14.118 0-28.75 7.562-28.75 28.028 0 18.759 13.822 27.525 28.75 27.525M140.762 76.825h57.59l2.013-28.127h-2.66c-3.03 7.661-5.964 14.316-8.372 18.343-3.338 5.549-3.786 6.446-11.36 6.446-6.348 0-7.059-1.204-7.059-6.544V18.186c0-6.95.503-7.355 4.443-8.165l3.327-.7V6.957h-37.922V9.32l2.715.7c3.743 1.007 4.443 1.215 4.443 8.165v47.4c0 6.96-.7 7.157-4.443 8.175l-2.715.7v2.364z"/></g></svg>