<?xml version="1.0" encoding="UTF-8"?>
<svg width="48px" height="48px" viewBox="0 0 48 48" version="1.1" xmlns="http://www.w3.org/2000/svg" xmlns:xlink="http://www.w3.org/1999/xlink">
    <!-- Generator: Sketch 50.2 (55047) - http://www.bohemiancoding.com/sketch -->
    <title>Icons/notification</title>
    <desc>Created with Sketch.</desc>
    <defs></defs>
    <g id="Icons/notification" stroke="none" stroke-width="1" fill="none" fill-rule="evenodd">
        <rect id="Rectangle-2" fill="#00A4DB" x="0" y="0" width="48" height="48" rx="6"></rect>
        <g id="Group-2" transform="translate(14.000000, 12.000000)" fill="#FFFFFF">
            <g id="Group">
                <path d="M9.14285714,24 C7.88571429,24 6.85714286,22.9714286 6.85714286,21.7142857 C6.85714286,21.4857143 6.91428571,21.3142857 6.91428571,21.1428571 L11.3142857,21.1428571 C11.3714286,21.3142857 11.3714286,21.5428571 11.3714286,21.7142857 C11.4285714,22.9714286 10.4,24 9.14285714,24 Z M18.5714286,19.5428571 L0,19.5428571 L0,18 C0,17.8285714 0.114285714,17.6 0.228571429,17.4857143 C0.228571429,17.4857143 2.22857143,15.3714286 2.22857143,9.71428571 C2.22857143,5.31428571 5.2,3.48571429 7.6,2.91428571 L7.6,1.65714286 C7.6,0.742857143 8.34285714,0 9.25714286,0 C10.1714286,0 10.9142857,0.742857143 10.9142857,1.65714286 L10.9142857,2.91428571 C13.3142857,3.48571429 16.2857143,5.31428571 16.2857143,9.71428571 C16.2857143,15.3714286 18.2857143,17.4857143 18.2857143,17.4857143 C18.4,17.6 18.5142857,17.8285714 18.5142857,18 L18.5142857,19.5428571 L18.5714286,19.5428571 Z" id="Combined-Shape"></path>
            </g>
        </g>
    </g>
</svg>