<svg width="148" height="24" viewBox="0 0 148 24" xmlns="http://www.w3.org/2000/svg"><title>pr-thetelegraph</title><path d="M19.074 21.979c2.652-.253 5.305-1.137 5.305-3.916V9.095l-1.263-1.263-1.39 1.263v6.694l1.137 1.011-2.526 2.274h-.126l-2.527-2.148.632-.631V2.653c0-1.01-.884-1.516-1.39-1.642V.758a2.522 2.522 0 0 1 1.137-.253c.884 0 1.642.506 1.895 1.137h.126C20.59.884 21.474.505 22.232.505c.252 0 .505 0 .757.127v.252c-.378.127-1.136.632-1.136 2.021V8.59l3.41-3.157h.253c.252.252 1.642 1.515 2.02 1.768.127.126.253.126.506.126s.505-.126.758-.252v.379c-.253.252-.632.631-.632 1.263v7.705c0 3.41-3.79 5.558-8.842 5.937v-.38h-.252zM17.81.884c.505.38 1.01.758 1.01 1.642v14.021l-.505.506 2.147 1.768.632-.505-1.642-1.39.252-.252V2.653C19.58 1.516 18.568 1.01 17.811.884zm5.936 20.21c1.01-.63 2.021-1.389 2.021-2.905v-9.6l-1.515-1.642-.758.632 1.263 1.39v9.094c.126 1.263-.38 2.274-1.01 3.032zM30.063 8.59c1.516-.757 3.663-2.02 5.18-3.157h.252c1.01 1.01 2.4 2.652 3.663 3.79v.252L33.6 13.01v2.273c.505.38 2.147 1.137 3.158 1.516l2.274-2.147.252.252-4.42 4.295h-.253a83.532 83.532 0 0 1-4.674-2.147c.126-.506.252-1.642.252-3.032V8.59h-.126zm5.18 9.727c-1.517-.632-2.78-1.263-4.043-1.895.126-.379.126-1.01.126-2.4V8.337l-.884.505v5.18c0 1.389 0 2.4-.126 2.778 1.137.632 2.779 1.39 4.295 2.021l.631-.505zM33.6 12.632l2.526-1.643c-.884-1.01-1.768-2.02-2.526-2.778v4.42zm.758-5.558l-.632.505c.758.884 1.769 2.021 2.78 3.158l.757-.505a56.598 56.598 0 0 1-2.905-3.158zm103.958 14.905c2.652-.253 5.305-1.137 5.305-3.916V9.095l-1.263-1.263-1.39 1.263v6.694l1.137 1.011-2.526 2.274h-.253l-2.526-2.148.632-.631V2.653c0-1.01-.885-1.516-1.39-1.642V.758a2.522 2.522 0 0 1 1.137-.253c.884 0 1.642.506 1.895 1.137h.126c.505-.758 1.39-1.137 2.147-1.137.253 0 .506 0 .758.127v.252c-.379.127-1.137.632-1.137 2.021V8.59l3.285-3.157h.252c.253.252 1.642 1.515 2.021 1.768.127.126.253.126.506.126.252 0 .505-.126.757-.252v.505c-.252.253-.631.632-.631 1.263v7.58c0 3.41-3.79 5.557-8.842 5.936v-.38zM137.053.884c.379.253 1.01.758 1.01 1.642v13.895l-.505.505 2.147 1.769.632-.506-1.642-1.389.252-.253V2.653c-.126-1.137-1.136-1.642-1.894-1.769zm5.81 20.084c1.01-.631 2.021-1.39 2.021-2.905V8.59l-1.516-1.642-.631.632L144 8.969v9.094c.126 1.263-.379 2.274-1.137 2.905zM62.78 8.59c1.516-.757 3.663-2.02 5.179-3.157h.253c1.01 1.01 2.4 2.652 3.536 3.663v.252l-5.431 3.537v2.274c.631.379 2.147 1.137 3.158 1.516l2.273-2.148.253.253-4.421 4.295h-.253a83.532 83.532 0 0 1-4.673-2.148c.126-.505.252-1.642.252-3.031V8.589h-.126zm5.053 9.727c-1.516-.632-2.78-1.263-4.043-1.895.127-.379.127-1.01.127-2.4V8.337l-.758.379v5.179c0 1.39 0 2.4-.126 2.779 1.136.631 2.779 1.39 4.294 2.02l.506-.378zm-1.516-5.81l2.526-1.643c-.884-1.01-1.768-2.02-2.526-2.779v4.421zm.758-5.432l-.758.505c.758.884 1.768 2.021 2.779 3.158l.758-.505c-1.01-1.137-2.021-2.274-2.78-3.158zm9.726-4.8v13.263c0 .505.505 1.137 1.01 1.263l.758-.758.253.253-2.779 2.905h-.253c-1.01-.253-2.526-1.263-2.526-2.905V3.915l-.758-.757-.884.884-.253-.253L74.526.505h.253L76.8 2.274zm-.379 15.915c-1.01-.252-2.021-.884-2.021-2.273V3.41l-1.137-1.137-.631.631 1.01.884v12.506c0 1.39 1.137 2.273 2.147 2.526l.632-.632zm3.663-9.6c1.516-.757 3.663-2.02 5.18-3.157h.252c1.01 1.01 2.4 2.652 3.537 3.663v.252l-5.432 3.537v2.274c.505.379 2.147 1.137 3.158 1.516l2.274-2.148.252.253-4.42 4.295h-.253a83.532 83.532 0 0 1-4.674-2.148c.126-.505.253-1.642.253-3.031V8.589h-.127zm5.053 9.727c-1.516-.632-2.78-1.263-4.042-1.895.126-.379.126-1.01.126-2.4V8.337l-.758.379v5.179c0 1.39 0 2.4-.126 2.779 1.137.631 2.779 1.39 4.295 2.02l.505-.378zm-1.516-5.81l2.526-1.643c-.884-1.01-1.768-2.02-2.526-2.779v4.421zm.758-5.432l-.632.505c.758.884 1.769 2.021 2.78 3.158l.63-.505a258.125 258.125 0 0 1-2.778-3.158zm22.484 2.02v6.443c0 .505.505 1.137 1.01 1.137l.759-.758.252.252-2.779 2.906h-.126c-1.01-.253-2.526-1.137-2.526-2.906V8.842l-.758-.758-.884.758-.253-.253 3.158-3.157h.252l2.021 2.02V8.59l2.527-3.031h.252c.506.505 1.264 1.263 2.021 1.768l-2.147 2.527c-.631-.506-1.39-1.264-1.895-1.642l-.884.884zm-.252 9.095c-1.011-.252-2.022-.884-2.022-2.273v-7.58L103.58 7.2l-.632.632.885.884v7.452c0 1.39 1.136 2.274 2.147 2.527l.632-.506zM108 7.958c.379.379 1.01 1.01 1.516 1.39l.505-.632c-.505-.38-1.263-1.137-1.642-1.39l-.379.632zm7.074 11.242l-3.032-2.021v-4.042c.758-.505 2.4-1.642 3.158-2.148-1.263-.631-2.274-1.389-2.905-2.273v-.253c1.768-1.01 3.158-2.02 4.168-3.031h.253s3.79 1.768 3.916 1.894c.252.127.379.127.505.127.252 0 .505-.127.758-.253v.379c-.253.253-.632.632-.632 1.137v6.695c0 .757.632 1.136 1.137 1.263l.758-.758.253.252-2.78 2.906h-.126c-1.137-.253-2.4-1.39-2.526-2.653l-2.653 2.653h-.252v.126zm.631-1.01l-2.526-1.643v-3.79l-.758.506v3.663l2.779 1.769.505-.506zm2.148-6.569V9.6l-3.664-1.895c-.252.253-1.263.758-1.515 1.01.884 1.011 3.158 2.4 5.179 2.906zm3.284 6.568c-1.01-.378-2.021-1.01-2.021-2.4V8.842l-3.79-1.895c-.126.127-.505.38-.631.506l3.663 1.894v6.821c0 1.264 1.263 2.274 2.147 2.653l.632-.632zm-3.284-2.147V12c-.758-.253-1.642-.505-2.4-.884v5.052l1.39.885 1.01-1.01zm-27.41 1.01V8.59l4.546-3.157h.253c.884.379 3.79 1.642 4.042 1.768.127 0 .253.126.505.126.253 0 .506-.126.885-.252v.505c-.253.253-.632.758-.632 1.137v7.2c0 1.642.38 2.652 1.01 3.284v.253A150.36 150.36 0 0 0 96.759 24h-.126c-1.01-.505-2.653-1.01-3.916-1.01-1.01 0-2.148.252-2.905.884l-.253-.127c.758-1.768 2.4-3.663 4.547-3.663 1.263 0 3.032.505 4.548 1.39-1.01-1.137-1.895-3.285-1.895-4.927l-2.653 2.527h-.252l-3.41-2.021zm2.146 4.927c-1.01 0-1.894.505-2.4 1.137v.126c.632-.379 1.264-.505 2.4-.505 1.264 0 3.032.379 3.916.884l.506-.632c-1.137-.505-2.78-1.01-4.422-1.01zM93.6 18.82l.632-.505-2.653-1.895V8.337l-.758.505v8.084l2.779 1.895zm4.042-10.484l-3.79-1.516v.758l2.906 1.263v7.58c0 1.641.758 3.41 1.895 4.8l.631-.633c-1.01-1.263-1.642-2.652-1.642-4.294V8.337zm-1.137 7.705V9.095L93.98 7.958v7.958l1.642 1.01.884-.884zm32.337-7.453l3.284-3.157h.253c.253.252 1.768 1.642 2.021 1.768.126.126.253.126.379.126.253 0 .505-.126.758-.252v.505c-.253.253-.632.758-.632 1.263v8.084c-1.39.38-2.526 1.137-3.79 2.527h-.126l-2.147-.506v1.769l1.137 1.01L127.326 24h-.126l-2.526-2.147.631-.758v-3.032c-.252 0-.758-.126-1.01-.252v-.38c.252-.126 1.137-.884 1.137-1.515V8.968l-.758-.757-.885.884-.252-.253 3.158-3.158h.252l2.021 2.021v.884h-.126zm-3.158 12.758l-.505.506 2.021 1.768.632-.505-1.643-1.39.253-.252V8.337L125.305 7.2l-.505.505.884.884v12.758zm5.684-4.926V9.095l-1.263-1.263-1.39 1.263v6.694c.632.253 2.4.506 2.653.632zm-.379 2.653c.127-.253.38-.506.506-.632l-2.78-.505v.758l2.274.379zm-.631-11.369l1.39 1.39v7.326l.757-.379V8.59l-1.516-1.515-.631.631zM1.01 11.747c0-3.284 2.4-5.431 4.673-6.442l.127.253c-.758.884-1.264 1.768-1.264 3.79 0 2.273.632 3.789 1.516 4.8.253-.38.505-.885.505-1.39V9.474l4.043-2.906.126.253a2.812 2.812 0 0 0-.505 1.642v2.148c0 1.515-2.4 3.157-3.916 3.663 1.01 1.01 2.4 1.39 3.916 1.39.505 0 1.01 0 1.515-.127V6.316c-1.39-.127-2.652-.38-3.79-.758-1.262-.38-2.525-.758-3.536-.758C2.78 4.8.758 5.305.758 7.705v.758l-.38.126C.127 7.832 0 7.074 0 6.442c0-2.905 2.147-5.431 5.558-5.431 1.39 0 2.779.378 4.042.757 1.263.38 2.526.758 3.79.758.631 0 1.01-.379 1.01-1.01 0-.632-.253-.884-.758-1.01V.252c1.516.252 3.032 1.136 3.032 3.031.126 1.895-1.516 3.032-4.295 3.032h-.253v9.347c1.769-.379 3.032-1.137 3.916-2.652l.253.126c-1.01 3.158-3.41 6.19-7.58 6.19-4.168 0-7.704-2.527-7.704-7.58zM12.379 5.18c-3.032 0-5.81-1.516-7.958-1.516-1.516 0-3.158.632-3.663 2.274h.126C1.516 4.8 3.032 4.42 4.421 4.42c2.274 0 4.926 1.516 7.958 1.516 2.4 0 3.916-.884 4.042-2.78h-.126c-.253 1.517-1.516 2.022-3.916 2.022zM3.663 7.074C2.526 8.21 1.516 9.726 1.516 11.747c0 4.8 3.158 7.2 7.326 7.2 2.526 0 4.295-1.39 5.305-2.4l-.126-.126c-1.137 1.01-2.779 1.768-5.305 1.768-3.284 0-6.442-2.02-6.442-6.442 0-1.768.631-3.536 1.39-4.673zm4.042 5.431V8.968l-.758.632v3.284c0 .38-.126.632-.126.884h.126c.38-.379.758-.757.758-1.263zm38.274-.758c0-3.284 2.4-5.431 4.674-6.442l.126.253c-.884 1.01-1.39 1.895-1.39 3.79 0 2.273.632 3.789 1.516 4.8.253-.38.506-.885.506-1.39V9.474l4.168-3.032.126.253c-.379.505-.505 1.01-.505 1.768v2.148c0 1.515-2.4 3.157-3.916 3.663 1.01 1.01 2.4 1.39 3.916 1.39.505 0 1.01 0 1.516-.127V6.316c-1.39-.127-2.653-.38-3.79-.758-1.263-.38-2.526-.758-3.537-.758-1.642 0-3.663.505-3.663 2.905v.758l-.252.126c-.253-.757-.38-1.515-.38-2.147 0-2.905 2.148-5.431 5.559-5.431 1.39 0 2.779.378 4.042.757 1.263.38 2.526.758 3.79.758.63 0 1.01-.379 1.01-1.01 0-.632-.253-.884-.758-1.01V.252c1.516.252 3.031 1.136 3.031 3.031 0 2.274-1.642 3.284-4.42 3.284h-.253v9.348c1.768-.38 3.031-1.137 3.916-2.653l.252.126c-1.01 3.158-3.41 6.19-7.579 6.19-4.168-.253-7.705-2.779-7.705-7.832zM57.347 5.18c-3.031 0-5.81-1.516-7.958-1.516-1.389 0-3.031.632-3.663 2.274h.127C46.484 4.8 48 4.42 49.389 4.42c2.274 0 4.927 1.516 7.958 1.516 2.4 0 3.916-.884 4.042-2.78h-.126c-.379 1.517-1.516 2.022-3.916 2.022zm-8.715 1.895c-1.137 1.137-2.148 2.652-2.148 4.673 0 4.8 3.158 7.2 7.327 7.2 2.526 0 4.294-1.39 5.305-2.4l-.127-.126c-1.136 1.01-2.778 1.768-5.305 1.768-3.284 0-6.442-2.02-6.442-6.442 0-1.768.632-3.536 1.39-4.673zm4.042 5.431V8.968l-.758.506v3.284c0 .379-.127.631-.127.884h.127c.379-.253.758-.631.758-1.137z" fill="#727B8B" fill-rule="nonzero"/></svg>