<svg width="140" height="18" viewBox="0 0 140 18" xmlns="http://www.w3.org/2000/svg" xmlns:xlink="http://www.w3.org/1999/xlink"><title>pr-thetimes</title><defs><path id="a" d="M0 .486h140.512v18.028H0z"/><path id="c" d="M.39.03H139.63v16.73H.39V.03z"/><path id="e" d="M0 .486h140.512v18.028H0z"/><path id="g" d="M139.631.03v16.73H.39V.03z"/></defs><g fill="none" fill-rule="evenodd" opacity=".6"><g transform="matrix(1 0 0 -1 .237 18.17)"><mask id="b" fill="#fff"><use xlink:href="#a"/></mask><g mask="url(#b)"><path d="M9.518 2.084h-6.51v.17l1.816.879v10.809H4.81s-.536.005-1.03-.126c-.236-.082-.507-.169-.876-.516-.37-.348-2.305-2.382-2.305-2.382L.39 11l.29 3.521h10.934l.364-3.52-.21-.083S9.835 12.952 9.465 13.3c-.37.347-.64.434-.877.516-.493.131-.919.118-.919.118V3.133l1.845-.865.005-.184zM93.755 2.084h-6.512v.17l1.817.879v10.809h-.014s-.537.005-1.03-.126c-.237-.082-.507-.169-.877-.516-.37-.348-2.305-2.382-2.305-2.382l-.208.082.289 3.521H95.849l.363-3.52-.207-.083S94.07 12.952 93.7 13.3c-.37.347-.64.434-.877.516-.494.131-.918.118-.918.118V3.133l1.844-.865.006-.184zM25.097 13.473l1.485.864.004.184h-5.799v-.17l1.502-.856V8.86l-5.57-.038v4.65l1.485.865.005.184H12.41v-.17l1.5-.872V3.11l-1.5-.856v-.17h5.8l-.006.183-1.485.865v4.993l5.57-.038V3.11l-1.502-.856v-.17h5.8l-.005.183-1.485.865z" fill="#14233D"/></g></g><g transform="matrix(1 0 0 -1 .237 17.608)"><mask id="d" fill="#fff"><use xlink:href="#c"/></mask><g mask="url(#d)"><path fill="#14233D" d="M98.133 2.552l-1.501-.857v-.17h5.799l-.004.184-1.486.865v10.34l1.486.865.004.183h-5.799v-.169l1.5-.856zM61.685 12.508l.098-.274.055.024s.006.175.048.187c.044.013.208.07.221.038.012-.032.135-.61.16-.685.024-.075.01-.112-.025-.125a.39.39 0 0 1-.086-.05l.012-.056s.147.018.202.037c.055.019.19.032.19.032l-.007.055s-.085 0-.11.075a9.804 9.804 0 0 0-.128.71c0 .038.043.075.098.081.055.007.159.045.19.013.03-.031.073-.137.073-.137l.05.018-.05.262s-.355-.043-.489-.08c-.135-.037-.502-.125-.502-.125zm-.361-.206s.08 0 .098-.031c.019-.031.281-.692.294-.73.012-.037-.05-.099-.05-.099l.031-.062.251.125-.006.043s-.08-.025-.11.025c-.031.05-.288.68-.312.741-.025.063.042.1.042.1l-.024.069-.244-.106.03-.075zm-.606-.162c-.123-.097-.342-.436-.11-.729.233-.293.484-.386.674-.268.189.118.268.499.048.822-.22.325-.502.262-.612.175zm.086-.143c-.092-.074-.208-.287-.03-.53.177-.243.36-.249.446-.187.086.062.123.225-.019.467-.14.244-.287.337-.397.25zm-.666-.343l-.007-.062s-.104-.02-.22-.062c-.116-.044-.208-.206-.202-.293.006-.088.153-.193.36-.2.208-.006.392.013.454-.043.06-.056.012-.212-.135-.23-.147-.02-.275.08-.275.08l-.018-.044.293-.323.006.124s.098.056.215.075c.116.019.134.262.079.368-.055.105-.16.155-.233.149-.073-.006-.458-.05-.599.038-.14.086.184.23.25.23.068 0 .27-.087.27-.087l.03.043-.244.293-.024-.056zm-.76-.822l-.208-.375.044-.024s.085.069.122.037c.037-.031.55-.368.593-.386.043-.019.043-.062.043-.062l-.024-.063.049-.018.214.373-.055.056s-.061-.074-.092-.093a.124.124 0 0 0-.122.006 15.95 15.95 0 0 0-.484.343c-.024.025-.049.075-.03.106.018.031.043.05.043.05l-.092.05zm.377-.22l.222-.014-.097.198h-.195l.07-.184zm6.082-5.98l-.517-.61.18-.201.025.016s-.017.15-.008.201c.008.05.246.218.246.218l.222-.226s-.05-.084-.099-.142c-.049-.059-.164.017-.164.017l-.033-.034.263-.217.016.034s-.033.074-.008.117c.025.041.14.133.14.133l.287-.192-.05-.076c-.049-.074-.22-.2-.28-.234-.056-.033-.122.025-.122.025l-.049-.05.213-.176.6.644-.042.017s-.106-.033-.18.017-.558.452-.608.502c-.049.05 0 .184 0 .184l-.032.033zm.41.51l-.033-.034.05-.084s-.197-.091-.222-.15c-.025-.058-.115-.242.074-.35.189-.11.37-.034.476.016.106.05.271.1.328.017.058-.084 0-.192-.065-.251a.308.308 0 0 0-.19-.084c-.049 0-.147.017-.147.017l-.058-.033.345-.251.042.05-.058.109s.312.2.32.275c.008.076-.016.252-.115.327-.098.075-.246.1-.345.033a.98.98 0 0 0-.311-.142c-.066-.008-.263.067-.157.167.107.1.206.176.296.125.09-.05.148-.066.148-.066l.032.075-.41.234zm.32.895l-.09-.201.057-.026s.033.1.09.068c.058-.034.575-.184.575-.184l-.845-.301-.05-.025s.838-.401.87-.435c.033-.034.059-.184.059-.184l.032-.025.164.368-.05.008s-.015-.067-.09-.067h-.115l-.59.293.985.326.098.2-.05.017s-.024-.117-.081-.117-.78.185-.83.193c-.049.008-.073.1-.073.1l-.058.034-.008-.042zm.148.668c0-.05-.115-.442-.115-.442l.287-.11.01.068s-.158.1-.174.133c-.016.034.057.243.057.243l.41-.067s-.023-.092-.032-.15c-.008-.059-.09-.059-.09-.059v-.067l.263-.042-.009.058s-.066.025-.066.067.033.168.033.168l.345-.05s-.016-.084-.016-.15c0-.068-.025-.151-.074-.16-.05-.008-.098-.025-.098-.025v-.067l.213-.05.082.744-.04-.008s-.05-.1-.1-.1c-.049 0-.714.108-.763.125-.05.017-.066.159-.066.159l-.04-.008s-.017-.16-.017-.21zm.525.577s.009-.167.009-.209c0-.041.04-.075.122-.075.083 0 .132-.008.198.017.065.025.09.083.082.134-.009.05-.017.142-.017.142l-.394-.009zm-.533-.091h.065s.008.1.066.1h.238s.008-.142.008-.218c0-.075.074-.217.149-.226.073-.008.205-.024.31-.008.108.017.214.193.214.276 0 .083-.008.452-.008.452h-.065s-.042-.1-.1-.11c-.056-.008-.68 0-.746 0-.066 0-.066.093-.066.093h-.04l-.025-.36zm.862 1.688l-.041-.017s-.008-.083-.05-.133a3.75 3.75 0 0 1-.23-.318c-.024-.05-.04-.092-.09-.108a2.83 2.83 0 0 0-.386-.05c-.057 0-.09.1-.09.1l-.04-.009s.04-.159.04-.209c0-.05.016-.192.016-.192l.041-.009s.017.084.017.118c0 .033.008.058.05.05a4.26 4.26 0 0 1 .377.025s.353-.276.402-.301c.05-.025.04-.134.04-.134l.059.009.024.191c.008.06-.008.193-.008.193h-.066v-.083c0-.026-.024-.034-.082 0-.057.033-.311.209-.311.209s.22.342.254.384c.033.041.115-.059.115-.059h.049l-.066.326-.024.017zm-.287.711s.033-.126-.026-.15c-.057-.026-.566-.201-.672-.243-.107-.042-.14.1-.14.1l-.057-.041s.082-.243.098-.318c.017-.076.082-.31.082-.31l.304.067.016.067s-.254 0-.27.034c-.017.033-.025.109-.033.158-.009.05.008.084.04.092.033.009.632.234.698.251.066.017.075-.024.075-.024l.082.007-.108.335-.09-.025zm-.846.46l.107-.243.37.343-.477-.1zm-.493.033l.173-.242.05.017s-.026.074-.034.116c-.008.042-.008.05.05.068.057.016.09.016.114.016.025 0 .05-.05.05-.05s.082-.192.09-.226c.008-.033-.008-.091-.008-.091s-.05-.06-.082-.076c-.033-.017-.074.1-.074.1l-.05-.024.124-.335.057.033s-.025.067 0 .1c.025.034.722.737.722.737l-.016.05-.97-.168c-.048-.008-.13.034-.13.034l-.066-.059zm-.303 1.84l-.04-.059s.056-.075.072-.1c.017-.025 0-.092-.024-.126-.025-.033-.304-.526-.336-.568-.033-.041-.067-.034-.1-.017-.032.017-.065.025-.065.025l-.024-.042.213-.226.05.042s-.01.042.016.11c.024.067.312.593.328.626.017.034.066.043.066.043l-.296-1.013.936.26s-.46-.385-.51-.418c-.048-.034-.081-.042-.106-.017-.024.025-.05.067-.05.067l-.048-.042.172-.276.074.058s-.025.06.017.092c.04.034.55.527.574.536.025.008.09-.076.09-.076l.05.034-.14.234-.861-.21.229.812-.287.25zm-.51.284l-.023-.05s.04-.034.065-.05c.024-.017 0-.067-.009-.109-.007-.042-.287-.594-.303-.652-.017-.059-.05-.05-.083-.042-.032.008-.09.034-.09.034l-.033-.05s.14-.068.19-.101c.048-.033.148-.084.148-.084l.033.068s-.026.066-.05.074c-.024.01.017.067.024.101.009.034.272.568.288.602.016.034.074.05.107.042a3.93 3.93 0 0 1 .073-.017l.025.059-.362.175zm-.754.284l-.304.117-.016-.075s.115-.042.09-.083c-.025-.042-.09-.352-.156-.594s.082-.351.197-.418c.116-.067.32-.026.361.05.041.075.288.594.304.644.017.05.131.008.131.008l.042.076s-.083.016-.149.075c-.066.058-.213.108-.213.108l-.024-.05s.065-.058.09-.067c.025-.008.032-.058.025-.1-.01-.042-.206-.443-.214-.468-.009-.025-.074-.083-.164-.126-.09-.041-.271.084-.271.176 0 .092.172.568.189.635.016.067.057.034.057.034l.025.058zM58.82 9.673c-.05-.034-.123-.201-.123-.201l.025-.017s.032.067.098.05c.066-.016.64-.226.69-.25.048-.026.04-.118.04-.118l.033-.016.123.35-.049.025s-.025-.1-.082-.1c-.058 0-.533.21-.533.21s.516.074.615.1c.098.025.222.033.222.033l.058.126s-.707.309-.748.318c-.04.008-.025.058-.008.108l.016.05-.057.017s-.107-.142-.14-.2c-.032-.06-.098-.21-.098-.21l.057-.008s.14.116.214.092c.073-.025.566-.217.566-.217s-.304-.009-.41-.042a7.024 7.024 0 0 0-.51-.1zm-.271-.67c-.036-.157-.09-.392.246-.484.337-.092.673-.11.772.217.098.326-.271.443-.435.477-.164.033-.534.008-.583-.21zm.132-.025c-.026-.08-.083-.259.139-.325.222-.068.476-.042.517-.042.041 0 .082.116.098.217.017.1-.016.108-.18.167-.164.059-.533.118-.574-.017zm4.358 3.562c-.005-.091-.058-.468-.041-.627.016-.159.205-.3.287-.293.082.009.19.025.19.025l.023-.032c.025-.034.181-.177.271-.177.09 0 .222.043.222.043s-.107.024-.197.066c-.09.042-.197.167-.197.167s.074.118.107.201c.032.084.032.176.05.46.015.284-.24.416-.354.41-.156-.009-.353-.092-.36-.243zm.123-.1c-.008-.109-.04-.26-.025-.535.017-.276.271-.151.271-.151s-.107.126.008.176c.061.027.099-.067.099-.067s.065.217.065.402c0 .184-.074.34-.196.35-.1.009-.214-.066-.222-.175zm-4.695-3.972s-.033-.192-.033-.25v-.193h.058s.008.117.049.117h.222l.016-.51h-.246c-.033 0-.074.143-.074.143l-.058.008-.008-.452h.066s.04.134.115.126c.074-.008.583.008.632.008.05 0 .107-.125.107-.125l.04-.009s.033.15.017.218a.787.787 0 0 0 .008.217l-.065-.008s-.025-.126-.107-.134c-.082-.008-.28.017-.28.017l.017.493s.23-.033.28-.033c.048 0 .098-.043.098-.084 0-.042-.008-.084-.008-.084l.082.034s.008.142.008.192c0 .05.032.15.032.15l-.065.01s-.008-.051-.066-.051-.632.033-.697.041c-.066.01-.058.143-.058.143l-.082.016zm8.652-.719c.138.017.049.159-.042.15-.098-.008-.098-.166.042-.15zm-.149.686c.123.008.123.177-.008.16-.123-.018-.114-.168.008-.16zm-1.731 3.119c-.057-.07.024-.209.13-.11.107.101-.057.201-.13.11zm-2.578.434c.004-.075.18-.067.173.034-.009.1-.181.134-.173-.034zm2.257-4.826c-.015-.091.044-.136.103-.182.06-.045-.03-.077-.103-.03-.075.045-.09.075-.194.06-.104-.015-.134-.06-.075-.091.06-.03.134 0 .15-.06.014-.062-.195-.047-.254-.047-.06 0-.134-.014-.074-.075.059-.06.03-.046.119-.046h.193s.164-.015.164-.09v-.653c0-.107.105-.228.105-.228s-.03.122.06.182c.089.061.118.016.133.106.015.092.179.153.224.289.044.137.03.288.104.41.075.121.149.257.149.333 0 .077-.045.015-.09-.06-.044-.077-.134-.183-.178-.274-.046-.09-.075-.287-.09-.349-.014-.06-.104-.106-.104-.106s.045.32.045.395c0 .076.03.137.119.228.09.09.149.121.105.181-.045.062-.045.107-.045.107l-.105.107-.06-.107h-.401zm-6.809-.35c0-.09-.03-.151.18-.136.207.015.282.092.282.092s-.015.106.045.12c.06.015.282.047.327.061.045.015.045-.09.104-.09.06 0 .567.151.656.181.09.03-.008.495-.005.617.025.928.375 2.649 1.88 3.286 1.505.638 2.669.331 3.22-.124.552-.455 1.654-1.457 1.624-3.126-.03-1.67-.358-2.534-1.028-3.187-.67-.652-.91-.835-.91-.835l.91-1.198.164.06-.82 1.108.135.107s.849-1.184.908-1.215c.06-.03.12.091.12.091l-.88 1.153.075.077.983-1.138s.954.743 1.297 1.623c.342.88 1.355 2.61.03 6.025-.507 1.302-1.728 1.988-1.728 1.988a.165.165 0 0 0-.15-.076c-.074 0-.986.707-2.383.726-1.043.013-2.293-.425-2.697-.802-.179-.167-.327 0-.327 0s-.913-.885-1.267-1.685c-.492-1.107-.656-1.88-.745-2.382-.09-.5 0-1.32 0-1.32zM80.054 3.49l.089.061-.06.121-.103-.06.074-.122zm-.224-.152l.12.077-.075.106-.119-.077.074-.106zm-5.512-.06l.149-.728.015-.046s.194-.061.313-.061c.12 0 .074.274.03.38-.045.106-.12.349-.254.425a1.107 1.107 0 0 1-.268.106l.015-.076zm-12.18 6.091c-.009-.058 0-.109.04-.075.042.033.025.176.017.243 0 0-.05-.109-.058-.168zm-.15.31s-.065-.125-.065-.225c0-.101.008-.11.074-.093.066.016-.008.226-.017.302l.009.017zm-.14.453c-.024-.041.01-.041.026-.108.016-.068-.033-.068-.033-.134 0-.068.024-.806.024-.89 0-.083.066-.167.14-.176.075-.008.082.067.067.134-.017.068-.1.076-.107.118-.009.042.024.067.073.05.05-.017.182-.286.182-.37 0-.083-.066-.032-.133 0-.065.035-.14.01-.205-.032-.066-.043.074-.512.074-.596 0-.084-.099-.067-.132-.117-.033-.051.182-.051.305-.034.124.016-.016.117-.057.218a.641.641 0 0 0-.017.327c.016.06.066-.075.132-.235.066-.16.205-.193.28-.218.074-.025 0-.092-.066-.134a.716.716 0 0 0-.314-.067c-.098 0-.015-.05-.024-.092-.008-.042-.165-.026-.19-.05-.024-.026.058-.026.223-.043.165-.016.288 0 .412.084.123.084.066.478.05.537-.017.059-.124.235-.132.302-.009.067.131.084.131.126v.864c0 .084.025.168.041.244.017.074-.008.142-.057.133-.05-.008-.05-.041-.09-.133-.042-.093.008-.16.024-.227s.024-.646.016-.764c-.008-.117-.065.26-.082.361-.017.1-.033.268-.033.36 0 .093.033.353.074.428.041.076.1.21.1.285 0 .076-.034.11-.034.11s-.033-.025-.074-.068c-.041-.042-.041-.092-.041-.092h-.19l-.033.11-.057-.042c-.034-.025-.034-.06-.041-.151-.008-.093.016-.076.016-.135 0-.059.074-.083.107-.1s-.033-.093-.066-.143c-.033-.05-.04.017-.074.059-.033.042-.09.016-.124.075-.033.06.026.06.041.1.017.043.009.093-.015.16 0 0-.091.009-.116-.034zm-.872-1.803s-.05.05-.033-.016c.016-.068.156-.135.313-.135.156 0 .132-.075.074-.075-.057 0-.148-.009-.255.017-.107.025-.14.008-.264.041-.123.034-.181.009-.222.009-.042 0-.05-.026-.082-.084-.033-.06-.075-.117.016-.185.09-.067-.008-.059-.05-.092-.04-.033 0-.042.067-.033.066.008.173.092.18.058.01-.033-.263-.176-.213-.185.05-.008.04-.033.222.01.181.041.165.1.214.133.05.034.165.084.264.06.099-.026-.025-.034-.082-.068-.059-.034-.231-.117-.157-.117.074 0 .19.008.23.033.042.026.19.042.272.05.083.009 0 .084.017.118.016.033.008.16.008.21 0 .05-.017.083-.074.117-.057.034-.206.017-.305.025s-.132.059-.115.093l-.025.016zm.156.654a.506.506 0 0 1 .28-.092c.075 0 .042-.067-.04-.067a.545.545 0 0 0-.289.075.54.54 0 0 1-.214.101c-.066.009-.099-.05-.132-.117s-.05-.059-.05-.092c0-.034.075-.093.059-.126-.017-.034-.116-.11-.083-.151.033-.042.074.016.107.041.033.026.074.051.132.026.057-.026-.132-.1-.148-.134-.017-.034 0 0 .107 0s.123.033.164.05c.042.016.107.058.182.084.073.025.173.042.14-.008-.034-.05-.272-.076-.255-.101.016-.025.082.017.164.025.083.009.198-.042.255 0 .058.042.008.243.008.285 0 .042.017.058.05.11.033.05-.05.05-.19.066-.14.017-.156.05-.23.068 0 0-.107.024-.017-.043zm-.28.671c-.6-.604-.626-2.172-.626-2.172h2.62v3.23c-1.03-.093-1.392-.453-1.993-1.058zm.758.294c-.05-.009-.214-.05-.214-.126 0-.075.082-.142.132-.184.05-.042.041-.084.041-.084s-.115-.034-.205 0c-.091.033-.034.084-.124.109-.091.025-.132-.067-.132-.067l.024-.084c.01-.025-.024-.042-.04-.092-.017-.05-.075-.043-.133-.05-.057-.01-.04-.034 0-.051.042-.016.091 0 .173.017a.43.43 0 0 1 .148.05c.05.026.124.017.149.025.025.009-.041-.067-.008-.084.033-.016.115-.008.164-.008.05 0 .017.05-.008.092-.024.043 0 .076.025.084.024.008.024.092-.008.16-.033.067-.075.042-.116.134-.041.092.107.067.173.1 0 0 .009.067-.041.059zm3.344-.562c-.067-.193.017-.319.082-.453.066-.134.173-.595.173-.595h.083s.024.184.024.268c0 .084.09.26.148.37.058.108.132.335.116.485-.017.152-.38.412-.38.412s-.18-.294-.246-.487zm.461-1.023h.082s-.041.214.21.214c.252 0 .12-.374.12-.374s.51.637-.033.73c-.544.093-.379-.57-.379-.57zm-.33 0s-.082.671-.354.654c-.271-.017-.403-.26-.354-.41.05-.152.182-.261.264-.261.082 0-.033.243.148.252.182.008.173-.252.173-.252l.123.017zm-.008-.135c-.074 0-.074-.125 0-.125h.494c.09 0 .116.142 0 .142-.115 0-.494-.017-.494-.017zm-1.391.881v-.226h.107v.134h.098v-.134h.132v.151h.115v-.16h.116V9.1l-.568.008zm.032.176c-.057 0-.082-.075-.016-.075h.552c.05 0 .066.075 0 .075h-.536zm-.518.798c-.126-.048-.264-.32-.231-.512.033-.194.066-.453.198-.529.131-.075.049.32.116.378.066.058.18.109.23.058a.37.37 0 0 0 .074-.117h.165s-.042.912-.552.722zm1.095-.714s.115.11.239.06c.123-.052.082-.32.131-.303.05.017.222.394.222.42 0 .025.141.612-.238.578-.378-.033-.519-.67-.527-.763l.173.008zm-.675 1.049c-.042-.201.14-.654.189-.755.05-.101.05-.286.05-.286h.164l.025.228c.008.075.206.511.223.763.016.251-.223.537-.28.537-.05 0-.33-.286-.371-.487zm1.424-2.475v-.218h.116v.151h.107v-.16h.173v.152h.09v-.151h.1v.235l-.586-.009zm-1.334-.511h.083v.109h.115v-.11h.123v.101h.132V7.44h.082v.16h-.526v-.143l-.01-.025zm-.659.738c-.027-.445.165-.654.206-.672.041-.016.132-.007.075.018-.058.025-.05.117-.05.192 0 .076.033.227.14.277.107.05.255-.134.288-.092.033.042-.04.26-.14.42-.099.159-.241.141-.362.117-.041-.009-.14.008-.157-.26zm1.227-.277c.05.009.166.059.264 0 .099-.058-.025-.386.033-.386.057 0 .206.05.247.084.041.034.123.235.05.453-.075.219-.363.193-.495.142-.132-.05-.181-.243-.165-.276 0 0 .017-.025.066-.017zm-.576-.109c0-.05-.008-.076.074-.076h.42c.082 0 .099.076 0 .076s-.4-.03-.428 0c-.03.03-.066.017-.066 0zm.247.117c.107 0 .23.176.222.42-.008.243-.156.461-.214.47-.058.008-.205-.285-.205-.462 0-.176.09-.428.197-.428zm.404-.645c.007-.051-.033-.822-.033-.822s.23-.017.296-.017c.066 0 .091-.042.091-.1v-.647c0-.042.395-.428.477-.42.083.008.387.621.478.84.09.217.214 1.056.214 1.14 0 .084-.115.093-.206.093h-1.293s-.033-.017-.024-.067zM63.8 6.91c-.008-.034 0-.193.008-.26.009-.068-.123-.102-.165-.102-.04 0 .017.084.033.135.017.05.05.075.05.134 0 .059.016.151.016.21s-.082.034-.148.042a.418.418 0 0 1-.24-.033c-.081-.043-.04-.387-.023-.496.017-.108.131-.218.123-.26-.009-.041-.066-.067-.106-.067-.042 0 0-.083.032-.184.032-.101-.009-.202 0-.244.008-.041.19.06.214.084a.507.507 0 0 1 .041.269c-.016.075.033.277.066.335.033.058.157.075.165.126.008.05-.008.227-.008.277 0 .05.128.108.057.15-.04.026-.107-.083-.115-.116zm.33.41l-1.046-.008c-.083 0-.099-.05-.099-.092 0-.042 0-1.896.008-1.93.008-.033.016-.16.057-.126.04.034.651.488.692.52.042.035.066.042.066.076 0 .034.017.52.017.587 0 .068-.008.076.073.076h.28v.83s-.008.068-.049.068zm-.133-1.132v-.293c0-.043.042-.11.083-.16a.317.317 0 0 1 .173-.092c.066-.017.23.184.247.21.016.025 0 .075 0 .134v.21c0 .041-.041.05-.1.05h-.328a.072.072 0 0 1-.075-.059zm-.123-.654c-.066-.017-.09-.059-.066-.126.025-.068.116-.118.116-.118s0-.033-.075-.05c-.074-.017-.37.016-.445-.017-.073-.033-.131-.066-.115-.1.017-.034.074-.034.1-.017.023.017.09.034.156.034s.148 0 .156-.042c.008-.042-.09-.143-.115-.21-.025-.068-.025-.11.033-.1.057.008.082.067.082.091 0 .026.082.118.132.134.049.017.173 0 .255.026.082.025.099.092.165.1a.518.518 0 0 0 .197-.008c.075-.017.115-.084.05-.092-.066-.009-.23 0-.247-.042l-.025-.067s.033.016.115.016.23-.058.248 0c.016.059.049.06.073.101.025.042.017.059.042.059.024 0 .099-.008.099-.008s-.066-.026-.066-.1c0-.077.14-.06.14 0 0 .058.007.158.016.192.009.033-.033.034-.074.025-.041-.008-.115-.042-.157-.033-.04.008-.057.074 0 .083.058.009.124.025.107.126-.016.1-.337.118-.444.11-.107-.01-.074-.076-.008-.085.066-.008.246-.025.296-.042.05-.017-.024-.075-.074-.1a.831.831 0 0 0-.354-.009c-.066.025-.008.185-.083.235-.074.05-.074.034-.082 0-.008-.033-.074-.059-.082-.025-.009.034-.066.059-.066.059zm-3.418 1.569c-.025-.051-.04-.16.042-.277.081-.118.247-.353.296-.361.05-.008.033-.235.05-.302.016-.067.453-1.133.51-1.242.058-.108.074-.251.239-.167.164.084.552.276.552.327 0 .05.082.21.082.252 0 .042.535 1.417.543 1.526.009.11-.148.118-.197.042-.05-.075-.042.143-.058.193-.016.05.025.143-.09.16-.116.016-.247-.076-.247-.076s-1.664.008-1.697-.016c-.033-.026-.025-.06-.025-.06zm.535-.906c.01-.05.182-.554.288-.756l.264-.495.05.043-.107.159c-.058.084-.462 1.2-.462 1.2s-.04-.1-.033-.151zm1.335.645c-.05-.05-.577-.2-.684-.234-.107-.034-.544.05-.618.05-.074 0 0-.084 0-.084s0-.034.025-.11c.025-.075.651-1.366.651-1.366l.066.067-.602 1.35.124.009.544-1.241.024.117-.436 1.107.156-.008.371-.906.04.133-.27.79.131.016.215-.629.073.21-.14.478.132.034.083-.31.09.209-.05.202.1.007s.024-.125.032-.05c.008.076.066.21.066.21s-.074 0-.123-.05zm-1.64.176l.034-.092s.494-.025.626-.025.659.025.799.042.222.05.222.05l-.008.059-.379-.034c-.107-.008-1.293 0-1.293 0zm-2.083-2.6c.033-.034.115-.076.19-.05.074.025 1.103.452 1.103.452l-.074.101s-.502-.175-.65-.234c-.149-.06-.569-.269-.569-.269zm-.28.378s.099-.076.165-.076 1.277.42 1.277.42l-.041.167s-.931-.335-1.08-.394c-.148-.059-.32-.117-.32-.117zm-.082-.495c.149-.185.61-.352.659-.328.05.025-.066.202-.066.202l1.202.503s.305-.092.338-.084c.032.009-.025.1-.074.202-.05.1-.313.453-.362.638-.05.184-.083.746-.091.78-.008.033-.057.041-.09-.06-.033-.1-.033-.654-.033-.654l-1.483-.537s-.016.05-.041.143c-.025.092-.105.341-.123.285-.14-.41.016-.906.164-1.09zm.832 1.292c-.305-.135-.272.184-.297.175-.024-.008-.099-.1-.09-.2.008-.1.133-.258.486-.143.362.117.288.511.222.511-.042 0-.016-.21-.32-.343zm.05 1.09c-.032-.028-.025-.1-.017-.16.008-.058.074-.134.09-.192.017-.059.107-.05.19-.034.082.017.56.135.626.135.066 0 .14-.06.148-.228.008-.167.008-.36.008-.452 0-.092.049-.226.049-.226s-.148-.05-.09-.16c.058-.11.222-.067.222-.067s.174-.252.214-.353c.042-.1.14-.402.083-.436-.058-.033-.338-.092-.42-.117-.083-.025-1.22-.461-1.375-.545-.157-.084-.273-.176-.215-.285.058-.11.173-.328.585-.21.412.117 1.746.612 1.77.956.025.344-.073.713-.18.839-.108.126-.338.268-.338.32 0 .05.123.997-.173 1.24-.297.244-.461.193-.66.143-.197-.05-.46-.118-.518-.168zm-1.302-.453c-.029-.074-.082-.327-.058-.436.025-.11.058-.142.058-.142s.165.175.346.251c.181.075.494.193.478.31-.017.118-.074.202-.108.269-.033.067-.131.05-.222.017-.09-.034-.477-.227-.494-.269zm.955.437c-.074-.046-.008-.353.025-.53.033-.176.074-.293.123-.393.05-.101.314.05.289.134a5.671 5.671 0 0 1-.247.511c-.066.127-.148.303-.19.278zm5.378-3.389c.04-.051.683-.89.75-.915.066-.025.214.042.188.093-.024.05-.757 1.081-.757 1.081s-.222-.209-.181-.259zm-1.26-.336s1.482 1.46 1.614 1.586c.132.126-.033.352-.206.31-.173-.042-.395-.252-.395-.252l-1.087-.042-.174-.251 1.014-.017-.066-.11-1.038.01-.123-.169 1.037-.033-.066-.117-1.103.008-.132-.168 1.104-.059c-.38-.578-.38-.696-.38-.696zm-.634-.503l-.115.042s-.388-.194-.503-.26c-.115-.067-.551-.269-.551-.269l.115-.092s.209.095.28.143c.074.05.131-.084.074-.126-.058-.042-.214-.11-.214-.11l.099-.05s.156.076.238.11c.082.033.165-.018.124-.06-.042-.041-.198-.125-.198-.125l.247-.084 1.014.537-.133.059s-.28-.126-.346-.16c-.065-.033-.106.076-.057.126.05.05.222.126.222.126l-.148.075s-.14-.075-.206-.117c-.066-.042-.217.038-.131.092.065.042.189.143.189.143zm-.412.21s-.428-.202-.543-.27c-.116-.066-.52-.25-.52-.25l.133-.11 1.054.562-.124.068zm-.881-.118a13.59 13.59 0 0 0-.478-.202l.123-.092.429.185c.156.067.675.335.675.335l-.123.101s-.502-.268-.626-.327zm-.009.327c-.065-.034-.675-.327-.675-.327l.108-.092 1.07.528-.098.084s-.339-.16-.405-.193zm-.856-.654c.535-.671 1.87-1.175 2.602-1.426.733-.252 1.533-.277 1.606-.252.075.025.19.143.025.15-.165.009-.437.085-.437.085s.8.436.882.504c.082.066.008.201-.132.108-.14-.092-.988-.528-.988-.528l-.33.084s.774.428.874.486c.098.059-.05.126-.157.076s-.914-.47-.914-.47l-.231.093s.675.335.807.41c.132.075-.074.143-.172.084-.1-.058-.807-.42-.807-.42l-.314.118s.807.394.873.462c.066.067-.107.109-.181.067-.074-.043-.922-.453-.922-.453l-.157.075 1.087.554s.593-.193 1.071-.285c.477-.093 1.499-.118 1.623-.101.122.017.37.31.188.252-.18-.06-1.094.008-1.433.05-.337.042-.831.185-1.638.537-.807.352-1.878 1.4-1.92 1.46-.04.058-.057.033-.164-.051-.107-.084.075-.428.075-.428l-.182-.125s-.115.066-.18.084c-.067.016-.199-.076-.19-.135.008-.059.213-.017.247-.067.033-.05.025-.193.115-.184.091.008.058.15.058.15l.247.152.156-.143s-.28-.151-.321-.184a.556.556 0 0 0-.23-.093c-.059 0-.47-.244-.47-.244l-.156.1s.131.102.173.144c.04.042-.042.176-.083.135-.04-.042-.197-.152-.197-.152s-.083.042-.124.11c-.042.067-.24.078-.214-.009.05-.168 0-.11.535-.78zm3.813.696c-.082.008-.263-.1-.214-.192.05-.093.272-.135.412-.194.14-.058.164.034.115.135-.05.1-.313.251-.313.251zm-1.87.554c.05-.068.24-.118.346-.143.108-.025.173-.033.173-.033l.215.167s-.223.009-.346.009h-.387zm-.065.981c-.173-.268-.37-.696-.387-.73-.017-.033.016-.067.098-.025.083.042.725.63.816.798.09.167.04.267-.107.292-.19.034-.247-.066-.42-.335zm-1.639-1.485c.099-.092.284.01.157.126-.083.075-.256-.034-.157-.126zm1.31-.93c.044-.091.19.066.304-.018.116-.083-.041-.142.033-.21.075-.066.107-.033.157.01.049.041.033.242-.05.31a.367.367 0 0 1-.362.05c-.124-.059-.107-.092-.082-.143zm-1.162-.764c.025.084-.132.235-.263.285-.132.05-.264-.059-.198-.285.066-.227.165-.73.165-.73s.436-.067.856-.059c.42.009.569.252.181.453-.387.202-.7-.218-.7-.218s-.106.034-.164.067c-.058.033-.074.11-.074.11s.172.293.197.377zM53.485 6.69c-.01-.147-.238-.389-.3-.4-.061-.01-.124-.21-.196-.305-.072-.094-.134-.305-.134-.305l-.217-.01s-.01.147-.042.347c-.03.2-.082.305-.123.326-.042.021-.155-.189-.269-.284a26.92 26.92 0 0 0-.794-.6c-.135-.095-.125-.21-.032-.273.093-.063.238-.126.341-.095.104.032.63.453.712.484.083.032.135-.021.104-.042-.031-.021-.6-.473-.692-.578-.093-.105-.217-.242-.227-.306-.01-.062.196-.104.35-.062.156.042.341.188.455.262.114.074.867.663.94.726.072.063.269.137.176.042-.093-.094-.424-.4-.527-.484-.103-.084-.331-.304-.207-.273.124.031.217.031.403.136.186.106.527.358.702.474.176.116.579.294.65.305a.434.434 0 0 0 .187-.042l-.424-.305c-.103-.074-.144-.21.031-.179.176.032.455.179.589.242.134.063.548.063.548.063s-.114-.074-.177-.22c-.061-.148.125-.095.104-.169-.02-.074.062-.147.124-.127.062.022.062-.052.062-.136 0-.084-.093-.253-.093-.253l.072.043c.073.041.144.073.155.137.01.063.093-.064.093-.169 0-.105-.093-.231-.093-.231l.073.02c.072.022.154.158.175.19.02.031.072.041.051-.137-.02-.178-.072-.357-.072-.357s.114-.032.166.052c.051.084.082.336.082.4 0 .063-.289.568-.32.642-.03.073-.124.168-.041.168.082 0 .196-.095.31-.126.113-.032.35-.127.35-.127s0-.073-.02-.126c-.021-.052-.093-.2-.041-.179.051.021.103.074.134.127.031.052.103.01.083-.095a1 1 0 0 0-.114-.253s.072 0 .103.064c.031.062.114.168.104.094a1.718 1.718 0 0 0-.083-.294c-.02-.042 0-.137.052-.116.051.021.113.157.175.273.062.116-.072.442-.134.548-.062.105-.28.336-.351.368-.072.031.041.136.134.094.093-.042.237-.136.268-.179.031-.041.156-.02.176-.073.02-.053-.062-.221-.01-.2.051.02.082.042.155.116.073.074.041-.126 0-.19-.041-.063-.125-.2-.093-.189.03.01.103.032.144.105.041.074.125-.02.114-.105-.01-.084-.073-.127-.124-.2-.052-.074-.02-.242.062-.126.082.115.124.095.176.242.051.147-.156.537-.238.747-.082.21-.847.536-1.147.6-.3.062-1.93.315-2.054.378-.124.063-.123.484-.351.484-.032 0-.135-.232-.145-.379zm3.222-.431c0-.095.537-.42.589-.526.051-.106.114-.253.175-.315.062-.064.227-.074.207-.032-.021.042-.073.326-.073.431 0 .106.052.305.052.357 0 .053-.114.548-.114.548s-.072.095-.144.147c-.073.053-.073.074-.135.063-.061-.01-.061-.074-.134-.19-.072-.115-.154-.241-.217-.115-.062.126-.103.222-.144.21-.103-.03-.062-.483-.062-.578zm-4.492 1.599c-.032-.095-.083-.221-.176-.284-.093-.064-.29-.348-.32-.442a22.09 22.09 0 0 0-.558-1.094c-.052-.084-.03-.316-.03-.41 0-.095.092-.169.144-.126.051.041.217.357.268.43.052.075.341.264.62.453.279.19.29.6.258.768-.031.168 0 .41.052.568.052.158.062.347-.073.368 0 0-.154-.137-.185-.231zm-1.756-2.609c-.052-.095-.196-.273-.217-.421-.02-.148.155-.063.165.032.01.095.165.284.228.347.062.062.061.174-.01.21-.063.031-.115-.073-.166-.168zm-.455.168c-.027-.07-.133-.2-.133-.284 0-.084.092-.137.154-.073.062.063.031.179.155.23.124.054.134.201.052.201-.083 0-.207-.021-.228-.074zm-.186.358c-.04-.084-.236-.39-.257-.463-.02-.073.04-.168.123-.084.083.084.258.473.29.516.03.042.051.104-.02.157 0 0-.094-.042-.136-.126zm1.064-.83c-.02-.075-.113-.275-.123-.327-.011-.053-.073-.137 0-.168.072-.032.093.02.123.083.031.064.114.264.135.327.02.063.082.178.02.21-.082.042-.134-.052-.155-.126zm.31-.348c-.01-.063-.041-.137.041-.158.083-.021.114.094.114.158 0 .063.02.105-.062.095 0 0-.083-.032-.093-.095zm-.237 1.042c-.116.047-.196-.527-.196-.527s.3.484.196.527zm-1.312.567c-.113-.063-.176-.179-.269-.305-.092-.126.031-.231.104-.2.072.032.268.284.34.347.073.064.176.116.156.19 0 0-.217.031-.33-.032zm1.715.979c-.088-.044-.135-.106-.217-.2-.083-.095-.238-.316-.341-.4a2.143 2.143 0 0 1-.341-.347c-.083-.116-.351-.42-.258-.41.093.01.29.052.485.137.196.083.434.441.568.62.135.18.248.494.248.61 0 0-.062.031-.144-.01zm1.507.82s-.02-.095-.041-.221c-.02-.126-.093-.21-.217-.463-.124-.252.062-.652.103-.757.041-.105 0-.747.041-.726.042.021.476.937.496 1.062.02.127-.062.485-.114.61-.051.127-.103.516-.103.516l-.124-.01-.04-.01zm3.419-.316c-.041-.083-.114-.22-.062-.42.05-.2.134-.431.196-.463.061-.031.124.062.093.179-.032.115-.052.315-.072.4-.021.084-.155.304-.155.304zm-2.768.316c-.01-.053.154-.347.217-.473.062-.127.32-.494.423-.663.103-.168.207-.252.279-.221.072.032.03.494-.03.6-.063.105-.146.336-.466.515-.32.18-.423.242-.423.242zm1.931.179c-.01-.042.02-.126.072-.347.052-.221.206-.842.206-.894v-.085s.114-.041.125.011c.01.053.247 1.01.176 1.041-.073.032-.29.19-.393.243-.104.052-.186.031-.186.031zm.63-1.4l-.031-.367.165-.063.114.252-.248.179zM54.59 8.068c.052-.074.114-.305.175-.557.062-.253.052-.6.062-.653.01-.052.145-.094.176-.01s.279.905.279.936c0 .031-.134.158-.28.19-.144.031-.484.315-.484.315s.02-.147.072-.22zm2.261-.536c-.02-.063-.103-.326-.134-.41-.03-.085.072-.19.134-.085.062.105.093.253.135.358.041.105.062.179 0 .2 0 0-.114 0-.135-.063zm-4.347 2.661l-.104-.284s.29-.336.207-.473c-.082-.137-.392-.62-.217-.873.176-.253.361-.337.682-.379.32-.042.506.01.558.031.051.021-.197.116-.29.274-.093.158-.279.421-.227.61.051.19.111.423.03.61-.216.505-.64.484-.64.484zm4.73-2.693c-.01-.084-.083-.252-.062-.326.02-.074.145-.053.145-.053s.02.074.06.306c.043.231.063.252-.01.284 0 0-.123-.127-.134-.21zm.051.768c0-.084.032-.179.114-.179.083 0 .114.242.114.242s.05.042.05.116c0 .074-.092.094-.092.094s-.051.053-.134.064c0 0-.052-.253-.052-.337zm-1.146 1c-.092.007-.03-.421.052-.642.082-.221.258-.4.35-.495.094-.095.166-.168.32-.2.155-.03.27-.052.29-.02.02.03-.062.168-.165.273-.103.105-.31.515-.423.673-.114.158-.176.39-.424.41zm-2.665-.033c-.01-.094-.04-.199-.02-.294.02-.094.134-.41.33-.6.197-.188.351-.368.465-.546.114-.18.155-.305.155-.231 0 .073.051.24.021.325-.031.085-.217.473-.238.632-.02.157-.02.326-.02.326s-.104.073-.29.147a2.035 2.035 0 0 0-.403.241zm-1.011 1.505v-.21s.392-.116.505-.2c.114-.084.455-.474.506-.653.052-.178.063-.263.228-.357.165-.095.361-.147.454-.158.093-.01-.082.274-.185.379-.104.105-.26.158-.32.41-.063.253-.238.663-.435.778-.196.116-.31.18-.423.159-.114-.022-.33-.148-.33-.148zm-2.84 2.809c.02-.042.175-.38.123-.537-.051-.157-.237-.325-.227-.368l.021-.094s-.227-.179-.33-.327c-.104-.147-.413-.788-.413-.788s.423.157.526.22c.103.064.093-.073.02-.147-.072-.073-.133-.252-.154-.326-.02-.074-.083-.463-.083-.463s.238.294.424.358c.185.063.712.147.764.147.051 0-.155.105-.217.105s-.362.01-.362.01v.106s.217.052.341.042c.124-.01.485-.084.496-.158.01-.073-.042-.294-.186-.326-.145-.031-.247-.084-.31-.179-.062-.095-.206-.389-.144-.536.062-.148.35-.295.547-.158.196.137.692.537.734.684.04.147.072.326-.011.504-.083.18.207.2.258.127.052-.074.32-.568.3-.747-.021-.179-.134-.526-.568-.768-.434-.242-.486-.315-.59-.284-.102.031-.175-.274 0-.347.177-.074.651.031.879.242.227.21.733.915.722 1.241-.01.326-.505 1.094-.64 1.189-.133.094.093.105.228.02.134-.083.557-.63.599-.798.04-.168.072-.232.072-.232l.134.042c.072.022.31.169.568.01.258-.157.62-.515.774-.578.156-.064.331-.074.341-.032.01.043-.113.095-.165.127-.052.031-.361.358-.516.568-.155.21-.372.463-.578.494-.207.032-.341-.031-.341-.031l-.083.189s.475 0 .61-.02c.134-.022.712-.485.888-.6.175-.117.268-.127.371-.095.104.031.031.126-.01.137-.041.01-.424.283-.599.62s-.475.82-.898.715c-.424-.105-.662-.326-.662-.326l-.093.2s.538.285.672.368c.134.084.444.358.475.526.03.169.02.264-.01.348-.032.084-.145.23-.187.147-.04-.085-.123-.38-.247-.432-.124-.052-.34-.083-.507-.2a9.68 9.68 0 0 1-.516-.42l-.165.157s.372.243.517.358c.144.116.289.084.351.305.062.222.082.369 0 .358-.083-.01-.093-.136-.176-.19-.083-.052-.372-.073-.527-.157a1.022 1.022 0 0 1-.33-.274c-.072-.094-.103-.2-.103-.2h-.145s.31.369.33.484c.02.116.02.61-.061.726-.083.116-.155.01-.176-.063-.02-.074.073-.378 0-.484-.072-.105-.382-.568-.382-.568l-.083.032s.156.21.166.347c.01.136.072.568-.073.673-.144.105-.31.19-.31.137 0-.053.166-.263.124-.463a2.235 2.235 0 0 0-.093-.358 1.516 1.516 0 0 1-.04-.295l-.166-.02s.093.284.072.42a.514.514 0 0 1-.237.38c-.155.094-.33.125-.341.052-.01-.074.186-.315.206-.41.02-.095.031-.327.011-.39-.021-.062-.031-.147-.031-.147l-.104-.02s.031.105-.093.262c-.123.158-.382.179-.382.179zm1.518-3.061l-.217-.18.217-.315v.495zm.485-1.515c-.31-.337-.083-.758-.03-1.063.05-.304-.032-.452-.032-.452s.3.158.392.315c.094.158 0 .21-.02.411-.02.2.02.4.093.568.072.168.217.6.258.684 0 0-.351-.127-.661-.463zM49.21 6.605c.153-.09.821-.221 1.146-.105.382.137.733.6.764.747.03.147.01.22.01.22s-.361-.252-.578-.326c-.216-.073-.671-.168-.774-.242-.104-.073-.217-.157-.34-.178-.125-.021-.425 0-.228-.116zm-.114-.505c.051-.031.24.21.154.253-.082.042-.206-.221-.154-.253zm.857 1.252c.266 0 .361.032.578.094.217.064.506.516.506.516s-.041.031-.196.063-.248-.094-.423-.158c-.176-.063-.3-.252-.496-.252a1 1 0 0 1-.395-.111l-.029-.015s.207-.137.455-.137zm1.053 1.536c-.061-.074-.03-.2-.114-.253-.082-.053-.392-.168-.433-.19-.041-.02.051-.084.238-.125.185-.043.608.073.65.294l.042.22-.383.054zm.269 3.092l-.041-.042s.164-.22.247-.357c.083-.138.362-.442.352-.8-.01-.358-.176-.61-.238-.673-.062-.063.196.042.238.104.04.064.33.61.103.937-.227.327-.661.831-.661.831zm-.92-.221c-.206.032-.37.084-.37.084l.04.41s.114.042.186.053c.073.01.196.074.196.074l-.051.126s-.114-.01-.228-.063c-.113-.053-.32-.074-.32-.074l-.03-.705s.31-.031.474-.052c.166-.021.403-.116.403-.116l.052.116s-.145.116-.351.147zm.393-.504c-.083.01-.113-.116-.03-.116.082 0 .092.084.01.105 0 0 .103 0 .02.01zm-.238-.474c.083-.074.102.2.042.2-.072 0-.124-.126-.042-.2zm.176-.084c-.071-.044-.103-.263.062-.148.165.116-.01.18-.062.148zm.103.347c-.064-.132.031-.263.176-.137.144.127-.134.22-.176.137zm.083.242c-.017-.104.155-.084.186 0s-.165.126-.186 0zm.062.21c.114 0 .156.208.01.2-.185-.01-.124-.2-.01-.2zm-.826.61l.02-.157s.228-.064.372-.095c.145-.032.392.01.392.01s.011.158.156.294c.145.137.217.232.217.232l-.166.21s-.33-.22-.423-.252c-.093-.031-.568-.242-.568-.242zm-1.002-1.767c-.035-.053-.165-.274.135-.484.3-.21.474-.22.537-.105.061.116.05.337-.073.42a.79.79 0 0 1-.29.127c-.082.021-.268.105-.309.042zm4.772-.221s.196-.295.31-.484c.113-.19.206-.22.237-.389.03-.168.196-.484.3-.621.102-.136.257-.284.257-.284s.073.684.031.81c-.041.126-.248.18-.289.263-.041.085.031.137-.134.284-.165.148-.672.453-.712.421zm.919-.368c.051-.126.34-.369.402-.484.062-.116.3-.494.475-.673.176-.179.279-.179.176.158-.104.336-.258.683-.445.81-.185.126-.608.189-.608.189zm-.125 1.23c-.072-.036-.02-.547.135-.652.155-.105.465-.21.588-.294a1.35 1.35 0 0 0 .34-.39c.074-.126.074.232.022.37-.051.136-.279.451-.33.525-.052.073-.083.095-.238.147-.155.053-.413.348-.517.295zm-.877 1.295c-.012-.04.196-.19.35-.4.156-.21.517-.505.724-.6.206-.094.55-.2.815-.157.197.031.383.168.187.189-.197.021-.3.053-.466.231-.164.179-.164.316-.464.41-.3.095-1.116.432-1.146.327zm-.403.462c.014-.083.392-.01.692-.104.3-.095.568-.19.774-.19.207 0 .414-.01.63.115.218.127.27.18.218.19-.052.01-.404.042-.59.126-.185.085-.454.242-.712.18-.258-.064-.743-.117-.857-.2-.114-.085-.166-.053-.155-.117zm.186.874c-.028-.093 0-.242-.021-.316-.02-.073-.165-.21-.02-.232.144-.02.413.127.598.159.186.031.352.02.506.073.156.053.166.137.021.21-.144.074-.196.19-.403.19-.206 0-.65.02-.681-.084zm-1.095 1.02c-.146 0-.217-.116-.3-.21-.082-.095-.278-.18-.31-.19-.03-.01-.03-.178-.03-.178s.041-.232.03-.264c-.01-.03.145.064.228.095.082.032.248.19.289.326.041.137.217.18.227.084.01-.094-.082-.284.02-.315.104-.032.3.105.31.179.011.073-.31.473-.464.473zm-1.115 0c-.145-.253-.062-.316-.062-.316s.104.168.186.18c.083.01.134-.169.134-.169s.124.095.186.19c.062.094.157.479-.01.536-.093.032-.29-.169-.434-.421zm-1.725-.947c-.082.042-.6.295-.66-.01-.063-.305.195-.474.34-.432.144.042.247.169.186.285-.062.115.134.157.134.157zm.135.38c-.104.041-.31.146-.548.136-.237-.01-.413.031-.671-.463-.259-.495.785-.715.785-.715s-.424.262-.517.368c-.093.105-.03.441.186.526.217.084.754-.042.754-.042s0 .032.01.19zm1.187 1.03c-.046-.06.083-.2.083-.2s-.103-.095-.114-.242c-.01-.147.083-.2.083-.2s.206.463.402.61c.197.148.33.285.496.231.165-.052.217-.304.186-.41a1.182 1.182 0 0 0-.083-.2l.269.158c.052.032.3-.084.3.042 0 .127-.259.085-.27.117-.01.03 0 .073-.02.125-.02.053-.062.147-.062.147s.217.096.114.222-.217-.032-.217-.032l-.206.074s.154.242-.021.252c-.175.011-.155-.263-.155-.263l-.31-.084s-.082.2-.186.147c-.103-.052.052-.295.052-.295l-.176-.189s-.093.085-.165-.01zm-.991-.2c-.14-.082-.238-.326-.124-.505.113-.179.269-.189.454-.084.186.105.124.305.072.41-.051.106-.257.263-.402.179zM44.67 3.664s-.028-.038-.265-.077c-.237-.039-.455-.155-.57-.377-.113-.222.115-.386.238-.347.124.039.304.193.446.318.142.126.218.464.227.551l-.076-.068zm-.55.425a.698.698 0 0 0-.33.309c-.01.04-.371-.174-.437-.328-.066-.154.332-.57.521-.492.19.077.74.386.74.386s-.304.047-.493.125zm.73-.396s-.028-.164-.066-.338c-.038-.174-.275-.26-.208-.52.066-.262.312-.097.464.028.152.125.209.405.067.531-.143.126-.143.357-.143.357l-.114-.058zm.455.203c.162-.049.304-.106.579.01.275.116.313.424.255.55-.056.126-.331.232-.397.058-.067-.173-.683-.58-.683-.58s.085.01.246-.038zm-.284.28v.135c0 .049.066.116.095.03.028-.088.057-.126.057-.126h.047s.01.357 0 .434c-.01.077.16.097.16.039v-.165c0-.057.02-.182.106-.105.085.076.189.183.227.299.038.116-.189.435-.635.435-.438 0-.17-.889-.133-.986l.076.01zm.218-.435c0-.075.104-.356.417-.405.313-.048.36.087.256.125-.104.04-.445.203-.512.261-.066.058-.16.087-.16.02zm-1.232.88c0 .067.123.106.123.028 0-.077-.02-.357-.02-.357s.067-.01.105.038c.038.049.057.261.067.329.009.068.132-.048.132-.097v-.415s.256-.01.294.02c.038.028.038.174.01.28-.029.105-.209.453-.54.473-.332.019-.37-.251-.332-.348.024-.063.16-.02.16.049zm-2.294-.986c0-.067-.028-.184.114-.164.142.02.303.087.303.087s.01-.126.086-.106c.075.019.16.106.16.106s-.047-.135.038-.126c.086.01.285.28.285.28s.094-.086.152.01c.056.097.056.184.056.184s.086-.106.123 0c.039.105 0 .299 0 .299s.133.115.162.155c.028.038-.085.115-.152.076-.067-.038-.606-.405-.73-.472l-.597-.329zm1.896 2.192l-.105-.155.133-.337-.19-.107-.047.3c-.01.057-.17-.029-.161-.087.01-.058.048-.367.048-.367h-.19s-.01.135-.01.193c0 .058-.151.029-.16-.01a4.985 4.985 0 0 1-.038-.221l-.256-.078.151.29-.227-.01s-.351-.376-.37-.444c-.02-.067.047-.116.208-.116.162 0 .304.078.512.078.21 0 .417.01.531.038.114.029.123.049.266.106.142.058.455.164.483.252.028.086-.066.163-.066.163s-.019.117-.076.175c-.057.057.01.086-.085.163-.095.078-.18.106-.2.135-.018.03-.151.039-.151.039zm.682.821c.03.02.323.077.407.097.086.019 0-.213-.046-.203-.048.009-.522-.097-.522-.097l-.028-.145s.407-.029.464-.029c.057 0-.038-.174-.066-.164-.029.01-.53.01-.53.01l-.124-.213s.379-.26.474-.29c.094-.029.047-.086.246-.086.2 0 .436.714.55.975.113.26.01.531-.076.608-.085.077-.342-.184-.426-.25-.086-.069-.408-.156-.408-.156l-.095-.125s.152.048.18.068zm-1.536-.657c-.087-.089.048-.299.181-.145.133.155-.086.242-.18.145zm-.028-.637c.246-.02.151.33.019.3-.123-.03-.265-.28-.019-.3zm.35.415c-.17-.029-.198-.203-.037-.222.16-.02.152.241.038.222zm.115.058c-.01-.239.303-.116.284.01-.018.125-.275.232-.284-.01zm-.038.203c.123-.02.17.224-.01.212-.142-.01-.114-.193.01-.212zm.35.203c-.103-.06-.009-.29.114-.242.124.049.02.319-.114.242zm-.72.067c-.064-.132.076-.231.18-.106.105.125-.142.184-.18.106zm-2.019-.357s-.066-.01-.057-.067c.01-.059.446-.136.446-.136s-.133-.057-.038-.096.237-.01.237-.01-.048-.202 0-.193c.047.01.341.29.407.376.067.087-.094.174-.19.174-.094 0-.89.058-.937.058l.132-.106zm1.308.444c-.056-.039-.123-.125-.095-.212.029-.087.067-.261.01-.31-.057-.048-.313-.328-.331-.424-.02-.097-.077-.213.056-.232.132-.019.474.087.55.126.075.038.246.135.246.135s-.019.077.019.125l.095.126s-.066.058-.057.125c.01.068.038.107.038.107s-.162.087-.17.193a.999.999 0 0 0 .018.241h-.379zm.512-.28c.104.01.124.26 0 .251-.133-.01-.104-.26 0-.25zm.645.338c-.042-.095.123-.222.189-.097.067.126-.151.184-.19.097zm-.247.116c-.034-.105.02-.232.152-.126.133.107-.124.213-.152.126zm-.228.067c-.125-.08-.066-.232.048-.163.114.067.029.212-.048.163zm.73-.057c-.018-.165.228-.232.228-.05 0 .262-.219.126-.227.05zm.21.753l.122.115-.028-.414.076.01s.028.163.047.202c.02.039.038.26.038.26l.209.02s-.171-.416-.2-.492c-.028-.078.038-.078.086-.02.047.058.218.434.218.434l.17-.077s-.019-.038-.056-.125c-.038-.087-.256-.329-.256-.329s.028-.057.085-.028c.057.028.342.26.55.386.208.125.151.222.094.318-.056.097-.284.261-.398.329a.782.782 0 0 1-.606.057c-.275-.076-.342-.376-.342-.492 0-.116.01-.493.048-.511.038-.02.114.038.114.038l.028.319zm-.484-.339c.085-.058.114.126.151.358.038.232-.104.309-.265.367-.161.058-.284-.202-.313-.26-.029-.059-.284-.146-.455-.271-.17-.125-.151-.434-.028-.53.123-.098.37.076.35.125-.018.047-.123.086-.123.086s.114.097.2.058c.085-.039.17-.184.245-.203.077-.019.18.116.143.155-.038.038-.2.144-.2.144s.01.078.048.116c0 0 .161-.086.247-.145zm0-.386c.151-.057.289.164.16.223-.103.048-.312-.164-.16-.223zm.587-.386c.171-.058.265.239.114.28-.104.029-.284-.222-.114-.28zm-.076.647c-.074-.089.057-.318.2-.193.141.126-.086.328-.2.193zm-1.696 1.168c-.02-.289.199-.589.303-.579.105.01.142.184.105.396-.038.212-.21.801-.21.937 0 0-.18-.464-.198-.754zm-1.868-.327c.095-.174.275-.28.275-.28s-.038 0-.038-.068.162-.097.162-.097L40.5 7.14l.124-.029.208-.048-.198-.155s.028-.038.18-.048c.151-.01.321-.019.321-.019l-.141-.145s.085-.02.237 0c.152.02.473.164.473.164s-.141.184-.265.251c-.123.068-.313.145-.313.145s-.037.058-.095.097c-.056.038-.217.038-.293.048-.076.01-.2.087-.304.222a2.028 2.028 0 0 1-.331.3s-.038-.05.056-.222zm4.949-.242c.037-.077-.067-.145-.067-.145l.237-.107.256.155c.095.059.597.164.786.146.19-.02.892-.271 1.242-.31.351-.039.531.27.54.598a.983.983 0 0 1-.748.966c-.417.102-1.536-.25-1.602-.28-.067-.029-.199-.415-.37-.598-.17-.184-.474-.116-.474-.116s.162-.232.2-.31zm-1.887 2.568c.133.01.702.029.834-.164.133-.193.17-.434.105-.773-.067-.338.217-.917.644-.791.426.126.72.511.891.58.171.066 1.223.23 1.669.183.445-.049.749-.358.833-.618.086-.261.19-.695.114-.927-.076-.232.228.068.257.231.028.165-.124 1.12-.532 1.371-.364.225-.805.3-1.402.233-.598-.068-.92-.107-1.071-.233-.152-.125-.247-.135-.257-.087-.009.05-.056.446-.122.638-.096.27-.361.318-.361.318s.152-.212.16-.328c.011-.116.058-.26.096-.444s.076-.3.076-.3l-.18-.038s-.086.29-.19.724c-.104.435-.612.598-.74.618-.246.039-.814-.164-.814-.164l-.01-.029zm-.73.02c.02-.087-.038-.146.285-.252.322-.106.55-.087.749-.077.198.01.331-.174.284-.338-.048-.164-.114-.58-.076-.666.038-.087.2-.367.2-.367l.122.068s-.237.405-.17.637c.066.232.066.647-.048.734-.114.086-.123.145-.332.115-.208-.029-.435.01-.653.059-.218.048-.351.115-.351.115l-.01-.028zm2.72-4.664c.418-.396 1.005-.097 1.394.164.388.261 1.052.522 1.052.522l.039-.136s-.57-.386-.769-.501c-.198-.116-.673-.629-.71-.725-.039-.097.435.183.625.319.19.135 1.223.618 1.223.618l.123-.126s-.948-.56-1.251-.791c-.303-.232-.71-1.072-.578-.899.132.175.73.55 1.062.783.331.232 1.013.482 1.013.482l.086-.154s-.844-.454-1.119-.695c-.275-.242-.616-.763-.54-.686.076.077.663.397.881.54.219.146 1.015.396 1.015.396l.037-.134s-.88-.647-.966-.734c-.086-.087-.067-.194.208-.106.275.086 1.043.502 1.043.502l.048-.126-.465-.425s.654.097.853.155l1.242.367s-.54.309-.977.511c-.435.203-1.052 1.294-1.27 1.98-.217.685-.853.434-.957.338-.105-.097-.92-.85-.986-.918-.066-.067-.55-.56-1.004-.512-.456.049-.333.88-.333.88s-.435-.493-.018-.89zm1.09 1.429c-.407.126-.587-.174-.796-.54-.208-.368.275-.648.474-.474.2.173.996.82.996.82s-.266.069-.673.194zm.702.145s-.25.238-.427.309c-.312.125-.577.038-.805 0-.228-.038-.503-.358-.503-.358l.029-.473s.228.445.616.619c.234.103.9-.097 1.043-.146l.047.049zm10.723 3.561l.145-.158.456.12.073.168-.674-.13zm.118.51l.602-.223.09.14-.801.242.109-.158zm-.247.382l1.068-.363.09.14-1.276.408.118-.185zm1.058.065l.183-.057.118 1.115-.255.372-.046-1.43zm.383.13l.146.157.055.446-.128.205-.073-.809zm0 2.73c.164-.027.181.172.018.214-.109.028-.182-.186-.018-.214zm.091.548c.176-.191.383-.046.274.14-.11.185-.4 0-.274-.14zm.41.325c.12-.233.33-.037.274.093-.054.13-.374.103-.274-.093zm.63-2.414c-.137-.066-.046-.465.365-.242.41.223 1.103.675 2.407.697 1.715.028 2.563-.67 2.563-.67.11-.055.337.177.1.335-.656.437-1.66.639-2.654.65-1.605.019-2.711-.737-2.781-.77zm-.146 2.694c.028-.242.32-.168.264.018-.054.186-.277.101-.264-.018zm.648.046c-.076-.192.136-.288.21-.112.074.18-.174.204-.21.112zm.72-.605c-.337.242-.462.28-.985.27-.51-.01-1.103-.557-1.04-1.115.064-.557.986-1.021.986-1.021l.127.074s-.538.38-.647.687c-.11.307-.1.623.474.865.575.24 1.45-.298 1.45-.298l.037.056-.402.482zm.41-1.281s-.392.891-.93.79c-.538-.103-.574-.52-.502-.706.074-.186.384-.455.74-.344.355.111.692.26.692.26zm-.383 1.988s-.145-.279-.173-.372c-.027-.093.037-.158.073-.111.037.046.1.055.1.055s.22.02.456-.39c.106-.182.483-1.096.483-1.096l.12.01s-.092.78-.356 1.207c-.265.427-.703.697-.703.697zm1.185-.827c-.1 0-.035-.111-.008-.223.027-.112.073-.204.073-.204l.21.028s.027-.038.027.12c0 .159.2.084.2.01 0-.075.01-.13.01-.13l.2-.019s.055.074.091.205c.037.13.037.231-.146.231-.182 0-.657-.018-.657-.018zm.767-1.05c.063.205.073.474-.42.474-.492 0-.319-.483-.319-.483s.492-.009.739.01zm1.522-.306c.375-.12.657.093.64.566-.02.474-.685.502-.822.353-.136-.148-.492-.668-.492-.668s.3-.13.674-.251zm-.501.984s.538.252 1.021.316c.483.065.84-.4.703-.734-.138-.334-.684-.76-.684-.76l.127-.085s.63.418.757.595c.128.176.452.777-.064 1.254-.483.446-1.386.065-1.587-.149-.125-.133-.31-.372-.31-.372l.037-.065zm2.316.121c0-.186.274-.176.274 0 0 .177-.274.112-.274 0zm-.237.632c-.112-.08.064-.325.183-.205.118.121-.091.27-.183.205zm-.465.334c-.114-.101.018-.306.155-.167.137.14-.082.232-.155.167zm-.583-.055c.012-.195.255-.15.246.009-.01.158-.256.13-.246-.01zm-.53-.14c.043-.17.247-.093.238.037-.01.13-.274.112-.238-.037zm-1.02-.483c-.301-.474-.32-1.096-.32-1.096l.1-.009s.286.7.356.855c.146.324.584.64.584.64s.036-.055.082-.102c.045-.046.054.028.054.028l-.11.464s-.445-.307-.747-.78zm-1.386.14l.966.009c.009.353-.282.418-.493.418-.41 0-.473-.428-.473-.428zm.473.51c.31 0 .237.363-.036.353-.264-.01-.273-.352.036-.352zm.32.149l.474-.195.018.668-.474-.38-.019-.093zm-1.15-.13l.484.177-.01.102-.437.362-.036-.64zm.585.483s.145.074.236.065a.411.411 0 0 0 .183-.083l.392.464-1.15.074.339-.52zm5.338-11.512s.154.031.185-.047c.03-.079.17-.504.216-.662.047-.157-.232-.173-.232-.173l.016-.094.634.236-.031.063s-.17-.063-.217.063c-.046.126-.154.52-.154.52l.633-.615.155.017.278.77s.077-.424.077-.597-.123-.126-.123-.126l.046-.095h.309c.108 0 .494-.063.494-.063l-.046.08s-.2.078-.247.204c-.046.126-.093.519-.108.613-.016.094.247.095.247.095l-.016.078-.695.048-.232-.535-.54.472-.634-.158-.015-.094zm2.163-.268c0-.125.262-.771.772-.803.51-.032.542.174.557.268.015.094 0 .22-.109.441-.108.22-.495.408-.587.425-.603.11-.633-.205-.633-.33zm.494.064c0-.08.031-.315.062-.458.031-.141.077-.25.185-.282.108-.032.17 0 .155.11-.016.11-.047.424-.062.52-.015.094-.11.241-.231.267-.078.016-.109-.079-.109-.157zm.71.094v-.094s.186-.127.217-.237c.031-.11.093-.393.108-.567.016-.173-.215-.094-.215-.094v-.079l.71-.22v.079s-.124.047-.124.126-.077.566-.077.566l.74-.976.388-.11s-.155.85-.155.913c0 .063.232-.031.232-.031v.094l-.741.236.015-.094s.14-.126.17-.173c.03-.048.077-.504.077-.504l-.587.865-.68.237-.077.063zm1.809-1.26l.34-.409.17.3-.294.362-.216-.253zm2.78-.11l.11-.361s.262-.063.324-.063c.061 0 .139.078.093.188-.047.11-.093.174-.232.205s-.294.031-.294.031zm-2.425.567s.185-.063.201-.158c.016-.094.108-.629.124-.739.015-.11-.202-.031-.202-.031l.016-.095s1.02-.268 1.205-.252c.186.016.402.158.402.236 0 .079-.046.378-.062.41-.015.031-.216.361-.479.409-.231.041-1.042.267-1.228.319l-.039.011.062-.11zm1.653-.362s.154-.063.186-.157c.03-.095.216-.693.247-.787.03-.094-.17-.032-.17-.032v-.063l.912-.157-.016.047s-.17.063-.185.11c-.015.047-.077.268-.077.268s.216-.079.34-.173c.123-.094.215-.362.278-.362.062 0 .648-.095.648-.095l-.015.063s-.093.016-.2.095c-.11.079-.155.251-.202.33-.046.079-.2.158-.2.158s.231.22.2.283c-.03.063-.015.189-.294.267-.278.079-1.529.315-1.529.315l.077-.11zm2.349-.63c.031-.125.232-.409.278-.534.046-.127.246-.243.325-.237.216.016.2.047.138.19-.061.14-.138.361-.231.518-.093.158-.186.174-.324.205 0 0-.217-.016-.186-.141zm-.402-.188c.17-.488.65-.709 1.128-.709.479 0 .557.237.526.347-.031.11.015.141-.155.425-.17.283-.693.377-.958.377-.587 0-.608-.247-.54-.44zM81.95 4.08s-.324-.224-.5-.314c-.177-.09-.486-.27-.486-.27l.618-.465c.162-.12.56-.539.56-.539l.073.045s-.147.285-.236.434c-.088.15-.353.405-.353.405s.515-.18.648-.195c.132-.015.353-.015.353-.015s-.045.06-.177.165c-.132.105-.632.48-.632.48l.206.21-.074.06zm.486 1.26s-.133-.84-.192-1.154a5.248 5.248 0 0 0-.103-.465s.265-.045.441-.15c.177-.105.56-.285.56-.285l-.074.27-.397.24s.53.434.765.674c.236.24.324.525.324.525s-.78-.314-.884-.405c-.102-.09-.249-.18-.249-.18l-.191.93zm-1.118.434l-.045-.045-.31-.69c-.073-.164-.352-.494-.352-.494s-.088.105-.132.18c-.044.075-.265.21-.265.21s.087-.285.102-.525c.015-.24.133-.644.133-.644s.559.104.927.3c.367.194.706.599.706.599s-.162.045-.309.045-.5-.03-.5-.03.074.195.074.465v.554l-.03.075zm-.546 1.873c-.125-.05-.147-.164-.161-.33-.014-.164 0-.359-.044-.478-.044-.12-.206-.465-.206-.465l.28-.06s.22.344.279.48c.059.134.088.239.088.239l.117-.06s-.117-.27-.161-.345c-.044-.074-.162-.314-.162-.314l.132-.03s.162.18.222.284c.058.105.205.345.205.345l.133-.045s-.147-.27-.207-.36c-.058-.09-.176-.36-.176-.36l.103-.06s.265.256.354.39c.088.135.161.3.161.3l.118-.045s-.06-.3-.147-.389c-.088-.09-.163-.375-.163-.375l.089-.015.324.33c.059.06.118.224.118.224l.19-.104s-.102-.135-.161-.21a8.76 8.76 0 0 0-.368-.375l.118-.075s.28.18.368.255c.088.075.22.24.22.24L82.54 6s-.207-.135-.265-.18c-.06-.045-.177-.225-.177-.225l.206-.06s.192.256.368.315c.177.06.235.24.132.285-.103.045.045.135.03.24-.015.105-.118.15-.25.15-.133 0 .059.254-.104.315a.528.528 0 0 1-.338.014c-.059-.014.015.225-.089.285-.102.06-.352 0-.352 0s-.03.285-.147.285c-.118 0-.339-.09-.339-.09s-.176.42-.442.314zM79.73 5.67l-.046-.344.074-.136.177.315.177-.09-.163-.374.25.21.369.015s0 .06.058.134c.06.075.163.21.163.21l.161-.075s.147-.044.089.075c-.06.12-.413.36-.84.435-.426.075-.808-.375-.808-.375h.339zm3.722-1.708c-.236-.15-.148-.195-.074-.21.074-.015 1.045-.48 1.118-.525.074-.045.236.12.147.165-.088.045-.735.48-.735.48s.31.255.426.33c.118.074.324.359.339.434 0 0-.986-.524-1.221-.674zm-.162 2.547s0-.374.103-.344c.103.03.397.284.544.315.148.03.618.21.618.21s-.397-.03-.618-.045c-.22-.016-.647-.136-.647-.136zm-1 1.005c.014-.105.22-.45.353-.615.132-.165.234-.254.368-.254.132 0 .632.374.735.434.103.06.5.225.442.225-.059 0-.78-.045-.78-.045s.176.345.206.54c.029.194.132.69.132.69s-.221-.24-.294-.406c-.074-.164-.457-.749-.457-.749l-.735.434s.015-.15.03-.254zm-14.494 2.982l.382.03.178.136h-.648l.088-.166zm-.339.51l.104-.135.897-.105.162.18-1.163.06zm.28.345l-.044-.12.47.105.193.27-.619-.255zm.912.779l-.926-.54v-.104l.764.345.162.299zm-1.589.464l-.177-.15.015-.479.132-.12.03.75zm.28.48l-.147-.224.117-1.664.147.225-.118 1.664zm2.751-2.323c-.059-.105-.059-.285-.25-.374-.19-.09-.442-.165-.515-.24-.073-.075-.132-.135-.161-.255-.03-.12.043-.09.147-.03.103.06.411.09.573.09.163 0 .368.03.457.195.088.164.088.27.132.39.044.119.103.27.103.27l-.486-.046zm-.456.615c.045-.105.162-.256.207-.33.043-.075.102-.18.25-.015.146.165.367.12.5.12.132 0 .264-.03.264.06s-.191.165-.308.225c-.118.06-.206.015-.295-.015s-.339-.165-.382-.105c-.044.06-.162.254-.206.24 0 0-.074-.075-.03-.18zm9.773-3.439c-.015-.076-.037-.28 0-.363.037-.084.134-.706.134-.842s-.082-.288.067-.288c.148 0 .365.075.41.136.044.061.006.296-.053.455-.06.159-.193.599-.29.682-.097.083-.097.053-.15.13-.051.074-.118.09-.118.09zm-2.679-1.114c.015-.06-.007-.114.134-.076.141.038.41.22.41.22s.103-.334.327-.342c.223-.007.796.084.796.084l.014-.144s-.401-.204-.46-.28c-.06-.076-.135-.296.007-.243.141.053.469.205.469.205l.03-.152s-.35-.266-.388-.334c-.037-.067-.03-.173.097-.144.126.031.395.015.395.015l.06-.197s-.239-.144-.299-.19c-.059-.044-.03-.204.112-.188.142.014.268.014.268.014l.052-.295s-.2-.106-.26-.144c-.06-.038-.06-.16.067-.174.126-.016.342-.084.342-.084l.067-.19s-.097-.083-.201-.135c-.105-.054-.09-.182.067-.182.156 0 .253 0 .297-.046.045-.045.105-.166.038-.166-.068 0-.134-.023-.209-.046-.074-.023-.186-.235.06-.28.245-.046.64.076.64.076l.052-.122s-.26-.136-.328-.182c-.067-.045-.11-.19.12-.424.23-.236.558-.516.736-.53l.179-.016s-.156.364-.2.454c-.046.092-.142.357-.18.456-.037.098.082.083.112.03.03-.053.417-.607.514-.667.096-.06.178-.038.103.144-.074.182-.49.88-.558 1.008-.066.13-.104.348-.104.348s-.327.235-.387.349c-.06.114-.603 1.25-.677 1.562-.074.31-.245 1.379-.409 1.447-.163.069-.573.387-.937.258a2.351 2.351 0 0 1-.708-.394c-.052-.053-.066-.144-.118-.16-.052-.014-.142-.143-.142-.143zm.789-2.524c-.082-.092-.201-.197-.305-.333-.105-.137-.067-.327.022-.47.089-.145.186-.107.23-.084.045.022.127.083.105.136-.023.053-.06.144-.082.258-.022.114.067.235.112.28.044.046.097.084.112.144 0 0-.112.16-.194.069zm.691-.63c-.036.1-.2.046-.155-.068.044-.113.023-.144.074-.212.052-.068.223-.083.186.038-.037.121-.105.242-.105.242zm-.9 1.085c.023-.069.224-.008.224-.008s.215-.356.26-.47c.045-.114-.007-.288-.12-.34-.11-.055 0-.168.09-.122.09.045.216.152.283.19.066.037.075.189-.007.386s-.23.546-.283.576c-.052.03-.104.068-.223.014-.119-.052-.253-.12-.253-.12l.03-.106zm-.468.681a.76.76 0 0 1-.246-.212c-.082-.098.015-.326.097-.644s.163-.363.275-.326c.112.038.357.121.432.152.075.03-.023.121-.023.121s-.074.007-.156.03a.313.313 0 0 0-.178.137c-.03.053-.171.538-.171.56 0 .024-.008.07.022.07s.179.075.179.075.014.03.014.053-.037.06-.037.06-.127-.037-.208-.076zm-.38.592c.015-.046.09-.031.09-.031l.268.091c.022.008.074.031.088-.015.015-.045.335-.681.343-.712.008-.03.015-.083-.008-.092-.022-.007-.14-.075-.14-.075l.059-.083s.089.038.171.06c.082.023.141.198.104.311-.037.114-.14.478-.253.652-.111.175-.276.136-.35.106-.074-.03-.357-.129-.357-.129s-.03-.038-.015-.083zm.208.303c.053.023.068.326-.163.341-.23.016-.655-.083-.655-.455 0-.371.145-.53.328-.576.424-.106.431.114.431.114s-.402.053-.394.349c.007.296.139.304.282.318.149.015.171-.09.171-.09zm-1.547-.303s-.12-.326-.157-.402c-.037-.076-.148-.38-.148-.38l.164-.037s.133.289.156.372l.104.386-.12.061zm-.618-.076c-.044-.113-.268-.447-.268-.447l.261-.13s.119.266.148.312c.03.045.224.599.224.599l-.149.159s-.172-.38-.216-.493zm-.483.425c-.06-.137-.26-.554-.26-.554l.17-.114s.165.29.23.418c.083.159.246.553.246.553l-.186.144s-.141-.31-.2-.447zm-3.267-.432l.156-.069-.796-.378.186-.039.73.289.088-.069-.513-.265.208-.068.447.25.052-.106-.29-.175.14-.106.284.152.052-.099s-.179-.128-.12-.15c.06-.024 2.903-.91 3.074-.934.172-.022.479.066.479.066.077.028.255.08.306.08.05 0 .201-.108.256-.14.055-.033.023-.098-.036-.15-.06-.05-.275-.079-.275-.079s.019-.088.106-.135a2 2 0 0 1 .42-.135c.046 0 .165.042.22.084.055.042.311.172.407.288.096.118-.179.611-.311.76-.133.15-.297.205-.375.2-.078-.004-.279-.092-.407-.148-.128-.056-.389-.01-.545.01-.155.018-.9.302-.97.325-.069.023-.275.084-.412.238-.137.154-.292.28-.571.345-.28.065-.778-.284-.778-.284s-.137.065-.174.098c-.037.032-.114.149-.114.149s.082.028.233.125c.15.098.16.22.178.29.018.07-.037.2-.037.2l.188.112s-.018-.14-.018-.187c0-.046.018-.326.018-.326l.12-.005s.031.126.036.168c.004.042.027.135.027.21a.9.9 0 0 1-.036.196l.214.116s.01-.051.028-.08c.019-.027.032-.083.073-.167.042-.084.028-.387.028-.387l.091.023s.028.099.05.164a.582.582 0 0 1-.022.28c-.023.06-.07.27-.07.27l.144.102s.123-.065.136-.084a.626.626 0 0 0 .05-.242c0-.103-.027-.429-.027-.429h.156s0 .02.009.075l.06.41s.059-.019.09-.042c.032-.023.175-.135.175-.135s-.014-.066-.041-.154a2.331 2.331 0 0 0-.11-.252l.118-.089.143.271c.05.098.242.457.274.517l.124.233-.102.089s-.06-.056-.082-.093c-.022-.038-.091-.126-.091-.126l-.037.046.11.303-.11.107-.164-.316-.073.046s-.01.074 0 .135c.008.06.059.355.059.355l-.142.06s-.046-.097-.06-.154c-.013-.056-.1-.293-.1-.293l-.07.037s.01.154.029.224l.068.256-.146.047s-.082-.247-.11-.285a.634.634 0 0 1-.05-.167l-.06.07.046.386-.183-.004-.027-.355s-.115-.009-.165-.028c-.05-.019-.224-.144-.224-.144l-.527.06-.004-.377s-.197-.112-.288-.182c-.092-.07-.527-.312-.527-.312l-.274.084s-.036-.186-.169-.307c-.133-.122-.769-.341-.851-.392-.082-.052-.252-.154-.252-.154l.261-.032.99.428zm-.198 1.095c-.004-.055.11-.344.234-.414.123-.07.105-.117.48.121s.494.307.367.573c-.1.209-.235.205-.235.205s.024-.083.051-.154c.028-.07-.105-.219-.246-.293-.143-.075-.344-.21-.43-.173-.088.038-.22.135-.22.135zm-1.125-.344c-.05-.024-.034-.658.207-.661.274-.006.684.103.813.209.13.105.183.372.084.518-.124.185-.26.172-.26.172l.078-.158c.027-.054.158-.234-.24-.346-.377-.106-.488-.065-.54.015-.051.08-.093.275-.142.251zm-.234-.185c-.014-.08-.079-.318-.3-.384-.22-.066-.338-.08-.402-.092-.065-.014-.09-.388-.052-.464.064-.129.27.006.453.085.182.08.43.233.404.55-.026.318-.103.305-.103.305zm2.508 1.23l-.092-.078s.092-.12.274-.239c.181-.119.468-.066.533.093s.142.304.155.503c.013.199-.169.225-.233.105-.065-.118-.416-.502-.416-.502l-.221.119zm-1.573-.846l-.078.119s0 .106.078.159c.078.053.273.132.364.172.091.04.143.053.156 0 .013-.053.104-.146.104-.146l.182.053-.208.291c-.065.093-.22.133-.312.12a1.08 1.08 0 0 1-.52-.252c-.22-.185.104-.583.104-.583l.13.067zm-1.339-.424c-.013.04-.09.185.027.265.117.08.545.212.675.225.13.013.208-.305.208-.305l.117.027s-.103.278-.233.45-.599.106-.754.026c-.156-.08-.286-.264-.286-.383 0-.12.182-.504.182-.504l.117.04-.053.159zm3.042 1.47c-.004.01-.009.02-.013.034-.05.125-.179.362-.52.23-.377-.146-.429-.357-.403-.53.026-.172.143-.383.143-.383l.117.04s-.156.304.026.436c.182.133.247.212.363.225.118.014.234-.106.234-.106l.053.053zm-1.222.29l-.156-.29h.26l.143.317-.247-.026zm-.715.08l-.181-.715.415.199s.169.37.195.424c.026.052-.039.105-.117.105-.078 0-.312-.013-.312-.013zm-.727.199c0-.066 0-.821-.027-.9l-.026-.08.313.013s.233.728.233.768c0 .04-.13.145-.207.159-.079.013-.286.04-.286.04zm-.65.29c.013-.198.078-1.376.078-1.376l.22.053-.012 1.152-.286.172zm7.85-1.455l-.69-.2-.169.16.196.596-.222.106-.649-.172-.13.119.156.609-.247.185-.638-.384-.18.053-.105.821-.182.053s-.208-.146-.273-.199a4.613 4.613 0 0 0-.363-.212l-.13.093s.026.252.038.344c.013.093.013.278.013.278l-.221.146s-.338-.331-.39-.424c-.052-.092-.363-.199-.376-.145-.013.053-.494.715-.494.715V8.709l.143.424.117-.159-.027-.423s.027.106.04.172c.013.066.064.171.064.171l.157-.092-.04-.238s.078.066.104.106c.027.04.027.158.027.158l.168.054s-.025-.2.014-.16c.039.04.298.133.298.133l.065-.172s-.402-.093-.48-.397c-.051-.2.142-.265.142-.265s-.025.49.455.41c.377-.062.143-.463.143-.463s-.09-.132.013-.119c.104.013.26.12.26.225v.291s.26 0 .273-.106c.013-.106.026-.304.182-.37.157-.066.598-.278.767-.41.169-.133.676-.49.676-.49l.337.277.078-.119-.285-.238.077-.066s.157.132.208.159c.053.026.182.092.156.026-.026-.066-.169-.264-.169-.264l.143-.054.17.173.13-.053-.209-.292.208-.132.13.212h.079s.064.092.168.212c.104.119.325.278.442.397l-.169.106zM70.52 12.68c-.026-.08-.13-.291-.208-.344-.078-.053-.442-.066-.532-.066-.091 0-.195-.067-.17-.226.026-.158.105-.291.247-.357.143-.066.273-.04.43-.013.155.026.272-.053.35-.014.078.04.169.093.22.16.053.066.17-.054.17-.146 0-.093-.026-.159-.026-.225s.026-.133.117-.106c.09.026.22.291.22.291s.027-.251-.012-.344c-.039-.093-.156-.132-.156-.199 0-.066.065-.066.181-.04.118.027.157.24.17.372.013.131-.04.714-.04.714l.196.053s.09-.159.103-.265c.014-.105.014-.384.014-.384s.117.093.194.279c.078.185.066.277.066.277l.156-.053s-.079-.569-.026-.688c.051-.12.415-.45.819-.437.402.014.74.053.922.318.181.265.234.423.234.423l.195-.079s-.234-.49-.442-.635c-.208-.146-.818-.265-.988-.279-.169-.013-.051-.171-.013-.171.04 0 .624-.08.897.132.273.212.74.728.74.728l-.194-.595s-.416-.385-.689-.438c-.273-.053-.715-.106-.715-.106v-.198s.572-.08.793-.013c.22.066.688.397.688.397l.014-.239s-.469-.29-.624-.357c-.156-.066-.624-.119-.624-.119l.013-.159s.299-.04.429-.053c.13-.013.597-.026.597-.026l.027-.212-.221-.04.013-.516.585.265.429-.146s.052-.45.065-.49c.012-.04.13-.119.168-.04.04.08.663 1.337.702 1.484.04.145-.156.237-.208.092-.052-.146-.39-.848-.39-.848l-.077.345s.377.926.415 1.059c.04.133-.116.291-.168.225-.053-.067-.365-.662-.365-.662l-.077.318s.299.609.337.728c.04.119-.09.423-.195.291-.104-.132-.298-.516-.298-.516l-.13.291s.298.53.311.728c.013.199-.09.543-.259.583-.17.04-.325.013-.494.013a.57.57 0 0 0-.455.225c-.104.145-.169.304-.312.304s-1.066.014-1.118-.04c-.052-.052-.103-.092-.103-.092s-.065.08-.118.053c-.051-.026-.025-.106-.142-.146-.117-.04-.117.04-.092.093.026.053-.065.172-.116.08-.052-.093-.13-.226-.221-.252-.092-.026-.26-.026-.442 0s-.403.08-.52.08c-.117 0-.247-.027-.247-.027zm5.645-4.546s-.106-.212-.027-.3c.122-.132.676-.132.676-.132s-.38.247-.468.283c-.086.035-.181.15-.181.15zm2.53.857c-.096 0-.33-.018-.417-.035a4.983 4.983 0 0 1-.554-.142c-.104-.043-.13.018-.268.08-.14.062-.416.08-.598.123-.182.044-.486-.009-.486-.009s-.034-.255-.078-.414c-.043-.159-.078-.31-.078-.31s.062-.044.13-.061c.07-.017.295-.15.373-.177.078-.026.337-.14.442-.167.104-.026.19-.089.277-.062.086.026.485.212.59.274.103.061.528.053.528.053l-.009.22s-.303.062-.363.062-.166-.106-.243-.168c-.078-.061-.382-.141-.442-.203-.061-.061-.13-.044-.277-.035-.148.009-.252.08-.356.168-.103.088-.286.167-.364.203-.077.035-.173.052-.156.114.017.062.035.053.148.098.112.044.493.026.572.026.078 0 .363-.132.424-.106.06.027.65.256.771.3.122.044.321-.009.477-.009.156 0 .398.01.398.01l-.008.22s-.338-.053-.434-.053zm.043.997c-.139-.009-.39-.123-.477-.185a12.433 12.433 0 0 1-.398-.327l-.243.061c-.07.018-.398.063-.485.08-.086.018-.407.15-.442.168-.034.018-.06.16 0 .16h.39c.147 0 .346-.019.52-.036.173-.018.364-.027.441.035.079.062.555.6.616.635.06.036.606.036.606.036s-.008.203-.052.203c-.043 0-.38-.027-.468-.027-.086 0-.19-.08-.26-.115-.069-.034-.216-.203-.268-.246-.052-.044-.277-.089-.347-.195-.07-.106-.25-.08-.398-.044-.147.035-.287.07-.45.07-.165 0-.58-.097-.642-.114l.035-.441s.32-.106.407-.169a.997.997 0 0 1 .269-.132c.104-.035.502-.053.572-.105.069-.053.164-.15.268-.15.104 0 .667-.01.84-.027.173-.018.33-.018.33-.018l.008.107s-.294.132-.381.132c-.086 0-.398.018-.493 0-.096-.018-.278-.018-.278-.018s.278.168.329.238c.053.071.113.168.26.186.147.017.39.026.477.017.086-.008.32-.07.32-.07s0 .203-.06.23c0 0-.407.07-.546.061zm-2.573 1.06s.13.017.216.017c.087 0 .27-.088.442-.16.173-.07.555-.335.685-.378.13-.045.441-.036.554.07.112.106.468.282.528.336.061.052.477.026.477.026l-.017.132s-.191.062-.295.08c-.104.018-.381.026-.381.026s-.052-.044-.113-.176c-.06-.133-.26-.239-.45-.257-.19-.017-.295.124-.425.195-.13.07-.399.14-.467.159-.07.018-.079.053.034.079.113.027.685.089.815.141.13.053.485.486.562.538.078.054.598-.008.598-.008l-.104.291s-.277-.026-.355-.026a3.35 3.35 0 0 1-.39-.054c-.07-.012-.545-.458-.632-.53-.087-.07-.797-.158-.918-.158-.122 0-.443-.07-.443-.07l.079-.274zm.606.979s.442-.054.572-.054c.13 0 .208 0 .295.018.086.018.424.203.493.265.07.062.546.044.546.044l-.06.115s-.33 0-.45-.018c-.123-.018-.53-.3-.625-.344-.095-.044-.762.08-.762.08l-.009-.106zm-4.418.269c.065.02.227.106.286.106.058 0 .051-.04.077-.166.027-.126.234-.271.378-.31.142-.04.428.072.506.086.078.013.117-.067.201-.106a.642.642 0 0 1 .273-.047c.091 0 .345 0 .422.033.079.033.183.159-.032.12-.214-.04-.474.079-.682.172-.208.092-.22.45-.22.45s-.397-.027-.527-.014c-.13.014-.312.08-.312.08s-.06-.053-.084-.066c-.027-.014-.085-.04-.111-.08-.026-.04-.137-.026-.208-.026-.071 0-.098-.126-.091-.186 0 0 .059-.066.124-.046zm.032-.616c-.013-.04-.071-.337.208-.43.279-.092.662-.106.89.047.227.152.267.324.286.363.02.04-.136.113-.169.086-.032-.026-.37-.31-.455-.323-.084-.014-.311-.04-.487.04-.175.078-.273.217-.273.217zm-1.826.748c-.051-.052-.065-.139-.046-.212.02-.072.254-.02.325.007.072.027.182.047.196.093.012.046-.059.132-.104.139-.046.007-.163.02-.209.06 0 0-.11-.033-.162-.087zm2.397.014c-.006-.126.105-.364.3-.305.194.06.155.212.13.258a.46.46 0 0 1-.137.106s-.006-.086-.013-.152c-.006-.066-.11-.106-.15-.046a.902.902 0 0 1-.13.139zm-1.123.576c.09-.047.402-.027.52.006.116.033.818.112.935.112.117 0 .526.007.526.007s-.032.073-.097.12c-.065.046-.137.092-.162.119-.026.026-.11.052-.3.139-.187.086-.52.039-.63-.007-.11-.047-.455-.331-.565-.357-.11-.027-.377.052-.435.079 0 0 .116-.172.208-.218zm1.651 1.893c-.034-.03-.017-.1-.029-.157-.012-.058-.126-.191-.136-.267-.012-.075.068-.14.113-.232.045-.094.092-.105.12-.105.029 0 .04-.017.142-.04.103-.024.024.504.018.557a1.124 1.124 0 0 1-.103.273s-.09 0-.125-.029zm-3.392 1.074c.035-.088.126-.052.137-.024.012.03.035.082.052.082.017 0 .068-.105.136-.233.069-.128.131-.133.148-.121.018.01.103.08.103.08s-.032-.092.063-.238c.114-.173.205-.103.2-.063a.422.422 0 0 0 0 .093s.04-.012.079-.116c.04-.105.102-.285.182-.348.08-.065.189-.006.183.023-.006.029-.034.11-.023.133.012.023.097-.07.115-.18.016-.11.073-.238.107-.336.035-.1.251-.123.251-.123s-.01.17-.01.198c0 .029.033.023.078-.04.046-.064.166-.407.211-.476.045-.07.166-.024.166.04 0 .063-.057.26-.052.278.006.018.063-.028.12-.115.057-.087.24-.46.314-.558.074-.099.205-.104.21-.07.006.035-.005.21-.005.273 0 .064.067-.023.148-.098.08-.076.051-.262.051-.262s.166-.058.263-.075c.096-.017-.006.098.096.11.103.011 0-.128.149-.226.148-.1.125.168.08.237-.046.07-.28.088-.28.088s-.051.157-.142.203a.626.626 0 0 1-.177.058s-.023.035-.046.058c-.023.024-.222.227-.28.273-.056.046-.261.081-.307.093-.046.011-.222.29-.29.343-.068.052-.343.017-.343.017s-.136.355-.193.4c-.097.076-.285-.017-.285-.017s-.097.22-.137.279c-.04.057-.245.04-.245.04s-.057.128-.137.204c-.08.075-.24-.012-.24-.012s-.102.197-.164.267c-.064.07-.166.006-.166.006s-.04.093-.103.191c-.062.099-.056.007-.073-.052 0 0 .022-.197.056-.284zm4.828-3.013c.046.07.051.296.029.394-.024.1-.274.883-.274.912 0 .029.017.064.052.128.033.063.007.225-.035.214-.022-.006-.143-.25-.17-.301-.03-.053-.126-.186-.121-.302.006-.116-.068-.598-.125-.68-.057-.081-.194-.318-.234-.383-.04-.064-.046-.15.137-.267.182-.115.343-.186.479-.092.136.092.262.377.262.377zm2.356.69c-.13-.075-.074-.32-.074-.526 0-.206-.277-.206-.442-.168a.562.562 0 0 1-.425-.057c-.147-.075-.644-.6-.644-.6l.11-.207s.493.258.658.258c.096 0 .727-.014.945-.014.148 0 .167.038.185.244.018.207.258.394.405.394.147 0 .387-.037.387-.037s-.128.187-.276.207c-.148.018-.295-.038-.443-.094-.147-.057-.258-.414-.368-.488-.11-.076-.424-.02-.59-.02-.166 0-.627-.169-.627-.169s.277.263.443.377c.166.112.442.056.645.131.203.075.147.488.147.619s.461.281.461.281l-.037.055-.46-.185zM52.178 3.697s.24.057.24-.075-.11-.676-.166-.788c-.055-.113-.258-.188-.258-.188l-.018-.094 1.492.432.056.394s-.24-.3-.424-.394c-.185-.094-.332-.057-.332-.057l.074.488s.166 0 .221-.018c.055-.02.092-.132.092-.132l.092.489s-.036-.076-.129-.15c-.091-.076-.22-.076-.22-.076l.091.32s.203.112.35.112c.148 0 .11-.15.11-.15l.13.019.092.431s-.46-.15-.737-.244c-.276-.094-.756-.262-.756-.262v-.057zm-.276-.375l-.295-.301.166-.319.277.356-.148.264zm-2.046-.282v-.075h.222c.074 0 .074-.094.037-.244s-.093-.694.663-.47c.755.226.608.751.627.827.018.075.055.281.055.281l.221.075v.094l-.719-.206v-.057s.184.076.184.019c0-.056-.064-.389-.092-.6-.036-.282-.515-.507-.498-.226.02.282.093.563.149.62a.79.79 0 0 0 .165.112v.094s-.11-.056-.331-.131c-.222-.075-.683-.113-.683-.113zm-1.547-.263l-.02-.075s.185-.018.149-.188c-.037-.169-.13-.357-.166-.469-.037-.112-.277-.15-.277-.15l-.018-.056s.866.018 1.18.074c.313.057.442.095.442.095l.073.281-.073.02s-.063-.103-.147-.17c-.167-.131-.646-.15-.646-.15l.13.338s.147.037.239 0c.092-.038.129-.131.129-.131l.166.488s-.166-.226-.24-.226c-.074 0-.258.02-.258.02l.092.262s.258.131.406.094c.147-.038.165-.188.165-.188l.074.3s-.645-.112-.792-.131c-.147-.02-.608-.038-.608-.038zm-.848-.206c0-.113-.018-.131-.11-.338-.055-.123-.056-.206-.203-.263-.148-.057-.258-.057-.258-.057l-.037-.074h1.013v.074l-.202.039.294.732.24.018.019.094-.996-.038v-.093s.24.019.24-.094zm-1.419.094l-.35-.713s.258-.076.406-.039a.458.458 0 0 1 .294.32c.019.112.13.356.019.376-.111.018-.369.056-.369.056zm-.7.112s.147-.019.11-.112c-.036-.094-.22-.489-.313-.601-.092-.112-.387-.15-.387-.15s.776-.074.867-.094c.165-.038 1.032-.093 1.234.244.155.258.166.507.018.582-.147.075-1.197.188-1.4.188-.203 0-.13-.057-.13-.057zm3.373 5.256c-.185 1.014-.653 1.253-1.088 1.408-.567.201-1.972-.113-2.156-.132-.184-.018.11.47-.295.77-.161.12-.534 0-.534 0l-.24.188c-.074.056-.17.273-.571.225-.11-.013-.498-.187-.608-.244-.11-.056-.719 0-.848.057-.129.056-.258-.02-.258-.02s.092-.356.166-.431c.074-.076.35-.32.424-.338.074-.02.516.056.682.038.166-.02.221-.357.221-.414 0-.056-.11-.281-.129-.413-.019-.131.184-.45.277-.544.092-.094.037-.15-.185-.168-.22-.02-.184-.282-.184-.282s-.111.093-.24.15c-.129.056-.24-.057-.24-.057l.02.17c.017.168-.167.393-.24.45-.074.056-.332.244-.369.394-.037.15-.074.225-.147.169-.075-.056-.056-.263-.056-.263l-.073-.131-.092.037.037-.244-.093.019.037-.244h-.093s.02-.112.056-.225c.037-.113.056-.207.129-.338.073-.131.073-.3.11-.376.038-.074.019-.206-.11-.225-.129-.018-.092.132-.11.282-.019.15-.166.3-.166.357 0 .056-.148.112-.203.112-.055 0-.166.132-.166.132s-.037-.132-.092-.076c-.055.056-.203.132-.203.132s-.037-.132-.129-.019-.202.094-.202.094l.018-.15s-.073 0-.166.056a25.93 25.93 0 0 0-.405.263s.018-.169-.074-.094c-.093.075-.295.132-.295.132s.018-.188.11-.357c.092-.17 0-.15.092-.282.093-.131.222-.168.222-.168l-.019-.076.148-.169s-.074-.093.018-.169c.093-.075.166-.13.166-.13s-.037-.207.11-.245c.148-.038.185 0 .185 0s-.055-.131.056-.131c.11 0 .276.056.276.056v-.113s.055.019.165.038c.111.019.259.094.35.15.093.056.167.038.259.038s.019-.17 0-.226c-.018-.056-.13-.075-.13-.075h-.184c-.073 0-.165-.056-.276-.075-.11-.018-.129-.037-.22-.056-.093-.02-.204-.038-.259-.056-.055-.02-.11-.02-.221 0-.11.018-.093-.076-.093-.076s-.165.02-.22.038c-.056.019 0-.113.055-.131.055-.019.129-.17.129-.17s.073-.15.129-.168c.055-.02.184-.056.258-.056.073 0 0-.114 0-.114s.165-.018.24-.037c.073-.019-.148-.15-.038-.15.111 0 .277-.075.277-.075l.055-.112c.056-.114.129-.17.313-.132.185.037.443.094.443.094l-.092-.132c-.092-.132-.13-.413-.055-.413.073 0 .331-.037.331-.037s.129 0 .125-.067c-.006-.113-.13-.113-.295-.113a.776.776 0 0 0-.313.075l-.092-.094s-.129.094-.203.056c-.073-.037-.055-.206-.11-.206s-.166.019-.221-.038c-.055-.056-.11-.187-.11-.187s0-.057.036-.113l.074-.113s-.092 0-.092-.075c0-.074.35-.131.35-.131v-.15c0-.094.221-.038.221-.038s.018-.075.11-.075c.093 0 .185.113.185.113s0-.094.092-.094a.22.22 0 0 1 .147.056s.074-.168.185-.056c.11.113.11.188.202.206.092.02.387-.056.46-.056.075 0 .13-.112.204-.225.073-.113.239-.075.239-.075v-.206c0-.132.24-.244.313-.244.074 0 .387.093.497.131.112.037.185-.131.074-.15-.11-.02-.644-.207-.644-.207l.184-.582.774.376-.11.319s.294.037.423.113c.129.074.221.506.221.506s2.414-.15 3.317-.037c.903.112 2.083.525 2.487.637.406.114 3.557 1.202 3.76 1.22.203.02.442-.206.018-.337-.423-.131-1.068-.356-1.068-.356l-.093-.601s.442.507.553.6c.11.094.093 0 .093-.093 0-.094-.13-.638-.204-.807-.073-.17-.239-.15-.239-.15V3.14s.35.093.534.169c.185.075.59.187.59.187v.094s-.295-.094-.276-.018c.018.074.129.675.147.769a.22.22 0 0 0 .166.17c.074.018.166-.133.166-.226v-.244l.276.056v.075l.13.019.054-.131s.13-.113.258-.094c.13.018.37.094.424.206.056.113.203.094.203.094s.11-.15.258-.113c.147.038.11.057.166.094.055.038.092.038.184.057.092.018.13-.226.13-.226s.11-.018.184-.018c.073 0 .073.13.128.13.056 0 .184-.169.277-.243.092-.075.221-.207.35-.338.13-.132.903-1.051.903-1.051l.11-.488s-.515.582-1.271 1.163c-.756.583-2.285.094-2.746-.037-.46-.132-4.883-1.727-6.505-1.84-1.621-.112-4.55.113-4.92.132-.368.019-1.934.131-2.303.17-.368.036-1.05.205-1.05.205l.282-.715s4.404-.488 6.35-.41c1.947.08 2.392-.13 6.305 1.182 3.615 1.211 3.585 1.023 4.233.818.41-.13.882-.645 1.082-.818.2-.174-.053-.544-.309-.284-.293.299-.973.945-1.885.74a6.584 6.584 0 0 1-1.591-.582l.216-.347s1.25.614 1.76.488c.511-.126 1.067-.346 1.268-.74.201-.393.572-.613.943-.33.37.283.402.756.417.913.015.157-.092.74-.092.74s.246-.363.324-.441c.077-.079.278-.268.278-.268l-.093-.078s-.139-.048-.185-.157c-.047-.111.154-.505.154-.709V.49l.17-.3s.371-.015.557-.047c.185-.032.54-.204.833-.047.295.157.232.33.232.33l.186.315s.865-.299 1.174-.346c.31-.047 1.174-.126 1.39-.11.217.015.326.188.372.346.046.158-.046.283-.046.283l.726.456s.34-.094.417-.047c.077.047.309.315.355.41.046.094-.046.44-.046.44l.247.205s-.015-.52-.015-.77c0-.253.077-.426.216-.537.139-.11.742-.362 1.004-.125.263.236.974 1.038 1.761.834a6.655 6.655 0 0 0 1.299-.472l.278.472s-1.236.66-1.793.582c-.556-.079-1.36-.394-1.653-.803-.132-.184-.665-.016-.34.268.3.26 1.34 1.126 2.116.976.897-.173 4.3-1.343 4.682-1.448C75.592.944 78.33.635 79.3.551c2.179-.189 5.717.41 5.717.41l.655.841s-1.28-.255-1.824-.315c-.477-.052-3.12-.479-6.004-.134-2.551.305-5.15 1.049-6.797 1.634-1.648.584-2.309.361-3.076-.09-.804-.475-1.241-1.368-1.241-1.368s.009.277.038.367c.03.09.1.266.174.416.073.15.353.495.456.705.103.21.455 1.094.5 1.274.044.18.191.554.411.704.222.15 1.722.03 2.09-.045.369-.075 3.267-.99 4.812-1.379 1.545-.39 3.296-.494 3.385-.48.087.015.19-.104.132-.195-.06-.09-.163-.06-.163-.06v-.074s.295-.105.354-.12.25-.645.309-.795c.059-.15-.177-.134-.177-.134v-.09l.942.015-.03.075s-.22.03-.234.105c-.015.074-.075.33-.075.33s.207-.166.368-.27c.163-.105.397-.046.397-.046l.016-.089-.192-.136 1 .03-.25.12-.117.405.191.27.236-.03.147-.24.191.03-.28.6-.427.044s-.058.15 0 .15c.06 0 .266 0 .369-.014a.831.831 0 0 0 .309-.136c.059-.044.397-.42.397-.42l-.25-.299.5-.42.383.42-.324.315.103.12-.235.39s.662-.075.735-.075c.074 0 .044.24.044.24s.088-.046.148-.046c.058 0 .102.06.102.06l.162-.06s.118.046.133.09c.014.046-.118.375-.118.375l.692-.195-1.398-.869.75-.24 1.78.99.25.944s-.765-.42-.882-.45c-.118-.03-.31.164-.31.164s.398.466.501.6c.103.135.177.405.177.405s-.545-.225-.633-.24a6.427 6.427 0 0 1-.427-.12s.015.24.03.315l.103.54s-.147-.075-.353-.135c-.206-.06-.824-.345-.824-.345l-.015.615s.265.09.412.12c.147.03.485.03.736.03.25 0 .69-.12.69-.12s.03.074-.073.224c-.103.15-.338.165-.47.225-.133.06-.5.105-.5.105s.28.225.397.27c.117.045.47.165.618.195.147.03.397.18.191.24-.206.06-.412.03-.633.03-.22 0-.618-.09-.618-.09s.412.195.604.299c.191.105.574.195.706.255s.323.09.132.165c-.19.075-.603.104-.809.09-.206-.015-.56-.09-.56-.09s.06.39.09.48c.029.09.205.599.205.599l-.265.105-.573-.555-.103.48-.236-.165-.22-.644s-.192.12-.251.165c-.059.045-.132.27-.132.27l-.177-.076s.118-.36.133-.464c.014-.105 0-.3 0-.3l-.191.015-.06.045c-.058.045-.102.075-.146.135-.045.06-.148.045-.236.045s-.147.045-.147.045.132.24.235.374c.103.135.28.42.28.42l-.236.09s-.205-.105-.294-.18-.589-.464-.647-.554c-.06-.09-.147-.12-.147-.06s-.015.57-.015.72c0 .149-.162.284-.162.284s-.103-.195-.118-.315c-.014-.12-.058-.704-.058-.764 0-.06-.045-.18-.09-.135-.043.045-.146.105-.293.255-.147.15-.339.33-.339.33l-.28-.106s.03-.09.104-.24.088-.554.088-.704c0-.15-.036-.51-.036-.51 0-.04-.117-.099-.176 0-.058.1-.162.338-.201.398-.04.06-.104.192-.124.225-.019.032-.006.105-.078.178-.071.073-.13.047-.13.047l-.026.033c-.025.032-.454.324-.747.304-.175-.011-.643-.166-.747-.218-.104-.054-.429-.166-.475-.152-.045.013-.194.098-.266.119-.072.02-.39-.106-.474-.14-.085-.033-.104.02-.091.073.012.053.162.351.162.351s-.052.04-.097.053c-.045.014-.053.093-.053.093s.027 0 .326 1.032c.299 1.033-.24 2.404-.269 2.471-.183.434-.747 1.179-.747 1.179s.012.063.052.104c.04.04.09.175.153.203.063.03.519.32.707.395.188.075.587-.07.786-.099.2-.029.228.134.234.32.006.186.051.255.12.301.068.047.473.169.473.169l-.007.061s-.515-.112-.662-.168c-.148-.057-.185-.264-.185-.357 0-.093-.018-.15-.24-.093-.22.055-.405.112-.478.112-.074 0-.627-.282-.682-.32-.055-.037-.11 0-.129.151a.986.986 0 0 1-.221.488c-.11.113-.166.338-.166.45v.394l-.295.113s-.185-.281-.239-.338c-.056-.056-.277-.281-.332-.375-.055-.094-.057-.466-.057-.466s-.146.128-.183.222c-.037.094.056.3.056.432 0 .13-.037.356-.037.469 0 .113-.037.263-.037.263l-.258.093s-.019-.075-.073-.169a4.084 4.084 0 0 0-.24-.356c-.074-.094-.13-.225-.13-.225s-.294.244-.404.3c-.111.056-.222.075-.222.075s-.092.188-.184.263c-.093.075-.313.112-.313.112s-.223.206-.277.3c-.064.113-.309.05-.309.05-.1.203-.108.188-.152.233-.073.074-.221.037-.221.037s-.04.074-.094.16c-.086.133-.274.065-.274.065s-.074.113-.13.188c-.054.075-.165.075-.239.075 0 0-.074.169-.13.206-.054.038-.146.075-.165-.074a.97.97 0 0 1 .056-.413c.036-.113.24-.151.295-.151.055 0 .055-.075.11-.206s.22-.166.306-.179c.061-.008.063-.084.137-.234.073-.15.184-.094.312-.15.13-.056.02-.15.13-.282.11-.131.202-.112.295-.112.092 0 .073-.15.165-.263.092-.113.185-.132.24-.132.056 0 .129-.112.203-.225.073-.113.294-.15.294-.15l-.092-.094s-.276-.019-.406.019c-.128.038-.22 0-.22 0s.055-.112.11-.188l.24-.319-.166.019c-.166.019-.442.187-.442.187s-.148-.018-.11-.131c.036-.113.239-.394.276-.45.037-.057-.08-.124-.245-.105-.167.019-.29.105-.4.142-.11.038-.277 0-.37 0-.09 0-.276-.282-.367-.319-.093-.037-.221-.131-.35-.17-.13-.037-.24.02-.498-.111-.258-.132.055-.583.018-.676-.037-.095-.22-.207-.11-.301s.313-.47.313-.47-.056-.224-.387-.356c-.332-.131-.35-.431-.387-.619-.037-.188.074-.694.074-.694l.258.074s.073.188.092.3c.018.114.092.208.553.17.46-.038.515.15.59.338.073.187.202.638.294.694.093.056.221.094.35.038.13-.056.369-.038.498.112.13.15.24.189.35.15.11-.037.295-.262.295-.262s0-.169.074-.32c.073-.15.332-.225.332-.225l.018-.375-.222-.038s-.165-.112-.202-.206c-.037-.094-.387-.3-.387-.3s-.11.206-.148.338c-.036.13-.24.394-.24.394l-.404-.019s-.037-.45-.019-.6c.019-.151-.074-.827-.074-.827l.203-.262s-.516-.075-1.271.112c-.38.094-1.474.582-1.474.582s-.111.394-.148.488c-.037.094-.203.62-.203.62l.443.45c.073.075.405.47.405.47h-.443c-.055 0-.294.019-.294.019s.184.281.277.431c.092.15.386.75.386.75s-.386-.093-.46-.15c-.074-.056-.387-.187-.387-.187s.055.431.073.525c.019.094.092.488.092.488s-.387-.45-.46-.563c-.074-.112-.166-.188-.184-.112-.019.075-.111 1.07-.111 1.07l-.792-1.051-.59.45s.074.169.018.244c-.055.075-.129.15-.129.15l.332.245s.221-.095.313.055-.11.226-.11.226l.092.093s.295-.15.387.132c.057.175-.184.281-.184.281l.055.095s.331-.076.331.356c0 .244-.35.113-.35.113l-.073.112s.258.225.018.432c-.17.146-.442-.057-.442-.057l-.037.057.002.004c.013.034.09.247-.131.334-.24.094-.35-.206-.35-.206v.006c.004.042.015.292-.221.275-.259-.019-.259-.281-.259-.281h-.073s.018.169-.203.187c-.221.019-.221-.113-.221-.113l-.056.075-.108.282s-.112-.094-.186-.15c-.074-.056-.424-.39-.424-.39l.008 1.115-.247-.04.055.272-1.714.075.037-.328-.258.065-.018-.994-.481.375-.282-.428-.104.015s-.018.263-.331.244c-.202-.012-.202-.281-.202-.281h-.093s.003.347-.31.31c-.313-.038-.15-.33-.15-.33h-.074s-.148.188-.35.095c-.203-.094-.056-.338-.056-.338l-.055-.02s-.092.207-.332 0c-.24-.206.055-.374.055-.374l-.055-.076s-.269.049-.276-.188c-.011-.356.331-.3.331-.3l.019-.093s-.295-.02-.22-.263c.072-.244.423-.15.423-.15s-.074-.15-.019-.263c.056-.113.313-.094.313-.094l.258-.3s-.036-.057-.091-.17c-.056-.111 0-.169 0-.169s-.277-.15-.222-.3c.055-.15-.092-.13-.258-.018s-.387.45-.46.544a8.95 8.95 0 0 1-.259.3s-.036-.074-.036-.168c0-.094-.019-.958-.019-.958s-.46.3-.553.394c-.092.094-.258.132-.258.132s.074-.338.148-.488c.073-.15.258-.639.258-.639s-.295.15-.369.17l-.552.13s.054-.262.184-.393c.129-.132.497-.676.497-.676l-.571-.094.646-.713s-.056-.32-.093-.375c-.037-.057-.148-.451-.185-.545-.036-.094-.57-.357-.718-.376-.147-.018-.147.057-.203.188-.055.132-.147.395-.258.507-.11.113-.442.282-.516.376-.074.094-.055.337-.092.412a3.461 3.461 0 0 1-.258.395c-.11.15.019.281.166.206.147-.075.165-.244.313-.469.148-.225.424-.282.424-.282s-.074.132-.147.282c-.074.15.037.375-.019.47-.055.093-.35.356-.35.356l.148.32s-.222.093-.35.13c-.13.038-.258.15-.369.244-.11.094-.203.15-.092.15.11 0 .184-.056.405-.037.221.019.388.094.388.094s-.111.075-.24.13c-.13.057-.295.32-.295.32s.11.075.147.17a1.4 1.4 0 0 0 .111.206l-.221.075c-.111.037-.35.094-.461.169-.11.075-.019.113-.019.113s.13 0 .314.037.22.45.22.45l-.11.057s-.184-.095-.35-.15c-.166-.057-.35-.02-.35-.02s-.147.113-.147.189c0 .074.129.168.129.3 0 .13-.11.225-.11.225s-.167-.131-.296-.187c-.128-.057-.221-.038-.35-.038-.129 0-.11.038-.534.056-.424.019-.222-.018-.313-.094-.093-.075-.221-.131-.221-.131s-.074.094-.055.187c.018.094.055.207.055.32 0 .112-.35.375-.35.375s.073.169.036.32c-.037.149-.368.093-.368.093l-.019.094s.203.263.055.413c-.147.15-.386-.019-.386-.019s-.02.3-.203.32c-.185.018-.222-.245-.222-.245l-.202-.075s-.074.131-.277.057c-.202-.075 0-.376 0-.376l-.092-.075s-.147.037-.24-.113c-.09-.15.056-.319.056-.319l-.147.02s-.055.205-.074.3c-.019.093-.055.224-.055.224l-.055-.075c-.056-.075-.24-.262-.24-.262l-.184.056.257.563-1.142-.582.497-.206-.092-.244s-.387.093-.423.019c-.037-.075.184-.3.184-.3h-.221s-.019.186-.24.112c-.22-.075-.11-.207-.11-.207l-.148-.075s-.037.075-.11.075c-.074 0-.093.113-.295-.15-.203-.262.184-.3.184-.3l-.018-.188s-.295-.168-.203-.3c.092-.131.276-.038.276-.038l.148-.093s-.056-.188.092-.226c.148-.037.166.094.166.094l.11-.056s-.055-.15.056-.17c.11-.018.184 0 .184 0s-.203-.375-.332-.6c-.129-.225-.313-.75-.369-.845-.054-.094 0-.168.093-.281.091-.113.203-.226.295-.263.092-.037-.037-.094-.055-.207-.02-.112.036-.169.036-.169s-.11-.244-.092-.394c.019-.15.313-.413.442-.469.13-.056.24-.112.332-.188.092-.075.202-.337.295-.3.092.038 0 .507 0 .507s.258.169.295.225c.037.056.11.019.073-.112-.036-.132-.073-.338-.036-.451.036-.113.24-.282.35-.282.11 0-.185-.206-.258-.244-.074-.037-.444-.035-.572-.15-.165-.15-.331-.356-.57-.394-.24-.038-.259-.037-.259-.037s.019-.057.148-.131c.129-.076.369-.057.608.056.24.112.331.206.516.206.184 0 .313-.113.24-.15a5.624 5.624 0 0 0-.37-.15c-.054-.02-.202-.132-.258-.132-.055 0-.441-.15-.552-.206-.11-.056-.295-.15-.258-.206.037-.056.626-.32.626-.32s-.073-.15-.202-.225c-.13-.075-.498-.056-.48-.131.02-.075.111-.225.111-.225s-.129-.02-.276.018c-.148.037-.222.3-.222.3s.322.227.149 1.183zm-8.463-3.99s1.032-.638 1.364-.808c.332-.168 1.714-.713 1.714-.713l-.94-.338c-1.203.566-.572.255-1.143.545-.22.112-.7.394-.7.394l-.295.92z"/></g></g><g transform="matrix(1 0 0 -1 .237 18.17)"><mask id="f" fill="#fff"><use xlink:href="#e"/></mask><g mask="url(#f)"><path d="M37.504 2.084H27.123v.17l1.5.856v10.37l-1.5.871v.17h10.03l.22-3.249-.184-.065s-1.607 1.694-1.976 2.042c-.37.348-.641.435-.878.517-.493.13-1.029.125-1.029.125l-1.836.059-.007-5.255s1.927.032 2.14.058c.291.036.404.036.808.513.328.386.85 1.081.85 1.081h.213V6.183h-.213s-1.013 1.501-1.091 1.552c-.078.05-.24.289-.772.281-.532-.007-1.942.037-1.942.037l.005-5.366s1.096-.016 1.98.062c.882.077 1.369.093 1.947.589.579.496 2.1 2.31 2.1 2.31l.229-.078-.213-3.486zM130.392 5.57l-.228.078s-1.522-1.814-2.1-2.31c-.578-.496-1.066-.512-1.948-.59-.884-.077-1.98-.061-1.98-.061l-.004 5.366s1.41-.044 1.941-.037c.532.008.695-.23.773-.28.078-.052 1.09-1.553 1.09-1.553h.214v4.165h-.214s-.521-.696-.85-1.082c-.403-.477-.517-.477-.807-.513-.213-.026-2.14-.058-2.14-.058l.007 5.255 1.836-.059s.535.005 1.03-.125c.235-.082.506-.17.877-.517.37-.348 1.975-2.042 1.975-2.042l.184.065-.22 3.25h-5.766l-.002-.001H119.8v-.17l1.5-.871V3.11l-1.5-.857v-.169h10.381" fill="#14233D"/></g></g><g transform="matrix(1 0 0 -1 .237 17.608)"><mask id="h" fill="#fff"><use xlink:href="#g"/></mask><g mask="url(#h)"><path fill="#14233D" d="M111.487 5.445l3.718 8.517h4.073l-.005-.183-1.484-.865V2.574l1.484-.865.005-.183h-5.791v.169l1.501.857v8.845l-4.387-9.7h-.531l-4.677 9.9V2.574l1.485-.865.005-.183h-3.896v.169l1.5.857v10.385l-1.5.856v.17h4.407zM138.649 13.789l.228-3.07-.201-.042s-2.087 2.316-2.328 2.509c-.115.09-1.104.808-2.162.054 0 0-1.028-.712-.369-2.029.66-1.315 2.61-2.247 3.11-2.549.497-.301 2.992-1.537 2.677-4.057-.296-2.372-2.377-3.054-3.243-3.222-1.844-.356-4.696.439-4.696.439l-.216 3.221.243.028s2.084-2.537 2.906-2.851c.82-.315 1.952-.425 2.624.452.673.878.114 2.113-.552 2.577-.942.658-2.312 1.396-3.27 2.043-1.076.726-1.752 1.773-1.898 2.974-.2 1.672.768 3.043 2.02 3.55 1.156.469 2.099.37 2.947.316.877-.057 2.18-.343 2.18-.343"/></g></g></g></svg>