<?xml version="1.0" encoding="UTF-8"?>
<svg width="48px" height="48px" viewBox="0 0 48 48" version="1.1" xmlns="http://www.w3.org/2000/svg" xmlns:xlink="http://www.w3.org/1999/xlink">
    <!-- Generator: Sketch 50.2 (55047) - http://www.bohemiancoding.com/sketch -->
    <title>Icons/target</title>
    <desc>Created with Sketch.</desc>
    <defs></defs>
    <g id="Icons/target" stroke="none" stroke-width="1" fill="none" fill-rule="evenodd">
        <g id="Group-3" fill="#00A4DB">
            <rect id="Rectangle-2" x="0" y="0" width="48" height="48" rx="6"></rect>
        </g>
        <g id="Page-1" transform="translate(9.000000, 9.000000)" fill="#FFFFFF">
            <path d="M15,0 C6.7156,0 0,6.7156 0,15 C0,23.2844 6.7156,30 15,30 C23.2844,30 30,23.2844 30,15 C30,6.7156 23.2844,0 15,0 L15,0 Z M15,28.3328 C7.636,28.3328 1.6672,22.364 1.6672,15 C1.6672,7.636 7.636,1.6672 15,1.6672 C22.364,1.6672 28.3328,7.6376 28.3328,15 C28.3328,22.364 22.364,28.3328 15,28.3328 L15,28.3328 Z" id="Fill-1"></path>
            <path d="M15.1724138,5.17241379 C9.64881379,5.17241379 5.17241379,9.64881379 5.17241379,15.1724138 C5.17241379,20.6960138 9.64881379,25.1724138 15.1724138,25.1724138 C20.6960138,25.1724138 25.1724138,20.6960138 25.1724138,15.1724138 C25.1724138,9.64881379 20.6960138,5.17241379 15.1724138,5.17241379 L15.1724138,5.17241379 Z M15.1724138,23.5052138 C10.5692138,23.5052138 6.83961379,19.7740138 6.83961379,15.1724138 C6.83961379,10.5692138 10.5708138,6.83961379 15.1724138,6.83961379 C19.7740138,6.83961379 23.5052138,10.5708138 23.5052138,15.1724138 C23.5052138,19.7740138 19.7740138,23.5052138 15.1724138,23.5052138 L15.1724138,23.5052138 Z" id="Fill-2"></path>
            <path d="M19.3103448,15.1724138 C19.3103448,17.4578482 17.4578482,19.3103448 15.1724138,19.3103448 C12.8869794,19.3103448 11.0344828,17.4578482 11.0344828,15.1724138 C11.0344828,12.8869794 12.8869794,11.0344828 15.1724138,11.0344828 C17.4578482,11.0344828 19.3103448,12.8869794 19.3103448,15.1724138 L19.3103448,15.1724138 Z" id="Fill-3"></path>
            <polygon id="Fill-4" points="21.0344828 15.862069 30 15.862069 30 14.8275862 21.0344828 14.8275862"></polygon>
            <polygon id="Fill-5" points="0 15.862069 8.96551724 15.862069 8.96551724 14.8275862 0 14.8275862"></polygon>
            <polygon id="Fill-6" points="15.862069 0 15.862069 8.96551724 14.8275862 8.96551724 14.8275862 0"></polygon>
            <polygon id="Fill-7" points="15.862069 21.0344828 15.862069 30 14.8275862 30 14.8275862 21.0344828"></polygon>
        </g>
    </g>
</svg>